  0
SECTION
  2
HEADER
  9
$ACADVER
  1
AC1014
  9
$HANDSEED
  5
FFFF
  9
$MEASUREMENT
 70
     1
  0
ENDSEC
  0
SECTION
  2
TABLES
  0
TABLE
  2
VPORT
  5
8
330
0
100
AcDbSymbolTable
 70
     4
  0
VPORT
  5
2E
330
8
100
AcDbSymbolTableRecord
100
AcDbViewportTableRecord
  2
*ACTIVE
 70
     0
 10
0.0
 20
0.0
 11
1.0
 21
1.0
 12
210.0
 22
148.5
 13
0.0
 23
0.0
 14
10.0
 24
10.0
 15
10.0
 25
10.0
 16
0.0
 26
0.0
 36
1.0
 17
0.0
 27
0.0
 37
0.0
 40
341.0
 41
1.24
 42
50.0
 43
0.0
 44
0.0
 50
0.0
 51
0.0
 71
     0
 72
   100
 73
     1
 74
     3
 75
     0
 76
     0
 77
     0
 78
     0
  0
ENDTAB
  0
TABLE
  2
LTYPE
  5
5
330
0
100
AcDbSymbolTable
 70
     1
  0
LTYPE
  5
14
330
5
100
AcDbSymbolTableRecord
100
AcDbLinetypeTableRecord
  2
BYBLOCK
 70
     0
  3

 72
    65
 73
     0
 40
0.0
  0
LTYPE
  5
15
330
5
100
AcDbSymbolTableRecord
100
AcDbLinetypeTableRecord
  2
BYLAYER
 70
     0
  3

 72
    65
 73
     0
 40
0.0
  0
LTYPE
  5
16
330
5
100
AcDbSymbolTableRecord
100
AcDbLinetypeTableRecord
  2
CONTINUOUS
 70
     0
  3
Solid line
 72
    65
 73
     0
 40
0.0
  0
ENDTAB
  0
TABLE
  2
LAYER
  5
2
100
AcDbSymbolTable
 70
1
  0
LAYER
  5
50
100
AcDbSymbolTableRecord
100
AcDbLayerTableRecord
  2
0
 70
0
  6
CONTINUOUS
  0
ENDTAB
  0
TABLE
  2
STYLE
  5
3
330
0
100
AcDbSymbolTable
 70
     1
  0
STYLE
  5
11
330
3
100
AcDbSymbolTableRecord
100
AcDbTextStyleTableRecord
  2
STANDARD
 70
     0
 40
0.0
 41
1.0
 50
0.0
 71
     0
 42
2.5
  3
txt
  4

  0
ENDTAB
  0
TABLE
  2
VIEW
  5
6
330
0
100
AcDbSymbolTable
 70
     0
  0
ENDTAB
  0
TABLE
  2
UCS
  5
7
330
0
100
AcDbSymbolTable
 70
     0
  0
ENDTAB
  0
TABLE
  2
APPID
  5
9
330
0
100
AcDbSymbolTable
 70
     2
  0
APPID
  5
12
330
9
100
AcDbSymbolTableRecord
100
AcDbRegAppTableRecord
  2
ACAD
 70
     0
  0
ENDTAB
  0
TABLE
  2
DIMSTYLE
  5
A
330
0
100
AcDbSymbolTable
 70
     1
  0
DIMSTYLE
105
27
330
A
100
AcDbSymbolTableRecord
100
AcDbDimStyleTableRecord
  2
ISO-25
 70
     0
  3

  4

  5

  6

  7

 40
1.0
 41
2.5
 42
0.625
 43
3.75
 44
1.25
 45
0.0
 46
0.0
 47
0.0
 48
0.0
140
2.5
141
2.5
142
0.0
143
0.03937007874016
144
1.0
145
0.0
146
1.0
147
0.625
 71
     0
 72
     0
 73
     0
 74
     0
 75
     0
 76
     0
 77
     1
 78
     8
170
     0
171
     3
172
     1
173
     0
174
     0
175
     0
176
     0
177
     0
178
     0
270
     2
271
     2
272
     2
273
     2
274
     3
340
11
275
     0
280
     0
281
     0
282
     0
283
     0
284
     8
285
     0
286
     0
287
     3
288
     0
  0
ENDTAB
  0
TABLE
  2
BLOCK_RECORD
  5
1
330
0
100
AcDbSymbolTable
 70
     1
  0
BLOCK_RECORD
  5
1F
330
1
100
AcDbSymbolTableRecord
100
AcDbBlockTableRecord
  2
*MODEL_SPACE
  0
BLOCK_RECORD
  5
1B
330
1
100
AcDbSymbolTableRecord
100
AcDbBlockTableRecord
  2
*PAPER_SPACE
  0
ENDTAB
  0
ENDSEC
  0
SECTION
  2
BLOCKS
  0
BLOCK
  5
20
330
1F
100
AcDbEntity
  8
0
100
AcDbBlockBegin
  2
*MODEL_SPACE
 70
     0
 10
0.0
 20
0.0
 30
0.0
  3
*MODEL_SPACE
  1

  0
ENDBLK
  5
21
330
1F
100
AcDbEntity
  8
0
100
AcDbBlockEnd
  0
BLOCK
  5
1C
330
1B
100
AcDbEntity
 67
     1
  8
0
100
AcDbBlockBegin
  2
*PAPER_SPACE
  1

  0
ENDBLK
  5
1D
330
1B
100
AcDbEntity
 67
     1
  8
0
100
AcDbBlockEnd
  0
ENDSEC
  0
SECTION
  2
ENTITIES
  0
SPLINE
  5
100
100
AcDbEntity
  8
0
 62
7
100
AcDbSpline
 70
8
 71
3
 72
8
 73
4
 74
0
 40
0
 40
0
 40
0
 40
0
 40
1
 40
1
 40
1
 40
1
 10
-13.900000
 20
78.150000
 30
0.0
 10
-13.900000
 20
78.721625
 30
0.0
 10
-14.204958
 20
79.249828
 30
0.0
 10
-14.700000
 20
79.535641
 30
0.0
  0
SPLINE
  5
101
100
AcDbEntity
  8
0
 62
7
100
AcDbSpline
 70
8
 71
3
 72
8
 73
4
 74
0
 40
0
 40
0
 40
0
 40
0
 40
1
 40
1
 40
1
 40
1
 10
-14.700000
 20
79.535641
 30
0.0
 10
-15.195042
 20
79.821453
 30
0.0
 10
-15.804958
 20
79.821453
 30
0.0
 10
-16.300000
 20
79.535641
 30
0.0
  0
SPLINE
  5
102
100
AcDbEntity
  8
0
 62
7
100
AcDbSpline
 70
8
 71
3
 72
8
 73
4
 74
0
 40
0
 40
0
 40
0
 40
0
 40
1
 40
1
 40
1
 40
1
 10
-16.300000
 20
79.535641
 30
0.0
 10
-16.795042
 20
79.249828
 30
0.0
 10
-17.100000
 20
78.721625
 30
0.0
 10
-17.100000
 20
78.150000
 30
0.0
  0
SPLINE
  5
103
100
AcDbEntity
  8
0
 62
7
100
AcDbSpline
 70
8
 71
3
 72
8
 73
4
 74
0
 40
0
 40
0
 40
0
 40
0
 40
1
 40
1
 40
1
 40
1
 10
-17.100000
 20
78.150000
 30
0.0
 10
-17.100000
 20
77.578375
 30
0.0
 10
-16.795042
 20
77.050172
 30
0.0
 10
-16.300000
 20
76.764359
 30
0.0
  0
SPLINE
  5
104
100
AcDbEntity
  8
0
 62
7
100
AcDbSpline
 70
8
 71
3
 72
8
 73
4
 74
0
 40
0
 40
0
 40
0
 40
0
 40
1
 40
1
 40
1
 40
1
 10
-16.300000
 20
76.764359
 30
0.0
 10
-15.804958
 20
76.478547
 30
0.0
 10
-15.195042
 20
76.478547
 30
0.0
 10
-14.700000
 20
76.764359
 30
0.0
  0
SPLINE
  5
105
100
AcDbEntity
  8
0
 62
7
100
AcDbSpline
 70
8
 71
3
 72
8
 73
4
 74
0
 40
0
 40
0
 40
0
 40
0
 40
1
 40
1
 40
1
 40
1
 10
-14.700000
 20
76.764359
 30
0.0
 10
-14.204958
 20
77.050172
 30
0.0
 10
-13.900000
 20
77.578375
 30
0.0
 10
-13.900000
 20
78.150000
 30
0.0
  0
SPLINE
  5
106
100
AcDbEntity
  8
0
 62
7
100
AcDbSpline
 70
8
 71
3
 72
8
 73
4
 74
0
 40
0
 40
0
 40
0
 40
0
 40
1
 40
1
 40
1
 40
1
 10
-13.900000
 20
47.150000
 30
0.0
 10
-13.900000
 20
47.721625
 30
0.0
 10
-14.204958
 20
48.249828
 30
0.0
 10
-14.700000
 20
48.535640
 30
0.0
  0
SPLINE
  5
107
100
AcDbEntity
  8
0
 62
7
100
AcDbSpline
 70
8
 71
3
 72
8
 73
4
 74
0
 40
0
 40
0
 40
0
 40
0
 40
1
 40
1
 40
1
 40
1
 10
-14.700000
 20
48.535640
 30
0.0
 10
-15.195042
 20
48.821453
 30
0.0
 10
-15.804958
 20
48.821453
 30
0.0
 10
-16.300000
 20
48.535640
 30
0.0
  0
SPLINE
  5
108
100
AcDbEntity
  8
0
 62
7
100
AcDbSpline
 70
8
 71
3
 72
8
 73
4
 74
0
 40
0
 40
0
 40
0
 40
0
 40
1
 40
1
 40
1
 40
1
 10
-16.300000
 20
48.535640
 30
0.0
 10
-16.795042
 20
48.249828
 30
0.0
 10
-17.100000
 20
47.721625
 30
0.0
 10
-17.100000
 20
47.150000
 30
0.0
  0
SPLINE
  5
109
100
AcDbEntity
  8
0
 62
7
100
AcDbSpline
 70
8
 71
3
 72
8
 73
4
 74
0
 40
0
 40
0
 40
0
 40
0
 40
1
 40
1
 40
1
 40
1
 10
-17.100000
 20
47.150000
 30
0.0
 10
-17.100000
 20
46.578375
 30
0.0
 10
-16.795042
 20
46.050172
 30
0.0
 10
-16.300000
 20
45.764359
 30
0.0
  0
SPLINE
  5
10a
100
AcDbEntity
  8
0
 62
7
100
AcDbSpline
 70
8
 71
3
 72
8
 73
4
 74
0
 40
0
 40
0
 40
0
 40
0
 40
1
 40
1
 40
1
 40
1
 10
-16.300000
 20
45.764359
 30
0.0
 10
-15.804958
 20
45.478547
 30
0.0
 10
-15.195042
 20
45.478547
 30
0.0
 10
-14.700000
 20
45.764359
 30
0.0
  0
SPLINE
  5
10b
100
AcDbEntity
  8
0
 62
7
100
AcDbSpline
 70
8
 71
3
 72
8
 73
4
 74
0
 40
0
 40
0
 40
0
 40
0
 40
1
 40
1
 40
1
 40
1
 10
-14.700000
 20
45.764359
 30
0.0
 10
-14.204958
 20
46.050172
 30
0.0
 10
-13.900000
 20
46.578375
 30
0.0
 10
-13.900000
 20
47.150000
 30
0.0
  0
LWPOLYLINE
  5
10c
100
AcDbEntity
  8
0
 62
7
100
AcDbPolyline
 90
2
 70
0
 10
-13.900000
 20
78.150000
 30
0.0
 10
-13.900000
 20
78.150000
 30
0.0
  0
SPLINE
  5
10d
100
AcDbEntity
  8
0
 62
7
100
AcDbSpline
 70
8
 71
3
 72
8
 73
4
 74
0
 40
0
 40
0
 40
0
 40
0
 40
1
 40
1
 40
1
 40
1
 10
17.100000
 20
47.150000
 30
0.0
 10
17.100000
 20
47.721625
 30
0.0
 10
16.795042
 20
48.249828
 30
0.0
 10
16.300000
 20
48.535640
 30
0.0
  0
SPLINE
  5
10e
100
AcDbEntity
  8
0
 62
7
100
AcDbSpline
 70
8
 71
3
 72
8
 73
4
 74
0
 40
0
 40
0
 40
0
 40
0
 40
1
 40
1
 40
1
 40
1
 10
16.300000
 20
48.535640
 30
0.0
 10
15.804958
 20
48.821453
 30
0.0
 10
15.195042
 20
48.821453
 30
0.0
 10
14.700000
 20
48.535640
 30
0.0
  0
SPLINE
  5
10f
100
AcDbEntity
  8
0
 62
7
100
AcDbSpline
 70
8
 71
3
 72
8
 73
4
 74
0
 40
0
 40
0
 40
0
 40
0
 40
1
 40
1
 40
1
 40
1
 10
14.700000
 20
48.535640
 30
0.0
 10
14.204958
 20
48.249828
 30
0.0
 10
13.900000
 20
47.721625
 30
0.0
 10
13.900000
 20
47.150000
 30
0.0
  0
SPLINE
  5
110
100
AcDbEntity
  8
0
 62
7
100
AcDbSpline
 70
8
 71
3
 72
8
 73
4
 74
0
 40
0
 40
0
 40
0
 40
0
 40
1
 40
1
 40
1
 40
1
 10
13.900000
 20
47.150000
 30
0.0
 10
13.900000
 20
46.578375
 30
0.0
 10
14.204958
 20
46.050172
 30
0.0
 10
14.700000
 20
45.764359
 30
0.0
  0
SPLINE
  5
111
100
AcDbEntity
  8
0
 62
7
100
AcDbSpline
 70
8
 71
3
 72
8
 73
4
 74
0
 40
0
 40
0
 40
0
 40
0
 40
1
 40
1
 40
1
 40
1
 10
14.700000
 20
45.764359
 30
0.0
 10
15.195042
 20
45.478547
 30
0.0
 10
15.804958
 20
45.478547
 30
0.0
 10
16.300000
 20
45.764359
 30
0.0
  0
SPLINE
  5
112
100
AcDbEntity
  8
0
 62
7
100
AcDbSpline
 70
8
 71
3
 72
8
 73
4
 74
0
 40
0
 40
0
 40
0
 40
0
 40
1
 40
1
 40
1
 40
1
 10
16.300000
 20
45.764359
 30
0.0
 10
16.795042
 20
46.050172
 30
0.0
 10
17.100000
 20
46.578375
 30
0.0
 10
17.100000
 20
47.150000
 30
0.0
  0
LWPOLYLINE
  5
113
100
AcDbEntity
  8
0
 62
7
100
AcDbPolyline
 90
2
 70
0
 10
-13.900000
 20
47.150000
 30
0.0
 10
-13.900000
 20
47.150000
 30
0.0
  0
SPLINE
  5
114
100
AcDbEntity
  8
0
 62
7
100
AcDbSpline
 70
8
 71
3
 72
8
 73
4
 74
0
 40
0
 40
0
 40
0
 40
0
 40
1
 40
1
 40
1
 40
1
 10
17.100000
 20
78.150000
 30
0.0
 10
17.100000
 20
78.721625
 30
0.0
 10
16.795042
 20
79.249828
 30
0.0
 10
16.300000
 20
79.535641
 30
0.0
  0
SPLINE
  5
115
100
AcDbEntity
  8
0
 62
7
100
AcDbSpline
 70
8
 71
3
 72
8
 73
4
 74
0
 40
0
 40
0
 40
0
 40
0
 40
1
 40
1
 40
1
 40
1
 10
16.300000
 20
79.535641
 30
0.0
 10
15.804958
 20
79.821453
 30
0.0
 10
15.195042
 20
79.821453
 30
0.0
 10
14.700000
 20
79.535641
 30
0.0
  0
SPLINE
  5
116
100
AcDbEntity
  8
0
 62
7
100
AcDbSpline
 70
8
 71
3
 72
8
 73
4
 74
0
 40
0
 40
0
 40
0
 40
0
 40
1
 40
1
 40
1
 40
1
 10
14.700000
 20
79.535641
 30
0.0
 10
14.204958
 20
79.249828
 30
0.0
 10
13.900000
 20
78.721625
 30
0.0
 10
13.900000
 20
78.150000
 30
0.0
  0
SPLINE
  5
117
100
AcDbEntity
  8
0
 62
7
100
AcDbSpline
 70
8
 71
3
 72
8
 73
4
 74
0
 40
0
 40
0
 40
0
 40
0
 40
1
 40
1
 40
1
 40
1
 10
13.900000
 20
78.150000
 30
0.0
 10
13.900000
 20
77.578375
 30
0.0
 10
14.204958
 20
77.050172
 30
0.0
 10
14.700000
 20
76.764359
 30
0.0
  0
SPLINE
  5
118
100
AcDbEntity
  8
0
 62
7
100
AcDbSpline
 70
8
 71
3
 72
8
 73
4
 74
0
 40
0
 40
0
 40
0
 40
0
 40
1
 40
1
 40
1
 40
1
 10
14.700000
 20
76.764359
 30
0.0
 10
15.195042
 20
76.478547
 30
0.0
 10
15.804958
 20
76.478547
 30
0.0
 10
16.300000
 20
76.764359
 30
0.0
  0
SPLINE
  5
119
100
AcDbEntity
  8
0
 62
7
100
AcDbSpline
 70
8
 71
3
 72
8
 73
4
 74
0
 40
0
 40
0
 40
0
 40
0
 40
1
 40
1
 40
1
 40
1
 10
16.300000
 20
76.764359
 30
0.0
 10
16.795042
 20
77.050172
 30
0.0
 10
17.100000
 20
77.578375
 30
0.0
 10
17.100000
 20
78.150000
 30
0.0
  0
LWPOLYLINE
  5
11a
100
AcDbEntity
  8
0
 62
7
100
AcDbPolyline
 90
2
 70
0
 10
17.100000
 20
47.150000
 30
0.0
 10
17.100000
 20
47.150000
 30
0.0
  0
SPLINE
  5
11b
100
AcDbEntity
  8
0
 62
7
100
AcDbSpline
 70
8
 71
3
 72
8
 73
4
 74
0
 40
0
 40
0
 40
0
 40
0
 40
1
 40
1
 40
1
 40
1
 10
11.500000
 20
62.650000
 30
0.0
 10
11.500000
 20
66.758554
 30
0.0
 10
9.308112
 20
70.555015
 30
0.0
 10
5.750000
 20
72.609292
 30
0.0
  0
SPLINE
  5
11c
100
AcDbEntity
  8
0
 62
7
100
AcDbSpline
 70
8
 71
3
 72
8
 73
4
 74
0
 40
0
 40
0
 40
0
 40
0
 40
1
 40
1
 40
1
 40
1
 10
5.750000
 20
72.609292
 30
0.0
 10
2.191888
 20
74.663569
 30
0.0
 10
-2.191888
 20
74.663569
 30
0.0
 10
-5.750000
 20
72.609292
 30
0.0
  0
SPLINE
  5
11d
100
AcDbEntity
  8
0
 62
7
100
AcDbSpline
 70
8
 71
3
 72
8
 73
4
 74
0
 40
0
 40
0
 40
0
 40
0
 40
1
 40
1
 40
1
 40
1
 10
-5.750000
 20
72.609292
 30
0.0
 10
-9.308112
 20
70.555015
 30
0.0
 10
-11.500000
 20
66.758554
 30
0.0
 10
-11.500000
 20
62.650000
 30
0.0
  0
SPLINE
  5
11e
100
AcDbEntity
  8
0
 62
7
100
AcDbSpline
 70
8
 71
3
 72
8
 73
4
 74
0
 40
0
 40
0
 40
0
 40
0
 40
1
 40
1
 40
1
 40
1
 10
-11.500000
 20
62.650000
 30
0.0
 10
-11.500000
 20
58.541446
 30
0.0
 10
-9.308112
 20
54.744985
 30
0.0
 10
-5.750000
 20
52.690708
 30
0.0
  0
SPLINE
  5
11f
100
AcDbEntity
  8
0
 62
7
100
AcDbSpline
 70
8
 71
3
 72
8
 73
4
 74
0
 40
0
 40
0
 40
0
 40
0
 40
1
 40
1
 40
1
 40
1
 10
-5.750000
 20
52.690708
 30
0.0
 10
-2.191888
 20
50.636431
 30
0.0
 10
2.191888
 20
50.636431
 30
0.0
 10
5.750000
 20
52.690708
 30
0.0
  0
SPLINE
  5
120
100
AcDbEntity
  8
0
 62
7
100
AcDbSpline
 70
8
 71
3
 72
8
 73
4
 74
0
 40
0
 40
0
 40
0
 40
0
 40
1
 40
1
 40
1
 40
1
 10
5.750000
 20
52.690708
 30
0.0
 10
9.308112
 20
54.744985
 30
0.0
 10
11.500000
 20
58.541446
 30
0.0
 10
11.500000
 20
62.650000
 30
0.0
  0
LWPOLYLINE
  5
121
100
AcDbEntity
  8
0
 62
7
100
AcDbPolyline
 90
2
 70
0
 10
17.100000
 20
78.150000
 30
0.0
 10
17.100000
 20
78.150000
 30
0.0
  0
LWPOLYLINE
  5
122
100
AcDbEntity
  8
0
 62
7
100
AcDbPolyline
 90
2
 70
0
 10
11.500000
 20
62.650000
 30
0.0
 10
11.500000
 20
62.650000
 30
0.0
  0
LWPOLYLINE
  5
123
100
AcDbEntity
  8
0
 62
7
100
AcDbPolyline
 90
6
 70
0
 10
-34.000000
 20
63.800000
 30
0.0
 10
-34.000000
 20
38.500000
 30
0.0
 10
-29.000000
 20
33.500000
 30
0.0
 10
29.000000
 20
33.500000
 30
0.0
 10
34.000000
 20
38.500000
 30
0.0
 10
34.000000
 20
63.800000
 30
0.0
  0
LWPOLYLINE
  5
124
100
AcDbEntity
  8
0
 62
7
100
AcDbPolyline
 90
2
 70
0
 10
78.400000
 20
63.800000
 30
0.0
 10
34.000000
 20
63.800000
 30
0.0
  0
LWPOLYLINE
  5
125
100
AcDbEntity
  8
0
 62
7
100
AcDbPolyline
 90
2
 70
0
 10
78.400000
 20
110.300000
 30
0.0
 10
78.400000
 20
63.800000
 30
0.0
  0
LWPOLYLINE
  5
126
100
AcDbEntity
  8
0
 62
7
100
AcDbPolyline
 90
2
 70
0
 10
78.400000
 20
110.300000
 30
0.0
 10
-78.400000
 20
110.300000
 30
0.0
  0
LWPOLYLINE
  5
127
100
AcDbEntity
  8
0
 62
7
100
AcDbPolyline
 90
2
 70
0
 10
-78.400000
 20
63.800000
 30
0.0
 10
-78.400000
 20
110.300000
 30
0.0
  0
SPLINE
  5
128
100
AcDbEntity
  8
0
 62
7
100
AcDbSpline
 70
8
 71
3
 72
8
 73
4
 74
0
 40
0
 40
0
 40
0
 40
0
 40
1
 40
1
 40
1
 40
1
 10
-42.600000
 20
93.800000
 30
0.0
 10
-42.600000
 20
94.371625
 30
0.0
 10
-42.904958
 20
94.899828
 30
0.0
 10
-43.400000
 20
95.185641
 30
0.0
  0
SPLINE
  5
129
100
AcDbEntity
  8
0
 62
7
100
AcDbSpline
 70
8
 71
3
 72
8
 73
4
 74
0
 40
0
 40
0
 40
0
 40
0
 40
1
 40
1
 40
1
 40
1
 10
-43.400000
 20
95.185641
 30
0.0
 10
-43.895042
 20
95.471453
 30
0.0
 10
-44.504958
 20
95.471453
 30
0.0
 10
-45.000000
 20
95.185641
 30
0.0
  0
SPLINE
  5
12a
100
AcDbEntity
  8
0
 62
7
100
AcDbSpline
 70
8
 71
3
 72
8
 73
4
 74
0
 40
0
 40
0
 40
0
 40
0
 40
1
 40
1
 40
1
 40
1
 10
-45.000000
 20
95.185641
 30
0.0
 10
-45.495042
 20
94.899828
 30
0.0
 10
-45.800000
 20
94.371625
 30
0.0
 10
-45.800000
 20
93.800000
 30
0.0
  0
SPLINE
  5
12b
100
AcDbEntity
  8
0
 62
7
100
AcDbSpline
 70
8
 71
3
 72
8
 73
4
 74
0
 40
0
 40
0
 40
0
 40
0
 40
1
 40
1
 40
1
 40
1
 10
-45.800000
 20
93.800000
 30
0.0
 10
-45.800000
 20
93.228375
 30
0.0
 10
-45.495042
 20
92.700172
 30
0.0
 10
-45.000000
 20
92.414359
 30
0.0
  0
SPLINE
  5
12c
100
AcDbEntity
  8
0
 62
7
100
AcDbSpline
 70
8
 71
3
 72
8
 73
4
 74
0
 40
0
 40
0
 40
0
 40
0
 40
1
 40
1
 40
1
 40
1
 10
-45.000000
 20
92.414359
 30
0.0
 10
-44.504958
 20
92.128547
 30
0.0
 10
-43.895042
 20
92.128547
 30
0.0
 10
-43.400000
 20
92.414359
 30
0.0
  0
SPLINE
  5
12d
100
AcDbEntity
  8
0
 62
7
100
AcDbSpline
 70
8
 71
3
 72
8
 73
4
 74
0
 40
0
 40
0
 40
0
 40
0
 40
1
 40
1
 40
1
 40
1
 10
-43.400000
 20
92.414359
 30
0.0
 10
-42.904958
 20
92.700172
 30
0.0
 10
-42.600000
 20
93.228375
 30
0.0
 10
-42.600000
 20
93.800000
 30
0.0
  0
LWPOLYLINE
  5
12e
100
AcDbEntity
  8
0
 62
7
100
AcDbPolyline
 90
2
 70
0
 10
-34.000000
 20
63.800000
 30
0.0
 10
-78.400000
 20
63.800000
 30
0.0
  0
SPLINE
  5
12f
100
AcDbEntity
  8
0
 62
7
100
AcDbSpline
 70
8
 71
3
 72
8
 73
4
 74
0
 40
0
 40
0
 40
0
 40
0
 40
1
 40
1
 40
1
 40
1
 10
71.025000
 20
93.800000
 30
0.0
 10
71.025000
 20
94.737822
 30
0.0
 10
70.524678
 20
95.604406
 30
0.0
 10
69.712500
 20
96.073317
 30
0.0
  0
SPLINE
  5
130
100
AcDbEntity
  8
0
 62
7
100
AcDbSpline
 70
8
 71
3
 72
8
 73
4
 74
0
 40
0
 40
0
 40
0
 40
0
 40
1
 40
1
 40
1
 40
1
 10
69.712500
 20
96.073317
 30
0.0
 10
68.900322
 20
96.542228
 30
0.0
 10
67.899678
 20
96.542228
 30
0.0
 10
67.087500
 20
96.073317
 30
0.0
  0
SPLINE
  5
131
100
AcDbEntity
  8
0
 62
7
100
AcDbSpline
 70
8
 71
3
 72
8
 73
4
 74
0
 40
0
 40
0
 40
0
 40
0
 40
1
 40
1
 40
1
 40
1
 10
67.087500
 20
96.073317
 30
0.0
 10
66.275322
 20
95.604406
 30
0.0
 10
65.775000
 20
94.737822
 30
0.0
 10
65.775000
 20
93.800000
 30
0.0
  0
SPLINE
  5
132
100
AcDbEntity
  8
0
 62
7
100
AcDbSpline
 70
8
 71
3
 72
8
 73
4
 74
0
 40
0
 40
0
 40
0
 40
0
 40
1
 40
1
 40
1
 40
1
 10
65.775000
 20
93.800000
 30
0.0
 10
65.775000
 20
92.862178
 30
0.0
 10
66.275322
 20
91.995594
 30
0.0
 10
67.087500
 20
91.526683
 30
0.0
  0
SPLINE
  5
133
100
AcDbEntity
  8
0
 62
7
100
AcDbSpline
 70
8
 71
3
 72
8
 73
4
 74
0
 40
0
 40
0
 40
0
 40
0
 40
1
 40
1
 40
1
 40
1
 10
67.087500
 20
91.526683
 30
0.0
 10
67.899678
 20
91.057772
 30
0.0
 10
68.900322
 20
91.057772
 30
0.0
 10
69.712500
 20
91.526683
 30
0.0
  0
SPLINE
  5
134
100
AcDbEntity
  8
0
 62
7
100
AcDbSpline
 70
8
 71
3
 72
8
 73
4
 74
0
 40
0
 40
0
 40
0
 40
0
 40
1
 40
1
 40
1
 40
1
 10
69.712500
 20
91.526683
 30
0.0
 10
70.524678
 20
91.995594
 30
0.0
 10
71.025000
 20
92.862178
 30
0.0
 10
71.025000
 20
93.800000
 30
0.0
  0
LWPOLYLINE
  5
135
100
AcDbEntity
  8
0
 62
7
100
AcDbPolyline
 90
2
 70
0
 10
-42.600000
 20
93.800000
 30
0.0
 10
-42.600000
 20
93.800000
 30
0.0
  0
SPLINE
  5
136
100
AcDbEntity
  8
0
 62
7
100
AcDbSpline
 70
8
 71
3
 72
8
 73
4
 74
0
 40
0
 40
0
 40
0
 40
0
 40
1
 40
1
 40
1
 40
1
 10
-17.375000
 20
93.800000
 30
0.0
 10
-17.375000
 20
94.737822
 30
0.0
 10
-17.875322
 20
95.604406
 30
0.0
 10
-18.687500
 20
96.073317
 30
0.0
  0
SPLINE
  5
137
100
AcDbEntity
  8
0
 62
7
100
AcDbSpline
 70
8
 71
3
 72
8
 73
4
 74
0
 40
0
 40
0
 40
0
 40
0
 40
1
 40
1
 40
1
 40
1
 10
-18.687500
 20
96.073317
 30
0.0
 10
-19.499678
 20
96.542228
 30
0.0
 10
-20.500322
 20
96.542228
 30
0.0
 10
-21.312500
 20
96.073317
 30
0.0
  0
SPLINE
  5
138
100
AcDbEntity
  8
0
 62
7
100
AcDbSpline
 70
8
 71
3
 72
8
 73
4
 74
0
 40
0
 40
0
 40
0
 40
0
 40
1
 40
1
 40
1
 40
1
 10
-21.312500
 20
96.073317
 30
0.0
 10
-22.124678
 20
95.604406
 30
0.0
 10
-22.625000
 20
94.737822
 30
0.0
 10
-22.625000
 20
93.800000
 30
0.0
  0
SPLINE
  5
139
100
AcDbEntity
  8
0
 62
7
100
AcDbSpline
 70
8
 71
3
 72
8
 73
4
 74
0
 40
0
 40
0
 40
0
 40
0
 40
1
 40
1
 40
1
 40
1
 10
-22.625000
 20
93.800000
 30
0.0
 10
-22.625000
 20
92.862178
 30
0.0
 10
-22.124678
 20
91.995594
 30
0.0
 10
-21.312500
 20
91.526683
 30
0.0
  0
SPLINE
  5
13a
100
AcDbEntity
  8
0
 62
7
100
AcDbSpline
 70
8
 71
3
 72
8
 73
4
 74
0
 40
0
 40
0
 40
0
 40
0
 40
1
 40
1
 40
1
 40
1
 10
-21.312500
 20
91.526683
 30
0.0
 10
-20.500322
 20
91.057772
 30
0.0
 10
-19.499678
 20
91.057772
 30
0.0
 10
-18.687500
 20
91.526683
 30
0.0
  0
SPLINE
  5
13b
100
AcDbEntity
  8
0
 62
7
100
AcDbSpline
 70
8
 71
3
 72
8
 73
4
 74
0
 40
0
 40
0
 40
0
 40
0
 40
1
 40
1
 40
1
 40
1
 10
-18.687500
 20
91.526683
 30
0.0
 10
-17.875322
 20
91.995594
 30
0.0
 10
-17.375000
 20
92.862178
 30
0.0
 10
-17.375000
 20
93.800000
 30
0.0
  0
LWPOLYLINE
  5
13c
100
AcDbEntity
  8
0
 62
7
100
AcDbPolyline
 90
2
 70
0
 10
71.025000
 20
93.800000
 30
0.0
 10
71.025000
 20
93.800000
 30
0.0
  0
SPLINE
  5
13d
100
AcDbEntity
  8
0
 62
7
100
AcDbSpline
 70
8
 71
3
 72
8
 73
4
 74
0
 40
0
 40
0
 40
0
 40
0
 40
1
 40
1
 40
1
 40
1
 10
-65.775000
 20
93.800000
 30
0.0
 10
-65.775000
 20
94.737822
 30
0.0
 10
-66.275322
 20
95.604406
 30
0.0
 10
-67.087500
 20
96.073317
 30
0.0
  0
SPLINE
  5
13e
100
AcDbEntity
  8
0
 62
7
100
AcDbSpline
 70
8
 71
3
 72
8
 73
4
 74
0
 40
0
 40
0
 40
0
 40
0
 40
1
 40
1
 40
1
 40
1
 10
-67.087500
 20
96.073317
 30
0.0
 10
-67.899678
 20
96.542228
 30
0.0
 10
-68.900322
 20
96.542228
 30
0.0
 10
-69.712500
 20
96.073317
 30
0.0
  0
SPLINE
  5
13f
100
AcDbEntity
  8
0
 62
7
100
AcDbSpline
 70
8
 71
3
 72
8
 73
4
 74
0
 40
0
 40
0
 40
0
 40
0
 40
1
 40
1
 40
1
 40
1
 10
-69.712500
 20
96.073317
 30
0.0
 10
-70.524678
 20
95.604406
 30
0.0
 10
-71.025000
 20
94.737822
 30
0.0
 10
-71.025000
 20
93.800000
 30
0.0
  0
SPLINE
  5
140
100
AcDbEntity
  8
0
 62
7
100
AcDbSpline
 70
8
 71
3
 72
8
 73
4
 74
0
 40
0
 40
0
 40
0
 40
0
 40
1
 40
1
 40
1
 40
1
 10
-71.025000
 20
93.800000
 30
0.0
 10
-71.025000
 20
92.862178
 30
0.0
 10
-70.524678
 20
91.995594
 30
0.0
 10
-69.712500
 20
91.526683
 30
0.0
  0
SPLINE
  5
141
100
AcDbEntity
  8
0
 62
7
100
AcDbSpline
 70
8
 71
3
 72
8
 73
4
 74
0
 40
0
 40
0
 40
0
 40
0
 40
1
 40
1
 40
1
 40
1
 10
-69.712500
 20
91.526683
 30
0.0
 10
-68.900322
 20
91.057772
 30
0.0
 10
-67.899678
 20
91.057772
 30
0.0
 10
-67.087500
 20
91.526683
 30
0.0
  0
SPLINE
  5
142
100
AcDbEntity
  8
0
 62
7
100
AcDbSpline
 70
8
 71
3
 72
8
 73
4
 74
0
 40
0
 40
0
 40
0
 40
0
 40
1
 40
1
 40
1
 40
1
 10
-67.087500
 20
91.526683
 30
0.0
 10
-66.275322
 20
91.995594
 30
0.0
 10
-65.775000
 20
92.862178
 30
0.0
 10
-65.775000
 20
93.800000
 30
0.0
  0
LWPOLYLINE
  5
143
100
AcDbEntity
  8
0
 62
7
100
AcDbPolyline
 90
2
 70
0
 10
-17.375000
 20
93.800000
 30
0.0
 10
-17.375000
 20
93.800000
 30
0.0
  0
SPLINE
  5
144
100
AcDbEntity
  8
0
 62
7
100
AcDbSpline
 70
8
 71
3
 72
8
 73
4
 74
0
 40
0
 40
0
 40
0
 40
0
 40
1
 40
1
 40
1
 40
1
 10
22.625000
 20
93.800000
 30
0.0
 10
22.625000
 20
94.737822
 30
0.0
 10
22.124678
 20
95.604406
 30
0.0
 10
21.312500
 20
96.073317
 30
0.0
  0
SPLINE
  5
145
100
AcDbEntity
  8
0
 62
7
100
AcDbSpline
 70
8
 71
3
 72
8
 73
4
 74
0
 40
0
 40
0
 40
0
 40
0
 40
1
 40
1
 40
1
 40
1
 10
21.312500
 20
96.073317
 30
0.0
 10
20.500322
 20
96.542228
 30
0.0
 10
19.499678
 20
96.542228
 30
0.0
 10
18.687500
 20
96.073317
 30
0.0
  0
SPLINE
  5
146
100
AcDbEntity
  8
0
 62
7
100
AcDbSpline
 70
8
 71
3
 72
8
 73
4
 74
0
 40
0
 40
0
 40
0
 40
0
 40
1
 40
1
 40
1
 40
1
 10
18.687500
 20
96.073317
 30
0.0
 10
17.875322
 20
95.604406
 30
0.0
 10
17.375000
 20
94.737822
 30
0.0
 10
17.375000
 20
93.800000
 30
0.0
  0
SPLINE
  5
147
100
AcDbEntity
  8
0
 62
7
100
AcDbSpline
 70
8
 71
3
 72
8
 73
4
 74
0
 40
0
 40
0
 40
0
 40
0
 40
1
 40
1
 40
1
 40
1
 10
17.375000
 20
93.800000
 30
0.0
 10
17.375000
 20
92.862178
 30
0.0
 10
17.875322
 20
91.995594
 30
0.0
 10
18.687500
 20
91.526683
 30
0.0
  0
SPLINE
  5
148
100
AcDbEntity
  8
0
 62
7
100
AcDbSpline
 70
8
 71
3
 72
8
 73
4
 74
0
 40
0
 40
0
 40
0
 40
0
 40
1
 40
1
 40
1
 40
1
 10
18.687500
 20
91.526683
 30
0.0
 10
19.499678
 20
91.057772
 30
0.0
 10
20.500322
 20
91.057772
 30
0.0
 10
21.312500
 20
91.526683
 30
0.0
  0
SPLINE
  5
149
100
AcDbEntity
  8
0
 62
7
100
AcDbSpline
 70
8
 71
3
 72
8
 73
4
 74
0
 40
0
 40
0
 40
0
 40
0
 40
1
 40
1
 40
1
 40
1
 10
21.312500
 20
91.526683
 30
0.0
 10
22.124678
 20
91.995594
 30
0.0
 10
22.625000
 20
92.862178
 30
0.0
 10
22.625000
 20
93.800000
 30
0.0
  0
LWPOLYLINE
  5
14a
100
AcDbEntity
  8
0
 62
7
100
AcDbPolyline
 90
2
 70
0
 10
-65.775000
 20
93.800000
 30
0.0
 10
-65.775000
 20
93.800000
 30
0.0
  0
SPLINE
  5
14b
100
AcDbEntity
  8
0
 62
7
100
AcDbSpline
 70
8
 71
3
 72
8
 73
4
 74
0
 40
0
 40
0
 40
0
 40
0
 40
1
 40
1
 40
1
 40
1
 10
45.800000
 20
93.800000
 30
0.0
 10
45.800000
 20
94.371625
 30
0.0
 10
45.495042
 20
94.899828
 30
0.0
 10
45.000000
 20
95.185641
 30
0.0
  0
SPLINE
  5
14c
100
AcDbEntity
  8
0
 62
7
100
AcDbSpline
 70
8
 71
3
 72
8
 73
4
 74
0
 40
0
 40
0
 40
0
 40
0
 40
1
 40
1
 40
1
 40
1
 10
45.000000
 20
95.185641
 30
0.0
 10
44.504958
 20
95.471453
 30
0.0
 10
43.895042
 20
95.471453
 30
0.0
 10
43.400000
 20
95.185641
 30
0.0
  0
SPLINE
  5
14d
100
AcDbEntity
  8
0
 62
7
100
AcDbSpline
 70
8
 71
3
 72
8
 73
4
 74
0
 40
0
 40
0
 40
0
 40
0
 40
1
 40
1
 40
1
 40
1
 10
43.400000
 20
95.185641
 30
0.0
 10
42.904958
 20
94.899828
 30
0.0
 10
42.600000
 20
94.371625
 30
0.0
 10
42.600000
 20
93.800000
 30
0.0
  0
SPLINE
  5
14e
100
AcDbEntity
  8
0
 62
7
100
AcDbSpline
 70
8
 71
3
 72
8
 73
4
 74
0
 40
0
 40
0
 40
0
 40
0
 40
1
 40
1
 40
1
 40
1
 10
42.600000
 20
93.800000
 30
0.0
 10
42.600000
 20
93.228375
 30
0.0
 10
42.904959
 20
92.700172
 30
0.0
 10
43.400000
 20
92.414359
 30
0.0
  0
SPLINE
  5
14f
100
AcDbEntity
  8
0
 62
7
100
AcDbSpline
 70
8
 71
3
 72
8
 73
4
 74
0
 40
0
 40
0
 40
0
 40
0
 40
1
 40
1
 40
1
 40
1
 10
43.400000
 20
92.414359
 30
0.0
 10
43.895042
 20
92.128547
 30
0.0
 10
44.504958
 20
92.128547
 30
0.0
 10
45.000000
 20
92.414359
 30
0.0
  0
SPLINE
  5
150
100
AcDbEntity
  8
0
 62
7
100
AcDbSpline
 70
8
 71
3
 72
8
 73
4
 74
0
 40
0
 40
0
 40
0
 40
0
 40
1
 40
1
 40
1
 40
1
 10
45.000000
 20
92.414359
 30
0.0
 10
45.495042
 20
92.700172
 30
0.0
 10
45.800000
 20
93.228375
 30
0.0
 10
45.800000
 20
93.800000
 30
0.0
  0
LWPOLYLINE
  5
151
100
AcDbEntity
  8
0
 62
7
100
AcDbPolyline
 90
2
 70
0
 10
22.625000
 20
93.800000
 30
0.0
 10
22.625000
 20
93.800000
 30
0.0
  0
LWPOLYLINE
  5
152
100
AcDbEntity
  8
0
 62
7
100
AcDbPolyline
 90
2
 70
0
 10
45.800000
 20
93.800000
 30
0.0
 10
45.800000
 20
93.800000
 30
0.0
  0
ENDSEC
  0
SECTION
  2
OBJECTS
  0
DICTIONARY
  5
C
330
0
100
AcDbDictionary
  3
ACAD_GROUP
350
D
  3
ACAD_MLINESTYLE
350
17
  0
DICTIONARY
  5
D
330
C
100
AcDbDictionary
  0
DICTIONARY
  5
1A
330
C
100
AcDbDictionary
  0
DICTIONARY
  5
17
330
C
100
AcDbDictionary
  3
STANDARD
350
18
  0
DICTIONARY
  5
19
330
C
100
AcDbDictionary
  0
ENDSEC
  0
EOF
