  0
SECTION
  2
HEADER
  9
$ACADVER
  1
AC1014
  9
$HANDSEED
  5
FFFF
  9
$MEASUREMENT
 70
     1
  0
ENDSEC
  0
SECTION
  2
TABLES
  0
TABLE
  2
VPORT
  5
8
330
0
100
AcDbSymbolTable
 70
     4
  0
VPORT
  5
2E
330
8
100
AcDbSymbolTableRecord
100
AcDbViewportTableRecord
  2
*ACTIVE
 70
     0
 10
0.0
 20
0.0
 11
1.0
 21
1.0
 12
210.0
 22
148.5
 13
0.0
 23
0.0
 14
10.0
 24
10.0
 15
10.0
 25
10.0
 16
0.0
 26
0.0
 36
1.0
 17
0.0
 27
0.0
 37
0.0
 40
341.0
 41
1.24
 42
50.0
 43
0.0
 44
0.0
 50
0.0
 51
0.0
 71
     0
 72
   100
 73
     1
 74
     3
 75
     0
 76
     0
 77
     0
 78
     0
  0
ENDTAB
  0
TABLE
  2
LTYPE
  5
5
330
0
100
AcDbSymbolTable
 70
     1
  0
LTYPE
  5
14
330
5
100
AcDbSymbolTableRecord
100
AcDbLinetypeTableRecord
  2
BYBLOCK
 70
     0
  3

 72
    65
 73
     0
 40
0.0
  0
LTYPE
  5
15
330
5
100
AcDbSymbolTableRecord
100
AcDbLinetypeTableRecord
  2
BYLAYER
 70
     0
  3

 72
    65
 73
     0
 40
0.0
  0
LTYPE
  5
16
330
5
100
AcDbSymbolTableRecord
100
AcDbLinetypeTableRecord
  2
CONTINUOUS
 70
     0
  3
Solid line
 72
    65
 73
     0
 40
0.0
  0
ENDTAB
  0
TABLE
  2
LAYER
  5
2
100
AcDbSymbolTable
 70
1
  0
LAYER
  5
50
100
AcDbSymbolTableRecord
100
AcDbLayerTableRecord
  2
0
 70
0
  6
CONTINUOUS
  0
ENDTAB
  0
TABLE
  2
STYLE
  5
3
330
0
100
AcDbSymbolTable
 70
     1
  0
STYLE
  5
11
330
3
100
AcDbSymbolTableRecord
100
AcDbTextStyleTableRecord
  2
STANDARD
 70
     0
 40
0.0
 41
1.0
 50
0.0
 71
     0
 42
2.5
  3
txt
  4

  0
ENDTAB
  0
TABLE
  2
VIEW
  5
6
330
0
100
AcDbSymbolTable
 70
     0
  0
ENDTAB
  0
TABLE
  2
UCS
  5
7
330
0
100
AcDbSymbolTable
 70
     0
  0
ENDTAB
  0
TABLE
  2
APPID
  5
9
330
0
100
AcDbSymbolTable
 70
     2
  0
APPID
  5
12
330
9
100
AcDbSymbolTableRecord
100
AcDbRegAppTableRecord
  2
ACAD
 70
     0
  0
ENDTAB
  0
TABLE
  2
DIMSTYLE
  5
A
330
0
100
AcDbSymbolTable
 70
     1
  0
DIMSTYLE
105
27
330
A
100
AcDbSymbolTableRecord
100
AcDbDimStyleTableRecord
  2
ISO-25
 70
     0
  3

  4

  5

  6

  7

 40
1.0
 41
2.5
 42
0.625
 43
3.75
 44
1.25
 45
0.0
 46
0.0
 47
0.0
 48
0.0
140
2.5
141
2.5
142
0.0
143
0.03937007874016
144
1.0
145
0.0
146
1.0
147
0.625
 71
     0
 72
     0
 73
     0
 74
     0
 75
     0
 76
     0
 77
     1
 78
     8
170
     0
171
     3
172
     1
173
     0
174
     0
175
     0
176
     0
177
     0
178
     0
270
     2
271
     2
272
     2
273
     2
274
     3
340
11
275
     0
280
     0
281
     0
282
     0
283
     0
284
     8
285
     0
286
     0
287
     3
288
     0
  0
ENDTAB
  0
TABLE
  2
BLOCK_RECORD
  5
1
330
0
100
AcDbSymbolTable
 70
     1
  0
BLOCK_RECORD
  5
1F
330
1
100
AcDbSymbolTableRecord
100
AcDbBlockTableRecord
  2
*MODEL_SPACE
  0
BLOCK_RECORD
  5
1B
330
1
100
AcDbSymbolTableRecord
100
AcDbBlockTableRecord
  2
*PAPER_SPACE
  0
ENDTAB
  0
ENDSEC
  0
SECTION
  2
BLOCKS
  0
BLOCK
  5
20
330
1F
100
AcDbEntity
  8
0
100
AcDbBlockBegin
  2
*MODEL_SPACE
 70
     0
 10
0.0
 20
0.0
 30
0.0
  3
*MODEL_SPACE
  1

  0
ENDBLK
  5
21
330
1F
100
AcDbEntity
  8
0
100
AcDbBlockEnd
  0
BLOCK
  5
1C
330
1B
100
AcDbEntity
 67
     1
  8
0
100
AcDbBlockBegin
  2
*PAPER_SPACE
  1

  0
ENDBLK
  5
1D
330
1B
100
AcDbEntity
 67
     1
  8
0
100
AcDbBlockEnd
  0
ENDSEC
  0
SECTION
  2
ENTITIES
  0
SPLINE
  5
100
100
AcDbEntity
  8
0
 62
7
100
AcDbSpline
 70
8
 71
3
 72
8
 73
4
 74
0
 40
0
 40
0
 40
0
 40
0
 40
1
 40
1
 40
1
 40
1
 10
-20.000000
 20
62.650000
 30
0.0
 10
-20.000000
 20
64.436328
 30
0.0
 10
-20.952995
 20
66.086963
 30
0.0
 10
-22.500000
 20
66.980127
 30
0.0
  0
SPLINE
  5
101
100
AcDbEntity
  8
0
 62
7
100
AcDbSpline
 70
8
 71
3
 72
8
 73
4
 74
0
 40
0
 40
0
 40
0
 40
0
 40
1
 40
1
 40
1
 40
1
 10
-22.500000
 20
66.980127
 30
0.0
 10
-24.047006
 20
67.873291
 30
0.0
 10
-25.952995
 20
67.873291
 30
0.0
 10
-27.500000
 20
66.980127
 30
0.0
  0
SPLINE
  5
102
100
AcDbEntity
  8
0
 62
7
100
AcDbSpline
 70
8
 71
3
 72
8
 73
4
 74
0
 40
0
 40
0
 40
0
 40
0
 40
1
 40
1
 40
1
 40
1
 10
-27.500000
 20
66.980127
 30
0.0
 10
-29.047005
 20
66.086963
 30
0.0
 10
-30.000000
 20
64.436328
 30
0.0
 10
-30.000000
 20
62.650000
 30
0.0
  0
SPLINE
  5
103
100
AcDbEntity
  8
0
 62
7
100
AcDbSpline
 70
8
 71
3
 72
8
 73
4
 74
0
 40
0
 40
0
 40
0
 40
0
 40
1
 40
1
 40
1
 40
1
 10
-30.000000
 20
62.650000
 30
0.0
 10
-30.000000
 20
60.863672
 30
0.0
 10
-29.047005
 20
59.213037
 30
0.0
 10
-27.500000
 20
58.319873
 30
0.0
  0
SPLINE
  5
104
100
AcDbEntity
  8
0
 62
7
100
AcDbSpline
 70
8
 71
3
 72
8
 73
4
 74
0
 40
0
 40
0
 40
0
 40
0
 40
1
 40
1
 40
1
 40
1
 10
-27.500000
 20
58.319873
 30
0.0
 10
-25.952995
 20
57.426709
 30
0.0
 10
-24.047005
 20
57.426709
 30
0.0
 10
-22.500000
 20
58.319873
 30
0.0
  0
SPLINE
  5
105
100
AcDbEntity
  8
0
 62
7
100
AcDbSpline
 70
8
 71
3
 72
8
 73
4
 74
0
 40
0
 40
0
 40
0
 40
0
 40
1
 40
1
 40
1
 40
1
 10
-22.500000
 20
58.319873
 30
0.0
 10
-20.952995
 20
59.213037
 30
0.0
 10
-20.000000
 20
60.863672
 30
0.0
 10
-20.000000
 20
62.650000
 30
0.0
  0
SPLINE
  5
106
100
AcDbEntity
  8
0
 62
7
100
AcDbSpline
 70
8
 71
3
 72
8
 73
4
 74
0
 40
0
 40
0
 40
0
 40
0
 40
1
 40
1
 40
1
 40
1
 10
30.000000
 20
62.650000
 30
0.0
 10
30.000000
 20
64.436328
 30
0.0
 10
29.047005
 20
66.086963
 30
0.0
 10
27.500000
 20
66.980127
 30
0.0
  0
SPLINE
  5
107
100
AcDbEntity
  8
0
 62
7
100
AcDbSpline
 70
8
 71
3
 72
8
 73
4
 74
0
 40
0
 40
0
 40
0
 40
0
 40
1
 40
1
 40
1
 40
1
 10
27.500000
 20
66.980127
 30
0.0
 10
25.952995
 20
67.873291
 30
0.0
 10
24.047006
 20
67.873291
 30
0.0
 10
22.500000
 20
66.980127
 30
0.0
  0
SPLINE
  5
108
100
AcDbEntity
  8
0
 62
7
100
AcDbSpline
 70
8
 71
3
 72
8
 73
4
 74
0
 40
0
 40
0
 40
0
 40
0
 40
1
 40
1
 40
1
 40
1
 10
22.500000
 20
66.980127
 30
0.0
 10
20.952995
 20
66.086963
 30
0.0
 10
20.000000
 20
64.436328
 30
0.0
 10
20.000000
 20
62.650000
 30
0.0
  0
SPLINE
  5
109
100
AcDbEntity
  8
0
 62
7
100
AcDbSpline
 70
8
 71
3
 72
8
 73
4
 74
0
 40
0
 40
0
 40
0
 40
0
 40
1
 40
1
 40
1
 40
1
 10
20.000000
 20
62.650000
 30
0.0
 10
20.000000
 20
60.863672
 30
0.0
 10
20.952995
 20
59.213037
 30
0.0
 10
22.500000
 20
58.319873
 30
0.0
  0
SPLINE
  5
10a
100
AcDbEntity
  8
0
 62
7
100
AcDbSpline
 70
8
 71
3
 72
8
 73
4
 74
0
 40
0
 40
0
 40
0
 40
0
 40
1
 40
1
 40
1
 40
1
 10
22.500000
 20
58.319873
 30
0.0
 10
24.047006
 20
57.426709
 30
0.0
 10
25.952995
 20
57.426709
 30
0.0
 10
27.500000
 20
58.319873
 30
0.0
  0
SPLINE
  5
10b
100
AcDbEntity
  8
0
 62
7
100
AcDbSpline
 70
8
 71
3
 72
8
 73
4
 74
0
 40
0
 40
0
 40
0
 40
0
 40
1
 40
1
 40
1
 40
1
 10
27.500000
 20
58.319873
 30
0.0
 10
29.047005
 20
59.213037
 30
0.0
 10
30.000000
 20
60.863672
 30
0.0
 10
30.000000
 20
62.650000
 30
0.0
  0
LWPOLYLINE
  5
10c
100
AcDbEntity
  8
0
 62
7
100
AcDbPolyline
 90
2
 70
0
 10
-20.000000
 20
62.650000
 30
0.0
 10
-20.000000
 20
62.650000
 30
0.0
  0
SPLINE
  5
10d
100
AcDbEntity
  8
0
 62
7
100
AcDbSpline
 70
8
 71
3
 72
8
 73
4
 74
0
 40
0
 40
0
 40
0
 40
0
 40
1
 40
1
 40
1
 40
1
 10
79.975000
 20
-43.800000
 30
0.0
 10
79.975238
 20
-43.237148
 30
0.0
 10
79.675097
 20
-42.716949
 30
0.0
 10
79.187692
 20
-42.435454
 30
0.0
  0
SPLINE
  5
10e
100
AcDbEntity
  8
0
 62
7
100
AcDbSpline
 70
8
 71
3
 72
8
 73
4
 74
0
 40
0
 40
0
 40
0
 40
0
 40
1
 40
1
 40
1
 40
1
 10
79.187692
 20
-42.435454
 30
0.0
 10
78.700288
 20
-42.153959
 30
0.0
 10
78.099712
 20
-42.153959
 30
0.0
 10
77.612307
 20
-42.435454
 30
0.0
  0
SPLINE
  5
10f
100
AcDbEntity
  8
0
 62
7
100
AcDbSpline
 70
8
 71
3
 72
8
 73
4
 74
0
 40
0
 40
0
 40
0
 40
0
 40
1
 40
1
 40
1
 40
1
 10
77.612307
 20
-42.435454
 30
0.0
 10
77.124903
 20
-42.716949
 30
0.0
 10
76.824762
 20
-43.237148
 30
0.0
 10
76.825000
 20
-43.800000
 30
0.0
  0
SPLINE
  5
110
100
AcDbEntity
  8
0
 62
7
100
AcDbSpline
 70
8
 71
3
 72
8
 73
4
 74
0
 40
0
 40
0
 40
0
 40
0
 40
1
 40
1
 40
1
 40
1
 10
76.825000
 20
-43.800000
 30
0.0
 10
76.824762
 20
-44.362852
 30
0.0
 10
77.124903
 20
-44.883051
 30
0.0
 10
77.612307
 20
-45.164546
 30
0.0
  0
SPLINE
  5
111
100
AcDbEntity
  8
0
 62
7
100
AcDbSpline
 70
8
 71
3
 72
8
 73
4
 74
0
 40
0
 40
0
 40
0
 40
0
 40
1
 40
1
 40
1
 40
1
 10
77.612307
 20
-45.164546
 30
0.0
 10
78.099712
 20
-45.446040
 30
0.0
 10
78.700288
 20
-45.446040
 30
0.0
 10
79.187692
 20
-45.164546
 30
0.0
  0
SPLINE
  5
112
100
AcDbEntity
  8
0
 62
7
100
AcDbSpline
 70
8
 71
3
 72
8
 73
4
 74
0
 40
0
 40
0
 40
0
 40
0
 40
1
 40
1
 40
1
 40
1
 10
79.187692
 20
-45.164546
 30
0.0
 10
79.675097
 20
-44.883051
 30
0.0
 10
79.975238
 20
-44.362852
 30
0.0
 10
79.975000
 20
-43.800000
 30
0.0
  0
LWPOLYLINE
  5
113
100
AcDbEntity
  8
0
 62
7
100
AcDbPolyline
 90
2
 70
0
 10
30.000000
 20
62.650000
 30
0.0
 10
30.000000
 20
62.650000
 30
0.0
  0
SPLINE
  5
114
100
AcDbEntity
  8
0
 62
7
100
AcDbSpline
 70
8
 71
3
 72
8
 73
4
 74
0
 40
0
 40
0
 40
0
 40
0
 40
1
 40
1
 40
1
 40
1
 10
-76.825000
 20
-43.800000
 30
0.0
 10
-76.824762
 20
-43.237148
 30
0.0
 10
-77.124903
 20
-42.716949
 30
0.0
 10
-77.612307
 20
-42.435454
 30
0.0
  0
SPLINE
  5
115
100
AcDbEntity
  8
0
 62
7
100
AcDbSpline
 70
8
 71
3
 72
8
 73
4
 74
0
 40
0
 40
0
 40
0
 40
0
 40
1
 40
1
 40
1
 40
1
 10
-77.612307
 20
-42.435454
 30
0.0
 10
-78.099712
 20
-42.153959
 30
0.0
 10
-78.700288
 20
-42.153959
 30
0.0
 10
-79.187692
 20
-42.435454
 30
0.0
  0
SPLINE
  5
116
100
AcDbEntity
  8
0
 62
7
100
AcDbSpline
 70
8
 71
3
 72
8
 73
4
 74
0
 40
0
 40
0
 40
0
 40
0
 40
1
 40
1
 40
1
 40
1
 10
-79.187692
 20
-42.435454
 30
0.0
 10
-79.675097
 20
-42.716949
 30
0.0
 10
-79.975238
 20
-43.237148
 30
0.0
 10
-79.975000
 20
-43.800000
 30
0.0
  0
SPLINE
  5
117
100
AcDbEntity
  8
0
 62
7
100
AcDbSpline
 70
8
 71
3
 72
8
 73
4
 74
0
 40
0
 40
0
 40
0
 40
0
 40
1
 40
1
 40
1
 40
1
 10
-79.975000
 20
-43.800000
 30
0.0
 10
-79.975238
 20
-44.362852
 30
0.0
 10
-79.675097
 20
-44.883051
 30
0.0
 10
-79.187692
 20
-45.164546
 30
0.0
  0
SPLINE
  5
118
100
AcDbEntity
  8
0
 62
7
100
AcDbSpline
 70
8
 71
3
 72
8
 73
4
 74
0
 40
0
 40
0
 40
0
 40
0
 40
1
 40
1
 40
1
 40
1
 10
-79.187692
 20
-45.164546
 30
0.0
 10
-78.700288
 20
-45.446040
 30
0.0
 10
-78.099712
 20
-45.446040
 30
0.0
 10
-77.612307
 20
-45.164546
 30
0.0
  0
SPLINE
  5
119
100
AcDbEntity
  8
0
 62
7
100
AcDbSpline
 70
8
 71
3
 72
8
 73
4
 74
0
 40
0
 40
0
 40
0
 40
0
 40
1
 40
1
 40
1
 40
1
 10
-77.612307
 20
-45.164546
 30
0.0
 10
-77.124903
 20
-44.883051
 30
0.0
 10
-76.824762
 20
-44.362852
 30
0.0
 10
-76.825000
 20
-43.800000
 30
0.0
  0
LWPOLYLINE
  5
11a
100
AcDbEntity
  8
0
 62
7
100
AcDbPolyline
 90
2
 70
0
 10
79.975000
 20
-43.800000
 30
0.0
 10
79.975000
 20
-43.800000
 30
0.0
  0
SPLINE
  5
11b
100
AcDbEntity
  8
0
 62
7
100
AcDbSpline
 70
8
 71
3
 72
8
 73
4
 74
0
 40
0
 40
0
 40
0
 40
0
 40
1
 40
1
 40
1
 40
1
 10
69.975000
 20
-43.800000
 30
0.0
 10
69.975238
 20
-43.237148
 30
0.0
 10
69.675097
 20
-42.716949
 30
0.0
 10
69.187692
 20
-42.435454
 30
0.0
  0
SPLINE
  5
11c
100
AcDbEntity
  8
0
 62
7
100
AcDbSpline
 70
8
 71
3
 72
8
 73
4
 74
0
 40
0
 40
0
 40
0
 40
0
 40
1
 40
1
 40
1
 40
1
 10
69.187692
 20
-42.435454
 30
0.0
 10
68.700288
 20
-42.153959
 30
0.0
 10
68.099712
 20
-42.153959
 30
0.0
 10
67.612307
 20
-42.435454
 30
0.0
  0
SPLINE
  5
11d
100
AcDbEntity
  8
0
 62
7
100
AcDbSpline
 70
8
 71
3
 72
8
 73
4
 74
0
 40
0
 40
0
 40
0
 40
0
 40
1
 40
1
 40
1
 40
1
 10
67.612307
 20
-42.435454
 30
0.0
 10
67.124903
 20
-42.716949
 30
0.0
 10
66.824762
 20
-43.237148
 30
0.0
 10
66.825000
 20
-43.800000
 30
0.0
  0
SPLINE
  5
11e
100
AcDbEntity
  8
0
 62
7
100
AcDbSpline
 70
8
 71
3
 72
8
 73
4
 74
0
 40
0
 40
0
 40
0
 40
0
 40
1
 40
1
 40
1
 40
1
 10
66.825000
 20
-43.800000
 30
0.0
 10
66.824762
 20
-44.362852
 30
0.0
 10
67.124903
 20
-44.883051
 30
0.0
 10
67.612307
 20
-45.164546
 30
0.0
  0
SPLINE
  5
11f
100
AcDbEntity
  8
0
 62
7
100
AcDbSpline
 70
8
 71
3
 72
8
 73
4
 74
0
 40
0
 40
0
 40
0
 40
0
 40
1
 40
1
 40
1
 40
1
 10
67.612307
 20
-45.164546
 30
0.0
 10
68.099712
 20
-45.446040
 30
0.0
 10
68.700288
 20
-45.446040
 30
0.0
 10
69.187692
 20
-45.164546
 30
0.0
  0
SPLINE
  5
120
100
AcDbEntity
  8
0
 62
7
100
AcDbSpline
 70
8
 71
3
 72
8
 73
4
 74
0
 40
0
 40
0
 40
0
 40
0
 40
1
 40
1
 40
1
 40
1
 10
69.187692
 20
-45.164546
 30
0.0
 10
69.675097
 20
-44.883051
 30
0.0
 10
69.975238
 20
-44.362852
 30
0.0
 10
69.975000
 20
-43.800000
 30
0.0
  0
LWPOLYLINE
  5
121
100
AcDbEntity
  8
0
 62
7
100
AcDbPolyline
 90
2
 70
0
 10
-76.825000
 20
-43.800000
 30
0.0
 10
-76.825000
 20
-43.800000
 30
0.0
  0
SPLINE
  5
122
100
AcDbEntity
  8
0
 62
7
100
AcDbSpline
 70
8
 71
3
 72
8
 73
4
 74
0
 40
0
 40
0
 40
0
 40
0
 40
1
 40
1
 40
1
 40
1
 10
-66.825000
 20
-43.800000
 30
0.0
 10
-66.824762
 20
-43.237148
 30
0.0
 10
-67.124903
 20
-42.716949
 30
0.0
 10
-67.612307
 20
-42.435454
 30
0.0
  0
SPLINE
  5
123
100
AcDbEntity
  8
0
 62
7
100
AcDbSpline
 70
8
 71
3
 72
8
 73
4
 74
0
 40
0
 40
0
 40
0
 40
0
 40
1
 40
1
 40
1
 40
1
 10
-67.612307
 20
-42.435454
 30
0.0
 10
-68.099712
 20
-42.153959
 30
0.0
 10
-68.700288
 20
-42.153959
 30
0.0
 10
-69.187692
 20
-42.435454
 30
0.0
  0
SPLINE
  5
124
100
AcDbEntity
  8
0
 62
7
100
AcDbSpline
 70
8
 71
3
 72
8
 73
4
 74
0
 40
0
 40
0
 40
0
 40
0
 40
1
 40
1
 40
1
 40
1
 10
-69.187692
 20
-42.435454
 30
0.0
 10
-69.675097
 20
-42.716949
 30
0.0
 10
-69.975238
 20
-43.237148
 30
0.0
 10
-69.975000
 20
-43.800000
 30
0.0
  0
SPLINE
  5
125
100
AcDbEntity
  8
0
 62
7
100
AcDbSpline
 70
8
 71
3
 72
8
 73
4
 74
0
 40
0
 40
0
 40
0
 40
0
 40
1
 40
1
 40
1
 40
1
 10
-69.975000
 20
-43.800000
 30
0.0
 10
-69.975238
 20
-44.362852
 30
0.0
 10
-69.675097
 20
-44.883051
 30
0.0
 10
-69.187692
 20
-45.164546
 30
0.0
  0
SPLINE
  5
126
100
AcDbEntity
  8
0
 62
7
100
AcDbSpline
 70
8
 71
3
 72
8
 73
4
 74
0
 40
0
 40
0
 40
0
 40
0
 40
1
 40
1
 40
1
 40
1
 10
-69.187692
 20
-45.164546
 30
0.0
 10
-68.700288
 20
-45.446040
 30
0.0
 10
-68.099712
 20
-45.446040
 30
0.0
 10
-67.612307
 20
-45.164546
 30
0.0
  0
SPLINE
  5
127
100
AcDbEntity
  8
0
 62
7
100
AcDbSpline
 70
8
 71
3
 72
8
 73
4
 74
0
 40
0
 40
0
 40
0
 40
0
 40
1
 40
1
 40
1
 40
1
 10
-67.612307
 20
-45.164546
 30
0.0
 10
-67.124903
 20
-44.883051
 30
0.0
 10
-66.824762
 20
-44.362852
 30
0.0
 10
-66.825000
 20
-43.800000
 30
0.0
  0
LWPOLYLINE
  5
128
100
AcDbEntity
  8
0
 62
7
100
AcDbPolyline
 90
2
 70
0
 10
69.975000
 20
-43.800000
 30
0.0
 10
69.975000
 20
-43.800000
 30
0.0
  0
SPLINE
  5
129
100
AcDbEntity
  8
0
 62
7
100
AcDbSpline
 70
8
 71
3
 72
8
 73
4
 74
0
 40
0
 40
0
 40
0
 40
0
 40
1
 40
1
 40
1
 40
1
 10
-65.775000
 20
-23.800000
 30
0.0
 10
-65.775000
 20
-22.862178
 30
0.0
 10
-66.275322
 20
-21.995594
 30
0.0
 10
-67.087500
 20
-21.526683
 30
0.0
  0
SPLINE
  5
12a
100
AcDbEntity
  8
0
 62
7
100
AcDbSpline
 70
8
 71
3
 72
8
 73
4
 74
0
 40
0
 40
0
 40
0
 40
0
 40
1
 40
1
 40
1
 40
1
 10
-67.087500
 20
-21.526683
 30
0.0
 10
-67.899678
 20
-21.057772
 30
0.0
 10
-68.900322
 20
-21.057772
 30
0.0
 10
-69.712500
 20
-21.526683
 30
0.0
  0
SPLINE
  5
12b
100
AcDbEntity
  8
0
 62
7
100
AcDbSpline
 70
8
 71
3
 72
8
 73
4
 74
0
 40
0
 40
0
 40
0
 40
0
 40
1
 40
1
 40
1
 40
1
 10
-69.712500
 20
-21.526683
 30
0.0
 10
-70.524678
 20
-21.995594
 30
0.0
 10
-71.025000
 20
-22.862178
 30
0.0
 10
-71.025000
 20
-23.800000
 30
0.0
  0
SPLINE
  5
12c
100
AcDbEntity
  8
0
 62
7
100
AcDbSpline
 70
8
 71
3
 72
8
 73
4
 74
0
 40
0
 40
0
 40
0
 40
0
 40
1
 40
1
 40
1
 40
1
 10
-71.025000
 20
-23.800000
 30
0.0
 10
-71.025000
 20
-24.737822
 30
0.0
 10
-70.524678
 20
-25.604406
 30
0.0
 10
-69.712500
 20
-26.073317
 30
0.0
  0
SPLINE
  5
12d
100
AcDbEntity
  8
0
 62
7
100
AcDbSpline
 70
8
 71
3
 72
8
 73
4
 74
0
 40
0
 40
0
 40
0
 40
0
 40
1
 40
1
 40
1
 40
1
 10
-69.712500
 20
-26.073317
 30
0.0
 10
-68.900322
 20
-26.542228
 30
0.0
 10
-67.899678
 20
-26.542228
 30
0.0
 10
-67.087500
 20
-26.073317
 30
0.0
  0
SPLINE
  5
12e
100
AcDbEntity
  8
0
 62
7
100
AcDbSpline
 70
8
 71
3
 72
8
 73
4
 74
0
 40
0
 40
0
 40
0
 40
0
 40
1
 40
1
 40
1
 40
1
 10
-67.087500
 20
-26.073317
 30
0.0
 10
-66.275322
 20
-25.604406
 30
0.0
 10
-65.775000
 20
-24.737822
 30
0.0
 10
-65.775000
 20
-23.800000
 30
0.0
  0
LWPOLYLINE
  5
12f
100
AcDbEntity
  8
0
 62
7
100
AcDbPolyline
 90
2
 70
0
 10
-66.825000
 20
-43.800000
 30
0.0
 10
-66.825000
 20
-43.800000
 30
0.0
  0
SPLINE
  5
130
100
AcDbEntity
  8
0
 62
7
100
AcDbSpline
 70
8
 71
3
 72
8
 73
4
 74
0
 40
0
 40
0
 40
0
 40
0
 40
1
 40
1
 40
1
 40
1
 10
71.025000
 20
73.800000
 30
0.0
 10
71.025000
 20
74.737822
 30
0.0
 10
70.524678
 20
75.604406
 30
0.0
 10
69.712500
 20
76.073317
 30
0.0
  0
SPLINE
  5
131
100
AcDbEntity
  8
0
 62
7
100
AcDbSpline
 70
8
 71
3
 72
8
 73
4
 74
0
 40
0
 40
0
 40
0
 40
0
 40
1
 40
1
 40
1
 40
1
 10
69.712500
 20
76.073317
 30
0.0
 10
68.900322
 20
76.542228
 30
0.0
 10
67.899678
 20
76.542228
 30
0.0
 10
67.087500
 20
76.073317
 30
0.0
  0
SPLINE
  5
132
100
AcDbEntity
  8
0
 62
7
100
AcDbSpline
 70
8
 71
3
 72
8
 73
4
 74
0
 40
0
 40
0
 40
0
 40
0
 40
1
 40
1
 40
1
 40
1
 10
67.087500
 20
76.073317
 30
0.0
 10
66.275322
 20
75.604406
 30
0.0
 10
65.775000
 20
74.737822
 30
0.0
 10
65.775000
 20
73.800000
 30
0.0
  0
SPLINE
  5
133
100
AcDbEntity
  8
0
 62
7
100
AcDbSpline
 70
8
 71
3
 72
8
 73
4
 74
0
 40
0
 40
0
 40
0
 40
0
 40
1
 40
1
 40
1
 40
1
 10
65.775000
 20
73.800000
 30
0.0
 10
65.775000
 20
72.862178
 30
0.0
 10
66.275322
 20
71.995594
 30
0.0
 10
67.087500
 20
71.526683
 30
0.0
  0
SPLINE
  5
134
100
AcDbEntity
  8
0
 62
7
100
AcDbSpline
 70
8
 71
3
 72
8
 73
4
 74
0
 40
0
 40
0
 40
0
 40
0
 40
1
 40
1
 40
1
 40
1
 10
67.087500
 20
71.526683
 30
0.0
 10
67.899678
 20
71.057772
 30
0.0
 10
68.900322
 20
71.057772
 30
0.0
 10
69.712500
 20
71.526683
 30
0.0
  0
SPLINE
  5
135
100
AcDbEntity
  8
0
 62
7
100
AcDbSpline
 70
8
 71
3
 72
8
 73
4
 74
0
 40
0
 40
0
 40
0
 40
0
 40
1
 40
1
 40
1
 40
1
 10
69.712500
 20
71.526683
 30
0.0
 10
70.524678
 20
71.995594
 30
0.0
 10
71.025000
 20
72.862178
 30
0.0
 10
71.025000
 20
73.800000
 30
0.0
  0
LWPOLYLINE
  5
136
100
AcDbEntity
  8
0
 62
7
100
AcDbPolyline
 90
2
 70
0
 10
-65.775000
 20
-23.800000
 30
0.0
 10
-65.775000
 20
-23.800000
 30
0.0
  0
SPLINE
  5
137
100
AcDbEntity
  8
0
 62
7
100
AcDbSpline
 70
8
 71
3
 72
8
 73
4
 74
0
 40
0
 40
0
 40
0
 40
0
 40
1
 40
1
 40
1
 40
1
 10
-53.925000
 20
23.750000
 30
0.0
 10
-53.925000
 20
24.491326
 30
0.0
 10
-54.320493
 20
25.176340
 30
0.0
 10
-54.962500
 20
25.547003
 30
0.0
  0
SPLINE
  5
138
100
AcDbEntity
  8
0
 62
7
100
AcDbSpline
 70
8
 71
3
 72
8
 73
4
 74
0
 40
0
 40
0
 40
0
 40
0
 40
1
 40
1
 40
1
 40
1
 10
-54.962500
 20
25.547003
 30
0.0
 10
-55.604507
 20
25.917666
 30
0.0
 10
-56.395493
 20
25.917666
 30
0.0
 10
-57.037500
 20
25.547003
 30
0.0
  0
SPLINE
  5
139
100
AcDbEntity
  8
0
 62
7
100
AcDbSpline
 70
8
 71
3
 72
8
 73
4
 74
0
 40
0
 40
0
 40
0
 40
0
 40
1
 40
1
 40
1
 40
1
 10
-57.037500
 20
25.547003
 30
0.0
 10
-57.679507
 20
25.176340
 30
0.0
 10
-58.075000
 20
24.491326
 30
0.0
 10
-58.075000
 20
23.750000
 30
0.0
  0
SPLINE
  5
13a
100
AcDbEntity
  8
0
 62
7
100
AcDbSpline
 70
8
 71
3
 72
8
 73
4
 74
0
 40
0
 40
0
 40
0
 40
0
 40
1
 40
1
 40
1
 40
1
 10
-58.075000
 20
23.750000
 30
0.0
 10
-58.075000
 20
23.008674
 30
0.0
 10
-57.679507
 20
22.323660
 30
0.0
 10
-57.037500
 20
21.952997
 30
0.0
  0
SPLINE
  5
13b
100
AcDbEntity
  8
0
 62
7
100
AcDbSpline
 70
8
 71
3
 72
8
 73
4
 74
0
 40
0
 40
0
 40
0
 40
0
 40
1
 40
1
 40
1
 40
1
 10
-57.037500
 20
21.952997
 30
0.0
 10
-56.395493
 20
21.582334
 30
0.0
 10
-55.604507
 20
21.582334
 30
0.0
 10
-54.962500
 20
21.952997
 30
0.0
  0
SPLINE
  5
13c
100
AcDbEntity
  8
0
 62
7
100
AcDbSpline
 70
8
 71
3
 72
8
 73
4
 74
0
 40
0
 40
0
 40
0
 40
0
 40
1
 40
1
 40
1
 40
1
 10
-54.962500
 20
21.952997
 30
0.0
 10
-54.320493
 20
22.323660
 30
0.0
 10
-53.925000
 20
23.008674
 30
0.0
 10
-53.925000
 20
23.750000
 30
0.0
  0
LWPOLYLINE
  5
13d
100
AcDbEntity
  8
0
 62
7
100
AcDbPolyline
 90
2
 70
0
 10
71.025000
 20
73.800000
 30
0.0
 10
71.025000
 20
73.800000
 30
0.0
  0
SPLINE
  5
13e
100
AcDbEntity
  8
0
 62
7
100
AcDbSpline
 70
8
 71
3
 72
8
 73
4
 74
0
 40
0
 40
0
 40
0
 40
0
 40
1
 40
1
 40
1
 40
1
 10
58.075000
 20
-23.750000
 30
0.0
 10
58.075000
 20
-23.008674
 30
0.0
 10
57.679507
 20
-22.323660
 30
0.0
 10
57.037500
 20
-21.952997
 30
0.0
  0
SPLINE
  5
13f
100
AcDbEntity
  8
0
 62
7
100
AcDbSpline
 70
8
 71
3
 72
8
 73
4
 74
0
 40
0
 40
0
 40
0
 40
0
 40
1
 40
1
 40
1
 40
1
 10
57.037500
 20
-21.952997
 30
0.0
 10
56.395493
 20
-21.582334
 30
0.0
 10
55.604507
 20
-21.582334
 30
0.0
 10
54.962500
 20
-21.952997
 30
0.0
  0
SPLINE
  5
140
100
AcDbEntity
  8
0
 62
7
100
AcDbSpline
 70
8
 71
3
 72
8
 73
4
 74
0
 40
0
 40
0
 40
0
 40
0
 40
1
 40
1
 40
1
 40
1
 10
54.962500
 20
-21.952997
 30
0.0
 10
54.320493
 20
-22.323660
 30
0.0
 10
53.925000
 20
-23.008674
 30
0.0
 10
53.925000
 20
-23.750000
 30
0.0
  0
SPLINE
  5
141
100
AcDbEntity
  8
0
 62
7
100
AcDbSpline
 70
8
 71
3
 72
8
 73
4
 74
0
 40
0
 40
0
 40
0
 40
0
 40
1
 40
1
 40
1
 40
1
 10
53.925000
 20
-23.750000
 30
0.0
 10
53.925000
 20
-24.491326
 30
0.0
 10
54.320493
 20
-25.176340
 30
0.0
 10
54.962500
 20
-25.547003
 30
0.0
  0
SPLINE
  5
142
100
AcDbEntity
  8
0
 62
7
100
AcDbSpline
 70
8
 71
3
 72
8
 73
4
 74
0
 40
0
 40
0
 40
0
 40
0
 40
1
 40
1
 40
1
 40
1
 10
54.962500
 20
-25.547003
 30
0.0
 10
55.604507
 20
-25.917666
 30
0.0
 10
56.395493
 20
-25.917666
 30
0.0
 10
57.037500
 20
-25.547003
 30
0.0
  0
SPLINE
  5
143
100
AcDbEntity
  8
0
 62
7
100
AcDbSpline
 70
8
 71
3
 72
8
 73
4
 74
0
 40
0
 40
0
 40
0
 40
0
 40
1
 40
1
 40
1
 40
1
 10
57.037500
 20
-25.547003
 30
0.0
 10
57.679507
 20
-25.176340
 30
0.0
 10
58.075000
 20
-24.491326
 30
0.0
 10
58.075000
 20
-23.750000
 30
0.0
  0
LWPOLYLINE
  5
144
100
AcDbEntity
  8
0
 62
7
100
AcDbPolyline
 90
2
 70
0
 10
-53.925000
 20
23.750000
 30
0.0
 10
-53.925000
 20
23.750000
 30
0.0
  0
LWPOLYLINE
  5
145
100
AcDbEntity
  8
0
 62
7
100
AcDbPolyline
 90
2
 70
0
 10
58.075000
 20
-23.750000
 30
0.0
 10
58.075000
 20
-23.750000
 30
0.0
  0
LWPOLYLINE
  5
146
100
AcDbEntity
  8
0
 62
7
100
AcDbPolyline
 90
2
 70
0
 10
-35.900000
 20
31.300000
 30
0.0
 10
-40.900000
 20
26.300000
 30
0.0
  0
LWPOLYLINE
  5
147
100
AcDbEntity
  8
0
 62
7
100
AcDbPolyline
 90
2
 70
0
 10
35.900000
 20
31.300000
 30
0.0
 10
-35.900000
 20
31.300000
 30
0.0
  0
LWPOLYLINE
  5
148
100
AcDbEntity
  8
0
 62
7
100
AcDbPolyline
 90
2
 70
0
 10
40.900000
 20
26.300000
 30
0.0
 10
35.900000
 20
31.300000
 30
0.0
  0
LWPOLYLINE
  5
149
100
AcDbEntity
  8
0
 62
7
100
AcDbPolyline
 90
2
 70
0
 10
40.900000
 20
-26.300000
 30
0.0
 10
40.900000
 20
26.300000
 30
0.0
  0
LWPOLYLINE
  5
14a
100
AcDbEntity
  8
0
 62
7
100
AcDbPolyline
 90
2
 70
0
 10
35.900000
 20
-31.300000
 30
0.0
 10
40.900000
 20
-26.300000
 30
0.0
  0
LWPOLYLINE
  5
14b
100
AcDbEntity
  8
0
 62
7
100
AcDbPolyline
 90
2
 70
0
 10
-35.900000
 20
-31.300000
 30
0.0
 10
35.900000
 20
-31.300000
 30
0.0
  0
LWPOLYLINE
  5
14c
100
AcDbEntity
  8
0
 62
7
100
AcDbPolyline
 90
2
 70
0
 10
-40.900000
 20
-26.300000
 30
0.0
 10
-35.900000
 20
-31.300000
 30
0.0
  0
LWPOLYLINE
  5
14d
100
AcDbEntity
  8
0
 62
7
100
AcDbPolyline
 90
2
 70
0
 10
-40.900000
 20
26.300000
 30
0.0
 10
-40.900000
 20
-26.300000
 30
0.0
  0
SPLINE
  5
14e
100
AcDbEntity
  8
0
 62
7
100
AcDbSpline
 70
8
 71
3
 72
8
 73
4
 74
0
 40
0
 40
0
 40
0
 40
0
 40
1
 40
1
 40
1
 40
1
 10
7.500000
 20
62.650000
 30
0.0
 10
7.500000
 20
65.329492
 30
0.0
 10
6.070508
 20
67.805444
 30
0.0
 10
3.750000
 20
69.145190
 30
0.0
  0
SPLINE
  5
14f
100
AcDbEntity
  8
0
 62
7
100
AcDbSpline
 70
8
 71
3
 72
8
 73
4
 74
0
 40
0
 40
0
 40
0
 40
0
 40
1
 40
1
 40
1
 40
1
 10
3.750000
 20
69.145190
 30
0.0
 10
1.429492
 20
70.484936
 30
0.0
 10
-1.429492
 20
70.484936
 30
0.0
 10
-3.750000
 20
69.145190
 30
0.0
  0
SPLINE
  5
150
100
AcDbEntity
  8
0
 62
7
100
AcDbSpline
 70
8
 71
3
 72
8
 73
4
 74
0
 40
0
 40
0
 40
0
 40
0
 40
1
 40
1
 40
1
 40
1
 10
-3.750000
 20
69.145190
 30
0.0
 10
-6.070508
 20
67.805444
 30
0.0
 10
-7.500000
 20
65.329492
 30
0.0
 10
-7.500000
 20
62.650000
 30
0.0
  0
SPLINE
  5
151
100
AcDbEntity
  8
0
 62
7
100
AcDbSpline
 70
8
 71
3
 72
8
 73
4
 74
0
 40
0
 40
0
 40
0
 40
0
 40
1
 40
1
 40
1
 40
1
 10
-7.500000
 20
62.650000
 30
0.0
 10
-7.500000
 20
59.970508
 30
0.0
 10
-6.070508
 20
57.494555
 30
0.0
 10
-3.750000
 20
56.154809
 30
0.0
  0
SPLINE
  5
152
100
AcDbEntity
  8
0
 62
7
100
AcDbSpline
 70
8
 71
3
 72
8
 73
4
 74
0
 40
0
 40
0
 40
0
 40
0
 40
1
 40
1
 40
1
 40
1
 10
-3.750000
 20
56.154809
 30
0.0
 10
-1.429492
 20
54.815063
 30
0.0
 10
1.429492
 20
54.815063
 30
0.0
 10
3.750000
 20
56.154809
 30
0.0
  0
SPLINE
  5
153
100
AcDbEntity
  8
0
 62
7
100
AcDbSpline
 70
8
 71
3
 72
8
 73
4
 74
0
 40
0
 40
0
 40
0
 40
0
 40
1
 40
1
 40
1
 40
1
 10
3.750000
 20
56.154809
 30
0.0
 10
6.070508
 20
57.494555
 30
0.0
 10
7.500000
 20
59.970508
 30
0.0
 10
7.500000
 20
62.650000
 30
0.0
  0
LWPOLYLINE
  5
154
100
AcDbEntity
  8
0
 62
7
100
AcDbPolyline
 90
13
 70
0
 10
58.400000
 20
103.800000
 30
0.0
 10
-58.400000
 20
103.800000
 30
0.0
 10
-58.400000
 20
83.800000
 30
0.0
 10
-78.400000
 20
83.800000
 30
0.0
 10
-78.400000
 20
-33.800000
 30
0.0
 10
-84.900000
 20
-33.800000
 30
0.0
 10
-84.900000
 20
-53.800000
 30
0.0
 10
84.900000
 20
-53.800000
 30
0.0
 10
84.900000
 20
-33.800000
 30
0.0
 10
78.400000
 20
-33.800000
 30
0.0
 10
78.400000
 20
83.800000
 30
0.0
 10
58.400000
 20
83.800000
 30
0.0
 10
58.400000
 20
103.800000
 30
0.0
  0
SPLINE
  5
155
100
AcDbEntity
  8
0
 62
7
100
AcDbSpline
 70
8
 71
3
 72
8
 73
4
 74
0
 40
0
 40
0
 40
0
 40
0
 40
1
 40
1
 40
1
 40
1
 10
58.075000
 20
23.750000
 30
0.0
 10
58.075000
 20
24.491326
 30
0.0
 10
57.679507
 20
25.176340
 30
0.0
 10
57.037500
 20
25.547003
 30
0.0
  0
SPLINE
  5
156
100
AcDbEntity
  8
0
 62
7
100
AcDbSpline
 70
8
 71
3
 72
8
 73
4
 74
0
 40
0
 40
0
 40
0
 40
0
 40
1
 40
1
 40
1
 40
1
 10
57.037500
 20
25.547003
 30
0.0
 10
56.395493
 20
25.917666
 30
0.0
 10
55.604507
 20
25.917666
 30
0.0
 10
54.962500
 20
25.547003
 30
0.0
  0
SPLINE
  5
157
100
AcDbEntity
  8
0
 62
7
100
AcDbSpline
 70
8
 71
3
 72
8
 73
4
 74
0
 40
0
 40
0
 40
0
 40
0
 40
1
 40
1
 40
1
 40
1
 10
54.962500
 20
25.547003
 30
0.0
 10
54.320493
 20
25.176340
 30
0.0
 10
53.925000
 20
24.491326
 30
0.0
 10
53.925000
 20
23.750000
 30
0.0
  0
SPLINE
  5
158
100
AcDbEntity
  8
0
 62
7
100
AcDbSpline
 70
8
 71
3
 72
8
 73
4
 74
0
 40
0
 40
0
 40
0
 40
0
 40
1
 40
1
 40
1
 40
1
 10
53.925000
 20
23.750000
 30
0.0
 10
53.925000
 20
23.008674
 30
0.0
 10
54.320493
 20
22.323660
 30
0.0
 10
54.962500
 20
21.952997
 30
0.0
  0
SPLINE
  5
159
100
AcDbEntity
  8
0
 62
7
100
AcDbSpline
 70
8
 71
3
 72
8
 73
4
 74
0
 40
0
 40
0
 40
0
 40
0
 40
1
 40
1
 40
1
 40
1
 10
54.962500
 20
21.952997
 30
0.0
 10
55.604507
 20
21.582334
 30
0.0
 10
56.395493
 20
21.582334
 30
0.0
 10
57.037500
 20
21.952997
 30
0.0
  0
SPLINE
  5
15a
100
AcDbEntity
  8
0
 62
7
100
AcDbSpline
 70
8
 71
3
 72
8
 73
4
 74
0
 40
0
 40
0
 40
0
 40
0
 40
1
 40
1
 40
1
 40
1
 10
57.037500
 20
21.952997
 30
0.0
 10
57.679507
 20
22.323660
 30
0.0
 10
58.075000
 20
23.008674
 30
0.0
 10
58.075000
 20
23.750000
 30
0.0
  0
LWPOLYLINE
  5
15b
100
AcDbEntity
  8
0
 62
7
100
AcDbPolyline
 90
2
 70
0
 10
7.500000
 20
62.650000
 30
0.0
 10
7.500000
 20
62.650000
 30
0.0
  0
SPLINE
  5
15c
100
AcDbEntity
  8
0
 62
7
100
AcDbSpline
 70
8
 71
3
 72
8
 73
4
 74
0
 40
0
 40
0
 40
0
 40
0
 40
1
 40
1
 40
1
 40
1
 10
-53.925000
 20
-23.750000
 30
0.0
 10
-53.925000
 20
-23.008674
 30
0.0
 10
-54.320493
 20
-22.323660
 30
0.0
 10
-54.962500
 20
-21.952997
 30
0.0
  0
SPLINE
  5
15d
100
AcDbEntity
  8
0
 62
7
100
AcDbSpline
 70
8
 71
3
 72
8
 73
4
 74
0
 40
0
 40
0
 40
0
 40
0
 40
1
 40
1
 40
1
 40
1
 10
-54.962500
 20
-21.952997
 30
0.0
 10
-55.604507
 20
-21.582334
 30
0.0
 10
-56.395493
 20
-21.582334
 30
0.0
 10
-57.037500
 20
-21.952997
 30
0.0
  0
SPLINE
  5
15e
100
AcDbEntity
  8
0
 62
7
100
AcDbSpline
 70
8
 71
3
 72
8
 73
4
 74
0
 40
0
 40
0
 40
0
 40
0
 40
1
 40
1
 40
1
 40
1
 10
-57.037500
 20
-21.952997
 30
0.0
 10
-57.679507
 20
-22.323660
 30
0.0
 10
-58.075000
 20
-23.008674
 30
0.0
 10
-58.075000
 20
-23.750000
 30
0.0
  0
SPLINE
  5
15f
100
AcDbEntity
  8
0
 62
7
100
AcDbSpline
 70
8
 71
3
 72
8
 73
4
 74
0
 40
0
 40
0
 40
0
 40
0
 40
1
 40
1
 40
1
 40
1
 10
-58.075000
 20
-23.750000
 30
0.0
 10
-58.075000
 20
-24.491326
 30
0.0
 10
-57.679507
 20
-25.176340
 30
0.0
 10
-57.037500
 20
-25.547003
 30
0.0
  0
SPLINE
  5
160
100
AcDbEntity
  8
0
 62
7
100
AcDbSpline
 70
8
 71
3
 72
8
 73
4
 74
0
 40
0
 40
0
 40
0
 40
0
 40
1
 40
1
 40
1
 40
1
 10
-57.037500
 20
-25.547003
 30
0.0
 10
-56.395493
 20
-25.917666
 30
0.0
 10
-55.604507
 20
-25.917666
 30
0.0
 10
-54.962500
 20
-25.547003
 30
0.0
  0
SPLINE
  5
161
100
AcDbEntity
  8
0
 62
7
100
AcDbSpline
 70
8
 71
3
 72
8
 73
4
 74
0
 40
0
 40
0
 40
0
 40
0
 40
1
 40
1
 40
1
 40
1
 10
-54.962500
 20
-25.547003
 30
0.0
 10
-54.320493
 20
-25.176340
 30
0.0
 10
-53.925000
 20
-24.491326
 30
0.0
 10
-53.925000
 20
-23.750000
 30
0.0
  0
LWPOLYLINE
  5
162
100
AcDbEntity
  8
0
 62
7
100
AcDbPolyline
 90
2
 70
0
 10
58.075000
 20
23.750000
 30
0.0
 10
58.075000
 20
23.750000
 30
0.0
  0
SPLINE
  5
163
100
AcDbEntity
  8
0
 62
7
100
AcDbSpline
 70
8
 71
3
 72
8
 73
4
 74
0
 40
0
 40
0
 40
0
 40
0
 40
1
 40
1
 40
1
 40
1
 10
-65.775000
 20
73.800000
 30
0.0
 10
-65.775000
 20
74.737822
 30
0.0
 10
-66.275322
 20
75.604406
 30
0.0
 10
-67.087500
 20
76.073317
 30
0.0
  0
SPLINE
  5
164
100
AcDbEntity
  8
0
 62
7
100
AcDbSpline
 70
8
 71
3
 72
8
 73
4
 74
0
 40
0
 40
0
 40
0
 40
0
 40
1
 40
1
 40
1
 40
1
 10
-67.087500
 20
76.073317
 30
0.0
 10
-67.899678
 20
76.542228
 30
0.0
 10
-68.900322
 20
76.542228
 30
0.0
 10
-69.712500
 20
76.073317
 30
0.0
  0
SPLINE
  5
165
100
AcDbEntity
  8
0
 62
7
100
AcDbSpline
 70
8
 71
3
 72
8
 73
4
 74
0
 40
0
 40
0
 40
0
 40
0
 40
1
 40
1
 40
1
 40
1
 10
-69.712500
 20
76.073317
 30
0.0
 10
-70.524678
 20
75.604406
 30
0.0
 10
-71.025000
 20
74.737822
 30
0.0
 10
-71.025000
 20
73.800000
 30
0.0
  0
SPLINE
  5
166
100
AcDbEntity
  8
0
 62
7
100
AcDbSpline
 70
8
 71
3
 72
8
 73
4
 74
0
 40
0
 40
0
 40
0
 40
0
 40
1
 40
1
 40
1
 40
1
 10
-71.025000
 20
73.800000
 30
0.0
 10
-71.025000
 20
72.862178
 30
0.0
 10
-70.524678
 20
71.995594
 30
0.0
 10
-69.712500
 20
71.526683
 30
0.0
  0
SPLINE
  5
167
100
AcDbEntity
  8
0
 62
7
100
AcDbSpline
 70
8
 71
3
 72
8
 73
4
 74
0
 40
0
 40
0
 40
0
 40
0
 40
1
 40
1
 40
1
 40
1
 10
-69.712500
 20
71.526683
 30
0.0
 10
-68.900322
 20
71.057772
 30
0.0
 10
-67.899678
 20
71.057772
 30
0.0
 10
-67.087500
 20
71.526683
 30
0.0
  0
SPLINE
  5
168
100
AcDbEntity
  8
0
 62
7
100
AcDbSpline
 70
8
 71
3
 72
8
 73
4
 74
0
 40
0
 40
0
 40
0
 40
0
 40
1
 40
1
 40
1
 40
1
 10
-67.087500
 20
71.526683
 30
0.0
 10
-66.275322
 20
71.995594
 30
0.0
 10
-65.775000
 20
72.862178
 30
0.0
 10
-65.775000
 20
73.800000
 30
0.0
  0
LWPOLYLINE
  5
169
100
AcDbEntity
  8
0
 62
7
100
AcDbPolyline
 90
2
 70
0
 10
-53.925000
 20
-23.750000
 30
0.0
 10
-53.925000
 20
-23.750000
 30
0.0
  0
SPLINE
  5
16a
100
AcDbEntity
  8
0
 62
7
100
AcDbSpline
 70
8
 71
3
 72
8
 73
4
 74
0
 40
0
 40
0
 40
0
 40
0
 40
1
 40
1
 40
1
 40
1
 10
71.025000
 20
-23.800000
 30
0.0
 10
71.025000
 20
-22.862178
 30
0.0
 10
70.524678
 20
-21.995594
 30
0.0
 10
69.712500
 20
-21.526683
 30
0.0
  0
SPLINE
  5
16b
100
AcDbEntity
  8
0
 62
7
100
AcDbSpline
 70
8
 71
3
 72
8
 73
4
 74
0
 40
0
 40
0
 40
0
 40
0
 40
1
 40
1
 40
1
 40
1
 10
69.712500
 20
-21.526683
 30
0.0
 10
68.900322
 20
-21.057772
 30
0.0
 10
67.899678
 20
-21.057772
 30
0.0
 10
67.087500
 20
-21.526683
 30
0.0
  0
SPLINE
  5
16c
100
AcDbEntity
  8
0
 62
7
100
AcDbSpline
 70
8
 71
3
 72
8
 73
4
 74
0
 40
0
 40
0
 40
0
 40
0
 40
1
 40
1
 40
1
 40
1
 10
67.087500
 20
-21.526683
 30
0.0
 10
66.275322
 20
-21.995594
 30
0.0
 10
65.775000
 20
-22.862178
 30
0.0
 10
65.775000
 20
-23.800000
 30
0.0
  0
SPLINE
  5
16d
100
AcDbEntity
  8
0
 62
7
100
AcDbSpline
 70
8
 71
3
 72
8
 73
4
 74
0
 40
0
 40
0
 40
0
 40
0
 40
1
 40
1
 40
1
 40
1
 10
65.775000
 20
-23.800000
 30
0.0
 10
65.775000
 20
-24.737822
 30
0.0
 10
66.275322
 20
-25.604405
 30
0.0
 10
67.087500
 20
-26.073317
 30
0.0
  0
SPLINE
  5
16e
100
AcDbEntity
  8
0
 62
7
100
AcDbSpline
 70
8
 71
3
 72
8
 73
4
 74
0
 40
0
 40
0
 40
0
 40
0
 40
1
 40
1
 40
1
 40
1
 10
67.087500
 20
-26.073317
 30
0.0
 10
67.899678
 20
-26.542228
 30
0.0
 10
68.900322
 20
-26.542228
 30
0.0
 10
69.712500
 20
-26.073317
 30
0.0
  0
SPLINE
  5
16f
100
AcDbEntity
  8
0
 62
7
100
AcDbSpline
 70
8
 71
3
 72
8
 73
4
 74
0
 40
0
 40
0
 40
0
 40
0
 40
1
 40
1
 40
1
 40
1
 10
69.712500
 20
-26.073317
 30
0.0
 10
70.524678
 20
-25.604405
 30
0.0
 10
71.025000
 20
-24.737822
 30
0.0
 10
71.025000
 20
-23.800000
 30
0.0
  0
LWPOLYLINE
  5
170
100
AcDbEntity
  8
0
 62
7
100
AcDbPolyline
 90
2
 70
0
 10
-65.775000
 20
73.800000
 30
0.0
 10
-65.775000
 20
73.800000
 30
0.0
  0
LWPOLYLINE
  5
171
100
AcDbEntity
  8
0
 62
7
100
AcDbPolyline
 90
2
 70
0
 10
71.025000
 20
-23.800000
 30
0.0
 10
71.025000
 20
-23.800000
 30
0.0
  0
ENDSEC
  0
SECTION
  2
OBJECTS
  0
DICTIONARY
  5
C
330
0
100
AcDbDictionary
  3
ACAD_GROUP
350
D
  3
ACAD_MLINESTYLE
350
17
  0
DICTIONARY
  5
D
330
C
100
AcDbDictionary
  0
DICTIONARY
  5
1A
330
C
100
AcDbDictionary
  0
DICTIONARY
  5
17
330
C
100
AcDbDictionary
  3
STANDARD
350
18
  0
DICTIONARY
  5
19
330
C
100
AcDbDictionary
  0
ENDSEC
  0
EOF
