%
M48
M72
T01C0.0276
T02C0.0354
T03C0.0400
T04C0.0472
T05C0.1180
T06C0.1260
%
T01
X5430Y5450
X6430Y5450
X8845Y10935
X8845Y11935
X12485Y9345
X12485Y8345
X12405Y17075
X12405Y18075
T02
X10980Y18415
X10980Y17415
X10980Y16415
X10980Y15415
X10980Y14415
X10980Y13415
X10980Y12415
X10980Y11415
X10995Y9730
X10995Y8730
X10995Y7730
X10995Y6730
X10995Y5730
X10995Y4730
X10995Y3730
X10995Y2730
X15995Y2730
X15995Y3730
X15995Y4730
X15995Y5730
X15995Y6730
X15995Y7730
X15995Y8730
X15995Y9730
X15980Y11415
X15980Y12415
X15980Y13415
X15980Y14415
X15980Y15415
X15980Y16415
X15980Y17415
X15980Y18415
X14475Y15545
X14475Y11545
T03
X17565Y12425
X18565Y12425
X18565Y13425
X18565Y14425
X17565Y14425
X17565Y13425
X17650Y20150
X16650Y20150
X15650Y20150
X14650Y20150
X13650Y20150
X12050Y20150
X11050Y20150
X10050Y20150
X9050Y20150
X8050Y20150
X7050Y20150
X6050Y20150
X5050Y20150
X5990Y17100
X5990Y16000
X3195Y16020
X3195Y17120
X9030Y16415
X8930Y15415
X9030Y14415
X8930Y13415
X9090Y7725
X8990Y6725
X9090Y5725
X8990Y4725
X5770Y2935
X5770Y1155
X3210Y1155
X3210Y2935
X8650Y1150
X9650Y1150
X10650Y1150
X11650Y1150
X12650Y1150
X13650Y1150
X15650Y1150
X16650Y1150
X17650Y1150
X18650Y1150
X19650Y1150
X20650Y1150
X18540Y4765
X18540Y5765
X18540Y6765
X17540Y6765
X17540Y5765
X17540Y4765
X18650Y20150
X19650Y20150
X20650Y20150
T04
X2140Y14133
X2140Y12615
T05
X3326Y9600
X4958Y8129
T06
X1150Y1150
X6209Y9610
X1650Y20150
X21650Y14150
X21650Y3150
M30
