G75*
%MOIN*%
%OFA0B0*%
%FSLAX24Y24*%
%IPPOS*%
%LPD*%
%AMOC8*
5,1,8,0,0,1.08239X$1,22.5*
%
%ADD10C,0.0100*%
%ADD11C,0.0030*%
%ADD12C,0.0080*%
%ADD13C,0.0060*%
D10*
X000150Y000150D02*
X000150Y021150D01*
X021050Y021150D01*
X021650Y020550D01*
X021650Y016050D01*
X022650Y015050D01*
X022650Y002150D01*
X021650Y001150D01*
X021650Y000150D01*
X000150Y000150D01*
X000795Y007895D02*
X002035Y007895D01*
X002035Y011305D01*
X000795Y011340D02*
X000795Y007895D01*
X002035Y007895D02*
X003990Y007895D01*
X005930Y007885D02*
X006375Y007885D01*
X006375Y008620D01*
X006375Y010660D02*
X006375Y011340D01*
X000795Y011340D01*
X003240Y014730D02*
X003250Y014730D01*
X004200Y016075D02*
X004200Y016080D01*
X001990Y017565D02*
X001985Y017565D01*
X006995Y016060D02*
X006995Y016055D01*
D11*
X007930Y017190D02*
X008177Y017190D01*
X007930Y017190D02*
X007930Y017252D01*
X008177Y017499D01*
X008177Y017560D01*
X007930Y017560D01*
X007186Y018215D02*
X006939Y018215D01*
X006817Y018215D02*
X006694Y018215D01*
X006756Y018215D02*
X006756Y017845D01*
X006817Y017845D02*
X006694Y017845D01*
X006572Y017845D02*
X006572Y018215D01*
X006449Y018092D01*
X006325Y018215D01*
X006325Y017845D01*
X006203Y017845D02*
X006080Y017845D01*
X006142Y017845D02*
X006142Y018215D01*
X006203Y018215D02*
X006080Y018215D01*
X005712Y018215D02*
X005712Y017845D01*
X005959Y017845D01*
X005222Y018154D02*
X005098Y018030D01*
X005098Y017845D01*
X005098Y018030D02*
X004975Y018154D01*
X004975Y018215D01*
X005222Y018215D02*
X005222Y018154D01*
X004331Y018180D02*
X004084Y018180D01*
X003962Y018180D02*
X003839Y018180D01*
X003901Y018180D02*
X003901Y017810D01*
X003962Y017810D02*
X003839Y017810D01*
X003717Y017810D02*
X003717Y018180D01*
X003594Y018057D01*
X003470Y018180D01*
X003470Y017810D01*
X003348Y017810D02*
X003225Y017810D01*
X003287Y017810D02*
X003287Y018180D01*
X003348Y018180D02*
X003225Y018180D01*
X002857Y018180D02*
X002857Y017810D01*
X003104Y017810D01*
X002367Y017810D02*
X002120Y017810D01*
X002120Y017872D01*
X002367Y018119D01*
X002367Y018180D01*
X002120Y018180D01*
X004208Y018180D02*
X004208Y017810D01*
X007063Y017845D02*
X007063Y018215D01*
X008667Y017437D02*
X008667Y017190D01*
X008667Y017375D02*
X008914Y017375D01*
X008914Y017437D02*
X008914Y017190D01*
X009035Y017190D02*
X009282Y017560D01*
X009403Y017560D02*
X009527Y017560D01*
X009465Y017560D02*
X009465Y017190D01*
X009403Y017190D02*
X009527Y017190D01*
X009649Y017252D02*
X009711Y017190D01*
X009834Y017190D01*
X009896Y017252D01*
X009896Y017313D01*
X009834Y017375D01*
X009711Y017375D01*
X009649Y017437D01*
X009649Y017499D01*
X009711Y017560D01*
X009834Y017560D01*
X009896Y017499D01*
X009282Y017190D02*
X009035Y017560D01*
X008914Y017437D02*
X008790Y017560D01*
X008667Y017437D01*
X011665Y016312D02*
X011788Y016435D01*
X011788Y016065D01*
X011665Y016065D02*
X011912Y016065D01*
X012033Y016065D02*
X012218Y016065D01*
X012280Y016127D01*
X012280Y016188D01*
X012218Y016250D01*
X012033Y016250D01*
X012033Y016065D02*
X012033Y016435D01*
X012218Y016435D01*
X012280Y016374D01*
X012280Y016312D01*
X012218Y016250D01*
X012157Y015500D02*
X012033Y015377D01*
X012033Y015130D01*
X011912Y015130D02*
X011665Y015130D01*
X011788Y015130D02*
X011788Y015500D01*
X011665Y015377D01*
X012033Y015315D02*
X012280Y015315D01*
X012280Y015377D02*
X012280Y015130D01*
X012280Y015377D02*
X012157Y015500D01*
X012157Y014590D02*
X012280Y014467D01*
X012280Y014220D01*
X012280Y014405D02*
X012033Y014405D01*
X012033Y014467D02*
X012157Y014590D01*
X012033Y014467D02*
X012033Y014220D01*
X011912Y014220D02*
X011665Y014220D01*
X011912Y014467D01*
X011912Y014529D01*
X011850Y014590D01*
X011727Y014590D01*
X011665Y014529D01*
X011727Y013635D02*
X011665Y013574D01*
X011727Y013635D02*
X011850Y013635D01*
X011912Y013574D01*
X011912Y013512D01*
X011665Y013265D01*
X011912Y013265D01*
X012033Y013265D02*
X012218Y013265D01*
X012280Y013327D01*
X012280Y013388D01*
X012218Y013450D01*
X012033Y013450D01*
X012033Y013265D02*
X012033Y013635D01*
X012218Y013635D01*
X012280Y013574D01*
X012280Y013512D01*
X012218Y013450D01*
X013425Y013465D02*
X013425Y013280D01*
X013795Y013280D01*
X013672Y013280D02*
X013672Y013465D01*
X013610Y013527D01*
X013486Y013527D01*
X013425Y013465D01*
X013548Y013648D02*
X013425Y013772D01*
X013795Y013772D01*
X013795Y013895D02*
X013795Y013648D01*
X013795Y013527D02*
X013672Y013403D01*
X014453Y009880D02*
X014638Y009880D01*
X014700Y009819D01*
X014700Y009572D01*
X014638Y009510D01*
X014453Y009510D01*
X014453Y009880D01*
X014821Y009880D02*
X014945Y009880D01*
X014883Y009880D02*
X014883Y009510D01*
X014821Y009510D02*
X014945Y009510D01*
X015067Y009510D02*
X015067Y009880D01*
X015252Y009880D01*
X015314Y009819D01*
X015314Y009695D01*
X015252Y009633D01*
X015067Y009633D01*
X015190Y009633D02*
X015314Y009510D01*
X015252Y008930D02*
X015314Y008869D01*
X015314Y008745D01*
X015252Y008683D01*
X015067Y008683D01*
X015067Y008560D02*
X015067Y008930D01*
X015252Y008930D01*
X014945Y008930D02*
X014698Y008930D01*
X014698Y008560D01*
X014945Y008560D01*
X014822Y008745D02*
X014698Y008745D01*
X014577Y008930D02*
X014330Y008930D01*
X014453Y008930D02*
X014453Y008560D01*
X014209Y008622D02*
X014147Y008560D01*
X014023Y008560D01*
X013962Y008622D01*
X014023Y008745D02*
X014147Y008745D01*
X014209Y008683D01*
X014209Y008622D01*
X014023Y008745D02*
X013962Y008807D01*
X013962Y008869D01*
X014023Y008930D01*
X014147Y008930D01*
X014209Y008869D01*
X013530Y008863D02*
X013283Y009110D01*
X013221Y009110D01*
X013160Y009048D01*
X013160Y008925D01*
X013221Y008863D01*
X013221Y008742D02*
X013160Y008680D01*
X013160Y008557D01*
X013221Y008495D01*
X013468Y008495D01*
X013530Y008557D01*
X013530Y008680D01*
X013468Y008742D01*
X013530Y008863D02*
X013530Y009110D01*
X012218Y007675D02*
X012280Y007614D01*
X012280Y007552D01*
X012218Y007490D01*
X012033Y007490D01*
X012033Y007305D02*
X012218Y007305D01*
X012280Y007367D01*
X012280Y007428D01*
X012218Y007490D01*
X012218Y007675D02*
X012033Y007675D01*
X012033Y007305D01*
X011912Y007305D02*
X011665Y007305D01*
X011788Y007305D02*
X011788Y007675D01*
X011665Y007552D01*
X011788Y006820D02*
X011788Y006450D01*
X011665Y006450D02*
X011912Y006450D01*
X012033Y006450D02*
X012033Y006697D01*
X012157Y006820D01*
X012280Y006697D01*
X012280Y006450D01*
X012280Y006635D02*
X012033Y006635D01*
X011788Y006820D02*
X011665Y006697D01*
X011727Y005935D02*
X011665Y005874D01*
X011727Y005935D02*
X011850Y005935D01*
X011912Y005874D01*
X011912Y005812D01*
X011665Y005565D01*
X011912Y005565D01*
X012033Y005565D02*
X012033Y005812D01*
X012157Y005935D01*
X012280Y005812D01*
X012280Y005565D01*
X012280Y005750D02*
X012033Y005750D01*
X012033Y004975D02*
X012218Y004975D01*
X012280Y004914D01*
X012280Y004852D01*
X012218Y004790D01*
X012033Y004790D01*
X011912Y004852D02*
X011912Y004914D01*
X011850Y004975D01*
X011727Y004975D01*
X011665Y004914D01*
X011912Y004852D02*
X011665Y004605D01*
X011912Y004605D01*
X012033Y004605D02*
X012218Y004605D01*
X012280Y004667D01*
X012280Y004728D01*
X012218Y004790D01*
X012033Y004605D02*
X012033Y004975D01*
X009879Y008560D02*
X009756Y008560D01*
X009694Y008622D01*
X009572Y008560D02*
X009448Y008560D01*
X009510Y008560D02*
X009510Y008930D01*
X009448Y008930D02*
X009572Y008930D01*
X009694Y008869D02*
X009694Y008807D01*
X009756Y008745D01*
X009879Y008745D01*
X009941Y008683D01*
X009941Y008622D01*
X009879Y008560D01*
X009941Y008869D02*
X009879Y008930D01*
X009756Y008930D01*
X009694Y008869D01*
X009327Y008930D02*
X009080Y008560D01*
X008959Y008560D02*
X008959Y008807D01*
X008835Y008930D01*
X008712Y008807D01*
X008712Y008560D01*
X008712Y008745D02*
X008959Y008745D01*
X009080Y008930D02*
X009327Y008560D01*
X008222Y008869D02*
X008222Y008930D01*
X008222Y008869D02*
X008098Y008745D01*
X008098Y008560D01*
X008098Y008745D02*
X007975Y008869D01*
X007975Y008930D01*
X007278Y011165D02*
X007031Y011165D01*
X006970Y011227D01*
X006970Y011350D01*
X007031Y011412D01*
X007031Y011533D02*
X006970Y011595D01*
X006970Y011718D01*
X007031Y011780D01*
X007093Y011780D01*
X007155Y011718D01*
X007217Y011780D01*
X007278Y011780D01*
X007340Y011718D01*
X007340Y011595D01*
X007278Y011533D01*
X007278Y011412D02*
X007340Y011350D01*
X007340Y011227D01*
X007278Y011165D01*
X007155Y011657D02*
X007155Y011718D01*
X003792Y007569D02*
X003792Y007322D01*
X003915Y007445D02*
X003668Y007445D01*
X003178Y007445D02*
X003117Y007383D01*
X002932Y007383D01*
X002932Y007260D02*
X002932Y007630D01*
X003117Y007630D01*
X003178Y007569D01*
X003178Y007445D01*
X003055Y007383D02*
X003178Y007260D01*
X002810Y007260D02*
X002563Y007260D01*
X002563Y007630D01*
X002810Y007630D01*
X002687Y007445D02*
X002563Y007445D01*
X002442Y007630D02*
X002195Y007630D01*
X002074Y007630D02*
X002074Y007260D01*
X001827Y007630D01*
X001827Y007260D01*
X001705Y007260D02*
X001458Y007260D01*
X001458Y007630D01*
X001705Y007630D01*
X001582Y007445D02*
X001458Y007445D01*
X001337Y007322D02*
X001275Y007260D01*
X001152Y007260D01*
X001090Y007322D01*
X001090Y007569D01*
X001152Y007630D01*
X001275Y007630D01*
X001337Y007569D01*
X002318Y007630D02*
X002318Y007260D01*
X004010Y005673D02*
X004195Y005488D01*
X004195Y005735D01*
X004380Y005673D02*
X004010Y005673D01*
X004071Y005367D02*
X004010Y005305D01*
X004010Y005182D01*
X004071Y005120D01*
X004318Y005120D01*
X004380Y005182D01*
X004380Y005305D01*
X004318Y005367D01*
X004315Y003925D02*
X004068Y003925D01*
X004068Y003555D01*
X004315Y003555D01*
X004437Y003617D02*
X004498Y003555D01*
X004622Y003555D01*
X004684Y003617D01*
X004684Y003678D01*
X004622Y003740D01*
X004498Y003740D01*
X004437Y003802D01*
X004437Y003864D01*
X004498Y003925D01*
X004622Y003925D01*
X004684Y003864D01*
X004805Y003925D02*
X004805Y003555D01*
X005052Y003555D01*
X004928Y003740D02*
X004805Y003740D01*
X004805Y003925D02*
X005052Y003925D01*
X005173Y003925D02*
X005420Y003925D01*
X005297Y003925D02*
X005297Y003555D01*
X004192Y003740D02*
X004068Y003740D01*
X003947Y003740D02*
X003885Y003678D01*
X003700Y003678D01*
X003700Y003555D02*
X003700Y003925D01*
X003885Y003925D01*
X003947Y003864D01*
X003947Y003740D01*
X003823Y003678D02*
X003947Y003555D01*
X013121Y017325D02*
X013368Y017325D01*
X013430Y017387D01*
X013430Y017510D01*
X013368Y017572D01*
X013430Y017693D02*
X013430Y017940D01*
X013430Y017817D02*
X013060Y017817D01*
X013183Y017693D01*
X013121Y017572D02*
X013060Y017510D01*
X013060Y017387D01*
X013121Y017325D01*
X013962Y017452D02*
X014023Y017390D01*
X014147Y017390D01*
X014209Y017452D01*
X014209Y017513D01*
X014147Y017575D01*
X014023Y017575D01*
X013962Y017637D01*
X013962Y017699D01*
X014023Y017760D01*
X014147Y017760D01*
X014209Y017699D01*
X014330Y017760D02*
X014577Y017760D01*
X014698Y017760D02*
X014698Y017390D01*
X014945Y017390D01*
X015067Y017390D02*
X015067Y017760D01*
X015252Y017760D01*
X015314Y017699D01*
X015314Y017575D01*
X015252Y017513D01*
X015067Y017513D01*
X014822Y017575D02*
X014698Y017575D01*
X014698Y017760D02*
X014945Y017760D01*
X014453Y017760D02*
X014453Y017390D01*
X014453Y018285D02*
X014638Y018285D01*
X014700Y018347D01*
X014700Y018594D01*
X014638Y018655D01*
X014453Y018655D01*
X014453Y018285D01*
X014821Y018285D02*
X014945Y018285D01*
X014883Y018285D02*
X014883Y018655D01*
X014821Y018655D02*
X014945Y018655D01*
X015067Y018655D02*
X015252Y018655D01*
X015314Y018594D01*
X015314Y018470D01*
X015252Y018408D01*
X015067Y018408D01*
X015067Y018285D02*
X015067Y018655D01*
X015190Y018408D02*
X015314Y018285D01*
X019425Y014540D02*
X019548Y014417D01*
X019672Y014540D01*
X019672Y014170D01*
X019793Y014232D02*
X019855Y014170D01*
X019978Y014170D01*
X020040Y014232D01*
X020040Y014293D01*
X019978Y014355D01*
X019855Y014355D01*
X019793Y014417D01*
X019793Y014479D01*
X019855Y014540D01*
X019978Y014540D01*
X020040Y014479D01*
X020162Y014479D02*
X020223Y014540D01*
X020347Y014540D01*
X020409Y014479D01*
X020409Y014417D01*
X020347Y014355D01*
X020409Y014293D01*
X020409Y014232D01*
X020347Y014170D01*
X020223Y014170D01*
X020162Y014232D01*
X020285Y014355D02*
X020347Y014355D01*
X020347Y013535D02*
X020223Y013535D01*
X020162Y013474D01*
X020040Y013474D02*
X019978Y013535D01*
X019855Y013535D01*
X019793Y013474D01*
X019793Y013412D01*
X019855Y013350D01*
X019978Y013350D01*
X020040Y013288D01*
X020040Y013227D01*
X019978Y013165D01*
X019855Y013165D01*
X019793Y013227D01*
X019672Y013165D02*
X019672Y013535D01*
X019548Y013412D01*
X019425Y013535D01*
X019425Y013165D01*
X019425Y012505D02*
X019548Y012382D01*
X019672Y012505D01*
X019672Y012135D01*
X019793Y012197D02*
X019855Y012135D01*
X019978Y012135D01*
X020040Y012197D01*
X020040Y012258D01*
X019978Y012320D01*
X019855Y012320D01*
X019793Y012382D01*
X019793Y012444D01*
X019855Y012505D01*
X019978Y012505D01*
X020040Y012444D01*
X020162Y012382D02*
X020285Y012505D01*
X020285Y012135D01*
X020162Y012135D02*
X020409Y012135D01*
X021158Y012195D02*
X021405Y012195D01*
X021282Y012195D02*
X021158Y012319D01*
X021158Y012381D01*
X021220Y012074D02*
X021158Y012012D01*
X021158Y011889D01*
X021220Y011827D01*
X021343Y011827D01*
X021405Y011889D01*
X021405Y012012D01*
X021282Y012074D02*
X021282Y011827D01*
X021405Y011705D02*
X021405Y011582D01*
X021405Y011643D02*
X021035Y011643D01*
X021035Y011582D01*
X021035Y011398D02*
X021405Y011398D01*
X021405Y011459D02*
X021405Y011336D01*
X021343Y011215D02*
X021220Y011215D01*
X021158Y011153D01*
X021158Y011029D01*
X021220Y010968D01*
X021343Y010968D01*
X021405Y011029D01*
X021405Y011153D01*
X021343Y011215D01*
X021035Y011336D02*
X021035Y011398D01*
X021158Y010846D02*
X021158Y010784D01*
X021282Y010661D01*
X021405Y010661D02*
X021158Y010661D01*
X021158Y010539D02*
X021158Y010415D01*
X021096Y010477D02*
X021343Y010477D01*
X021405Y010539D01*
X021405Y010294D02*
X021220Y010294D01*
X021158Y010232D01*
X021158Y010047D01*
X021405Y010047D01*
X021343Y009926D02*
X021220Y009926D01*
X021158Y009864D01*
X021158Y009740D01*
X021220Y009679D01*
X021343Y009679D01*
X021405Y009740D01*
X021405Y009864D01*
X021343Y009926D01*
X021343Y009557D02*
X021405Y009495D01*
X021405Y009372D01*
X021343Y009310D01*
X021096Y009310D01*
X021035Y009372D01*
X021035Y009495D01*
X021096Y009557D01*
X021635Y009495D02*
X022005Y009495D01*
X022005Y009433D02*
X022005Y009557D01*
X021943Y009679D02*
X021820Y009679D01*
X021758Y009740D01*
X021758Y009864D01*
X021820Y009926D01*
X021882Y009926D01*
X021882Y009679D01*
X021943Y009679D02*
X022005Y009740D01*
X022005Y009864D01*
X022005Y010047D02*
X021758Y010047D01*
X021758Y010170D02*
X021758Y010232D01*
X021758Y010170D02*
X021882Y010047D01*
X022005Y010354D02*
X022005Y010539D01*
X021943Y010601D01*
X021820Y010601D01*
X021758Y010539D01*
X021758Y010354D01*
X022128Y010354D01*
X022005Y010722D02*
X022005Y010784D01*
X021943Y010784D01*
X021943Y010722D01*
X022005Y010722D01*
X021943Y010906D02*
X021820Y010906D01*
X021758Y010968D01*
X021758Y011153D01*
X021820Y011275D02*
X021943Y011275D01*
X022005Y011336D01*
X022005Y011460D01*
X021943Y011522D01*
X021820Y011522D01*
X021758Y011460D01*
X021758Y011336D01*
X021820Y011275D01*
X022005Y011153D02*
X022005Y010968D01*
X021943Y010906D01*
X022005Y011643D02*
X021758Y011643D01*
X021758Y011705D01*
X021820Y011766D01*
X021758Y011828D01*
X021820Y011890D01*
X022005Y011890D01*
X022005Y011766D02*
X021820Y011766D01*
X021282Y012074D02*
X021220Y012074D01*
X020409Y013165D02*
X020162Y013165D01*
X020409Y013412D01*
X020409Y013474D01*
X020347Y013535D01*
X019425Y014170D02*
X019425Y014540D01*
X019425Y012505D02*
X019425Y012135D01*
X021635Y009495D02*
X021635Y009433D01*
X021758Y009311D02*
X021758Y009188D01*
X021696Y009249D02*
X021943Y009249D01*
X022005Y009311D01*
X022005Y009065D02*
X021943Y009004D01*
X021696Y009004D01*
X021758Y009065D02*
X021758Y008942D01*
X021758Y008758D02*
X022005Y008758D01*
X022005Y008696D02*
X022005Y008820D01*
X022005Y008574D02*
X022005Y008451D01*
X022005Y008513D02*
X021635Y008513D01*
X021635Y008451D01*
X021696Y008329D02*
X021635Y008268D01*
X021635Y008144D01*
X021696Y008083D01*
X021943Y008083D01*
X022005Y008144D01*
X022005Y008268D01*
X021943Y008329D01*
X021882Y008268D02*
X021758Y008268D01*
X021758Y008144D01*
X021882Y008144D01*
X021882Y008268D01*
X021820Y008329D01*
X021696Y008329D01*
X021758Y008696D02*
X021758Y008758D01*
X021635Y008758D02*
X021573Y008758D01*
X021405Y008821D02*
X021405Y008574D01*
X021035Y008574D01*
X021096Y008452D02*
X021158Y008452D01*
X021220Y008391D01*
X021220Y008205D01*
X021220Y008084D02*
X021096Y008084D01*
X021035Y008022D01*
X021035Y007837D01*
X021405Y007837D01*
X021282Y007837D02*
X021282Y008022D01*
X021220Y008084D01*
X021282Y007960D02*
X021405Y008084D01*
X021405Y008205D02*
X021035Y008205D01*
X021035Y008391D01*
X021096Y008452D01*
X021220Y008391D02*
X021282Y008452D01*
X021343Y008452D01*
X021405Y008391D01*
X021405Y008205D01*
X021635Y007961D02*
X022005Y007961D01*
X022005Y007776D01*
X021943Y007714D01*
X021820Y007714D01*
X021758Y007776D01*
X021758Y007961D01*
X021820Y007593D02*
X022005Y007593D01*
X022005Y007408D01*
X021943Y007346D01*
X021882Y007408D01*
X021882Y007593D01*
X021820Y007593D02*
X021758Y007531D01*
X021758Y007408D01*
X021758Y007224D02*
X021758Y007162D01*
X021882Y007039D01*
X022005Y007039D02*
X021758Y007039D01*
X021820Y006918D02*
X021758Y006856D01*
X021758Y006671D01*
X021635Y006671D02*
X022005Y006671D01*
X022005Y006856D01*
X021943Y006918D01*
X021820Y006918D01*
X021405Y006732D02*
X021035Y006732D01*
X021035Y006917D01*
X021096Y006979D01*
X021220Y006979D01*
X021282Y006917D01*
X021282Y006732D01*
X021220Y006611D02*
X021282Y006549D01*
X021282Y006364D01*
X021282Y006242D02*
X021282Y005995D01*
X021343Y005995D02*
X021220Y005995D01*
X021158Y006057D01*
X021158Y006181D01*
X021220Y006242D01*
X021282Y006242D01*
X021405Y006181D02*
X021405Y006057D01*
X021343Y005995D01*
X021405Y005873D02*
X021405Y005750D01*
X021405Y005812D02*
X021035Y005812D01*
X021035Y005750D01*
X021158Y005628D02*
X021158Y005504D01*
X021096Y005566D02*
X021343Y005566D01*
X021405Y005628D01*
X021405Y005382D02*
X021343Y005321D01*
X021096Y005321D01*
X021158Y005382D02*
X021158Y005259D01*
X021158Y005075D02*
X021405Y005075D01*
X021405Y005013D02*
X021405Y005137D01*
X021158Y005075D02*
X021158Y005013D01*
X021035Y005075D02*
X020973Y005075D01*
X021035Y004645D02*
X021405Y004645D01*
X021405Y004892D01*
X021635Y004892D02*
X021882Y004892D01*
X022005Y004768D01*
X021882Y004645D01*
X021635Y004645D01*
X021943Y005013D02*
X021943Y005075D01*
X022005Y005075D01*
X022005Y005013D01*
X021943Y005013D01*
X022005Y005197D02*
X021758Y005444D01*
X021696Y005444D01*
X021635Y005383D01*
X021635Y005259D01*
X021696Y005197D01*
X022005Y005197D02*
X022005Y005444D01*
X021820Y005934D02*
X021820Y006181D01*
X021405Y006364D02*
X021035Y006364D01*
X021035Y006549D01*
X021096Y006611D01*
X021220Y006611D01*
X021282Y006487D02*
X021405Y006611D01*
X021343Y007469D02*
X021096Y007469D01*
X021035Y007530D01*
X021035Y007654D01*
X021096Y007716D01*
X021220Y007716D02*
X021220Y007592D01*
X021220Y007716D02*
X021343Y007716D01*
X021405Y007654D01*
X021405Y007530D01*
X021343Y007469D01*
X020359Y006809D02*
X020359Y006747D01*
X020297Y006685D01*
X020359Y006623D01*
X020359Y006562D01*
X020297Y006500D01*
X020173Y006500D01*
X020112Y006562D01*
X019990Y006562D02*
X019990Y006623D01*
X019928Y006685D01*
X019805Y006685D01*
X019743Y006747D01*
X019743Y006809D01*
X019805Y006870D01*
X019928Y006870D01*
X019990Y006809D01*
X020112Y006809D02*
X020173Y006870D01*
X020297Y006870D01*
X020359Y006809D01*
X020297Y006685D02*
X020235Y006685D01*
X019990Y006562D02*
X019928Y006500D01*
X019805Y006500D01*
X019743Y006562D01*
X019622Y006500D02*
X019622Y006870D01*
X019498Y006747D01*
X019375Y006870D01*
X019375Y006500D01*
X019375Y005890D02*
X019498Y005767D01*
X019622Y005890D01*
X019622Y005520D01*
X019743Y005582D02*
X019805Y005520D01*
X019928Y005520D01*
X019990Y005582D01*
X019990Y005643D01*
X019928Y005705D01*
X019805Y005705D01*
X019743Y005767D01*
X019743Y005829D01*
X019805Y005890D01*
X019928Y005890D01*
X019990Y005829D01*
X020112Y005829D02*
X020173Y005890D01*
X020297Y005890D01*
X020359Y005829D01*
X020359Y005767D01*
X020112Y005520D01*
X020359Y005520D01*
X020235Y004910D02*
X020235Y004540D01*
X020112Y004540D02*
X020359Y004540D01*
X020112Y004787D02*
X020235Y004910D01*
X019990Y004849D02*
X019928Y004910D01*
X019805Y004910D01*
X019743Y004849D01*
X019743Y004787D01*
X019805Y004725D01*
X019928Y004725D01*
X019990Y004663D01*
X019990Y004602D01*
X019928Y004540D01*
X019805Y004540D01*
X019743Y004602D01*
X019622Y004540D02*
X019622Y004910D01*
X019498Y004787D01*
X019375Y004910D01*
X019375Y004540D01*
X019375Y005520D02*
X019375Y005890D01*
D12*
X016375Y002265D02*
X016375Y010175D01*
X010620Y010175D01*
X010620Y002275D01*
X012980Y002275D01*
X012990Y002280D02*
X012992Y002324D01*
X012999Y002368D01*
X013009Y002412D01*
X013022Y002454D01*
X013040Y002495D01*
X013061Y002534D01*
X013085Y002572D01*
X013113Y002607D01*
X013143Y002639D01*
X013176Y002669D01*
X013212Y002696D01*
X013249Y002719D01*
X013289Y002739D01*
X013330Y002756D01*
X013373Y002769D01*
X013416Y002778D01*
X013461Y002783D01*
X013505Y002785D01*
X013549Y002783D01*
X013593Y002776D01*
X013637Y002766D01*
X013679Y002753D01*
X013720Y002735D01*
X013759Y002714D01*
X013797Y002690D01*
X013832Y002662D01*
X013864Y002632D01*
X013894Y002599D01*
X013921Y002563D01*
X013944Y002526D01*
X013964Y002486D01*
X013981Y002445D01*
X013994Y002402D01*
X014003Y002359D01*
X014008Y002314D01*
X014010Y002270D01*
X014005Y002265D02*
X016375Y002265D01*
X010055Y004210D02*
X010055Y004730D01*
X009680Y004730D01*
X009680Y007720D01*
X010055Y007720D01*
X010055Y008230D01*
X007840Y008230D01*
X007840Y004200D01*
X007840Y004210D02*
X010055Y004210D01*
X010055Y004730D02*
X010055Y007720D01*
X012220Y008860D02*
X012745Y008860D01*
X012745Y008855D01*
X012980Y010955D02*
X010605Y010955D01*
X010605Y018845D01*
X016350Y018845D01*
X016350Y010955D01*
X013985Y010955D01*
X013990Y010950D02*
X013989Y010994D01*
X013983Y011038D01*
X013974Y011081D01*
X013962Y011124D01*
X013945Y011165D01*
X013925Y011204D01*
X013902Y011242D01*
X013875Y011278D01*
X013846Y011311D01*
X013813Y011341D01*
X013778Y011368D01*
X013741Y011392D01*
X013702Y011413D01*
X013661Y011430D01*
X013619Y011444D01*
X013576Y011454D01*
X013532Y011460D01*
X013487Y011462D01*
X013443Y011460D01*
X013399Y011455D01*
X013356Y011445D01*
X013314Y011432D01*
X013273Y011415D01*
X013233Y011395D01*
X013196Y011371D01*
X013161Y011344D01*
X013128Y011314D01*
X013098Y011281D01*
X013071Y011246D01*
X013047Y011209D01*
X013027Y011169D01*
X013010Y011128D01*
X012997Y011086D01*
X012987Y011043D01*
X012982Y010999D01*
X012980Y010955D01*
X012985Y010955D01*
X014005Y012305D02*
X014005Y014775D01*
X014945Y014775D01*
X014945Y012305D01*
X014010Y012305D01*
X009970Y012905D02*
X009970Y016900D01*
X007775Y016900D01*
X007775Y012905D01*
X007780Y012905D02*
X009970Y012905D01*
X009975Y013420D02*
X009615Y013420D01*
X009615Y016415D01*
X009980Y016415D01*
X012145Y017575D02*
X012675Y017575D01*
X012675Y017585D01*
X006990Y017560D02*
X006990Y015555D01*
X004790Y015555D01*
X004780Y015555D02*
X004780Y017560D01*
X006990Y017560D01*
X006980Y017050D02*
X006630Y017050D01*
X006630Y016055D01*
X006995Y016055D01*
X004200Y016075D02*
X003830Y016075D01*
X003830Y017075D01*
X004195Y017075D01*
X004195Y015575D01*
X001990Y015575D01*
X001990Y017565D01*
X004195Y017565D01*
X004195Y017075D01*
X003560Y014750D02*
X003560Y011985D01*
X000800Y011985D01*
X000800Y014735D01*
X000795Y014750D02*
X003560Y014750D01*
X003240Y014730D02*
X003240Y012010D01*
X005480Y012850D02*
X005480Y013320D01*
X005485Y013325D01*
X005485Y013320D01*
X005720Y013085D01*
X005720Y012815D01*
X005480Y012850D02*
X005715Y013085D01*
X005720Y013085D02*
X005720Y013370D01*
X007622Y011435D02*
X007624Y011506D01*
X007630Y011577D01*
X007640Y011647D01*
X007654Y011717D01*
X007672Y011786D01*
X007693Y011854D01*
X007719Y011920D01*
X007748Y011985D01*
X007780Y012048D01*
X007816Y012110D01*
X007856Y012169D01*
X007899Y012226D01*
X007945Y012280D01*
X007993Y012332D01*
X008045Y012380D01*
X008099Y012426D01*
X008156Y012469D01*
X008215Y012509D01*
X008277Y012545D01*
X008340Y012577D01*
X008405Y012606D01*
X008471Y012632D01*
X008539Y012653D01*
X008608Y012671D01*
X008678Y012685D01*
X008748Y012695D01*
X008819Y012701D01*
X008890Y012703D01*
X008961Y012701D01*
X009032Y012695D01*
X009102Y012685D01*
X009172Y012671D01*
X009241Y012653D01*
X009309Y012632D01*
X009375Y012606D01*
X009440Y012577D01*
X009503Y012545D01*
X009565Y012509D01*
X009624Y012469D01*
X009681Y012426D01*
X009735Y012380D01*
X009787Y012332D01*
X009835Y012280D01*
X009881Y012226D01*
X009924Y012169D01*
X009964Y012110D01*
X010000Y012048D01*
X010032Y011985D01*
X010061Y011920D01*
X010087Y011854D01*
X010108Y011786D01*
X010126Y011717D01*
X010140Y011647D01*
X010150Y011577D01*
X010156Y011506D01*
X010158Y011435D01*
X010156Y011364D01*
X010150Y011293D01*
X010140Y011223D01*
X010126Y011153D01*
X010108Y011084D01*
X010087Y011016D01*
X010061Y010950D01*
X010032Y010885D01*
X010000Y010822D01*
X009964Y010760D01*
X009924Y010701D01*
X009881Y010644D01*
X009835Y010590D01*
X009787Y010538D01*
X009735Y010490D01*
X009681Y010444D01*
X009624Y010401D01*
X009565Y010361D01*
X009503Y010325D01*
X009440Y010293D01*
X009375Y010264D01*
X009309Y010238D01*
X009241Y010217D01*
X009172Y010199D01*
X009102Y010185D01*
X009032Y010175D01*
X008961Y010169D01*
X008890Y010167D01*
X008819Y010169D01*
X008748Y010175D01*
X008678Y010185D01*
X008608Y010199D01*
X008539Y010217D01*
X008471Y010238D01*
X008405Y010264D01*
X008340Y010293D01*
X008277Y010325D01*
X008215Y010361D01*
X008156Y010401D01*
X008099Y010444D01*
X008045Y010490D01*
X007993Y010538D01*
X007945Y010590D01*
X007899Y010644D01*
X007856Y010701D01*
X007816Y010760D01*
X007780Y010822D01*
X007748Y010885D01*
X007719Y010950D01*
X007693Y011016D01*
X007672Y011084D01*
X007654Y011153D01*
X007640Y011223D01*
X007630Y011293D01*
X007624Y011364D01*
X007622Y011435D01*
X009350Y011685D02*
X009350Y012195D01*
X005675Y005945D02*
X005175Y005945D01*
X004635Y005445D02*
X004637Y005517D01*
X004643Y005588D01*
X004653Y005659D01*
X004667Y005730D01*
X004685Y005799D01*
X004706Y005867D01*
X004731Y005935D01*
X004761Y006000D01*
X004793Y006064D01*
X004829Y006126D01*
X004869Y006186D01*
X004912Y006243D01*
X004958Y006298D01*
X005007Y006351D01*
X005058Y006400D01*
X005113Y006447D01*
X005170Y006491D01*
X005229Y006531D01*
X005290Y006568D01*
X005354Y006602D01*
X005419Y006632D01*
X005486Y006658D01*
X005554Y006680D01*
X005623Y006699D01*
X005693Y006714D01*
X005764Y006725D01*
X005835Y006732D01*
X005907Y006735D01*
X005979Y006734D01*
X006050Y006729D01*
X006121Y006720D01*
X006192Y006707D01*
X006262Y006690D01*
X006330Y006670D01*
X006398Y006645D01*
X006464Y006617D01*
X006528Y006585D01*
X006591Y006550D01*
X006651Y006511D01*
X006709Y006469D01*
X006765Y006424D01*
X006818Y006376D01*
X006868Y006325D01*
X006916Y006271D01*
X006960Y006215D01*
X007001Y006156D01*
X007039Y006095D01*
X007074Y006032D01*
X007104Y005968D01*
X007132Y005901D01*
X007155Y005833D01*
X007175Y005764D01*
X007191Y005694D01*
X007203Y005624D01*
X007211Y005552D01*
X007215Y005481D01*
X007215Y005409D01*
X007211Y005338D01*
X007203Y005266D01*
X007191Y005196D01*
X007175Y005126D01*
X007155Y005057D01*
X007132Y004989D01*
X007104Y004922D01*
X007074Y004858D01*
X007039Y004795D01*
X007001Y004734D01*
X006960Y004675D01*
X006916Y004619D01*
X006868Y004565D01*
X006818Y004514D01*
X006765Y004466D01*
X006709Y004421D01*
X006651Y004379D01*
X006591Y004340D01*
X006528Y004305D01*
X006464Y004273D01*
X006398Y004245D01*
X006330Y004220D01*
X006262Y004200D01*
X006192Y004183D01*
X006121Y004170D01*
X006050Y004161D01*
X005979Y004156D01*
X005907Y004155D01*
X005835Y004158D01*
X005764Y004165D01*
X005693Y004176D01*
X005623Y004191D01*
X005554Y004210D01*
X005486Y004232D01*
X005419Y004258D01*
X005354Y004288D01*
X005290Y004322D01*
X005229Y004359D01*
X005170Y004399D01*
X005113Y004443D01*
X005058Y004490D01*
X005007Y004539D01*
X004958Y004592D01*
X004912Y004647D01*
X004869Y004704D01*
X004829Y004764D01*
X004793Y004826D01*
X004761Y004890D01*
X004731Y004955D01*
X004706Y005023D01*
X004685Y005091D01*
X004667Y005160D01*
X004653Y005231D01*
X004643Y005302D01*
X004637Y005373D01*
X004635Y005445D01*
X003495Y002480D02*
X003495Y002130D01*
X003605Y002020D01*
X003495Y001865D02*
X003495Y001565D01*
X003776Y002050D02*
X003778Y002103D01*
X003784Y002155D01*
X003794Y002207D01*
X003807Y002258D01*
X003825Y002307D01*
X003846Y002355D01*
X003870Y002402D01*
X003898Y002447D01*
X003930Y002489D01*
X003964Y002529D01*
X004001Y002566D01*
X004041Y002600D01*
X004083Y002632D01*
X004128Y002660D01*
X004175Y002684D01*
X004223Y002705D01*
X004272Y002723D01*
X004323Y002736D01*
X004375Y002746D01*
X004427Y002752D01*
X004480Y002754D01*
X004533Y002752D01*
X004585Y002746D01*
X004637Y002736D01*
X004688Y002723D01*
X004737Y002705D01*
X004785Y002684D01*
X004832Y002660D01*
X004877Y002632D01*
X004919Y002600D01*
X004959Y002566D01*
X004996Y002529D01*
X005030Y002489D01*
X005062Y002447D01*
X005090Y002402D01*
X005114Y002355D01*
X005135Y002307D01*
X005153Y002258D01*
X005166Y002207D01*
X005176Y002155D01*
X005182Y002103D01*
X005184Y002050D01*
X005182Y001997D01*
X005176Y001945D01*
X005166Y001893D01*
X005153Y001842D01*
X005135Y001793D01*
X005114Y001745D01*
X005090Y001698D01*
X005062Y001653D01*
X005030Y001611D01*
X004996Y001571D01*
X004959Y001534D01*
X004919Y001500D01*
X004877Y001468D01*
X004832Y001440D01*
X004785Y001416D01*
X004737Y001395D01*
X004688Y001377D01*
X004637Y001364D01*
X004585Y001354D01*
X004533Y001348D01*
X004480Y001346D01*
X004427Y001348D01*
X004375Y001354D01*
X004323Y001364D01*
X004272Y001377D01*
X004223Y001395D01*
X004175Y001416D01*
X004128Y001440D01*
X004083Y001468D01*
X004041Y001500D01*
X004001Y001534D01*
X003964Y001571D01*
X003930Y001611D01*
X003898Y001653D01*
X003870Y001698D01*
X003846Y001745D01*
X003825Y001793D01*
X003807Y001842D01*
X003794Y001893D01*
X003784Y001945D01*
X003778Y001997D01*
X003776Y002050D01*
D13*
X004030Y012135D02*
X004030Y012562D01*
X003816Y012349D02*
X004243Y012349D01*
X004030Y014069D02*
X004030Y014496D01*
M02*
