G75*
%MOIN*%
%OFA0B0*%
%FSLAX24Y24*%
%IPPOS*%
%LPD*%
%AMOC8*
5,1,8,0,0,1.08239X$1,22.5*
%
%ADD10C,0.0600*%
%ADD11C,0.0554*%
%ADD12R,0.0740X0.0740*%
%ADD13C,0.0740*%
%ADD14C,0.1660*%
%ADD15C,0.1620*%
%ADD16C,0.0650*%
%ADD17R,0.0650X0.0650*%
%ADD18R,0.0800X0.0800*%
%ADD19C,0.0800*%
%ADD20R,0.0630X0.0709*%
%ADD21R,0.0472X0.0551*%
%ADD22OC8,0.0600*%
%ADD23C,0.0160*%
%ADD24C,0.0760*%
%ADD25C,0.1000*%
D10*
X008650Y000850D02*
X008650Y001450D01*
X009650Y001450D02*
X009650Y000850D01*
X010650Y000850D02*
X010650Y001450D01*
X011650Y001450D02*
X011650Y000850D01*
X012650Y000850D02*
X012650Y001450D01*
X013650Y001450D02*
X013650Y000850D01*
X015650Y000850D02*
X015650Y001450D01*
X016650Y001450D02*
X016650Y000850D01*
X017650Y000850D02*
X017650Y001450D01*
X018650Y001450D02*
X018650Y000850D01*
X019650Y000850D02*
X019650Y001450D01*
X020650Y001450D02*
X020650Y000850D01*
X020650Y019850D02*
X020650Y020450D01*
X019650Y020450D02*
X019650Y019850D01*
X018650Y019850D02*
X018650Y020450D01*
X017650Y020450D02*
X017650Y019850D01*
X016650Y019850D02*
X016650Y020450D01*
X015650Y020450D02*
X015650Y019850D01*
X014650Y019850D02*
X014650Y020450D01*
X013650Y020450D02*
X013650Y019850D01*
X012050Y019850D02*
X012050Y020450D01*
X011050Y020450D02*
X011050Y019850D01*
X010050Y019850D02*
X010050Y020450D01*
X009050Y020450D02*
X009050Y019850D01*
X008050Y019850D02*
X008050Y020450D01*
X007050Y020450D02*
X007050Y019850D01*
X006050Y019850D02*
X006050Y020450D01*
X005050Y020450D02*
X005050Y019850D01*
D11*
X010980Y018415D03*
X010980Y017415D03*
X010980Y016415D03*
X010980Y015415D03*
X010980Y014415D03*
X010980Y013415D03*
X010980Y012415D03*
X010980Y011415D03*
X010995Y009730D03*
X010995Y008730D03*
X010995Y007730D03*
X010995Y006730D03*
X010995Y005730D03*
X010995Y004730D03*
X010995Y003730D03*
X010995Y002730D03*
X015995Y002730D03*
X015995Y003730D03*
X015995Y004730D03*
X015995Y005730D03*
X015995Y006730D03*
X015995Y007730D03*
X015995Y008730D03*
X015995Y009730D03*
X015980Y011415D03*
X015980Y012415D03*
X015980Y013415D03*
X015980Y014415D03*
X015980Y015415D03*
X015980Y016415D03*
X015980Y017415D03*
X015980Y018415D03*
D12*
X008930Y013415D03*
X005990Y016000D03*
X003195Y016020D03*
X008990Y004725D03*
D13*
X003210Y001155D03*
X003210Y002935D03*
X005770Y002935D03*
X005770Y001155D03*
X009090Y005725D03*
X008990Y006725D03*
X009090Y007725D03*
X014475Y011545D03*
X014475Y015545D03*
X009030Y016415D03*
X008930Y015415D03*
X009030Y014415D03*
X005990Y017100D03*
X003195Y017120D03*
D14*
X006209Y009610D03*
D15*
X004958Y008129D03*
X003326Y009600D03*
D16*
X005430Y005450D03*
X008845Y011935D03*
X012485Y009345D03*
X012485Y008345D03*
X012405Y017075D03*
X012405Y018075D03*
D17*
X008845Y010935D03*
X006430Y005450D03*
D18*
X002140Y012615D03*
D19*
X002140Y014133D03*
D20*
X005069Y014340D03*
X006171Y014340D03*
D21*
X006191Y013090D03*
X005009Y013090D03*
D22*
X017540Y006765D03*
X017540Y005765D03*
X017540Y004765D03*
X018540Y004765D03*
X018540Y005765D03*
X018540Y006765D03*
X018565Y012425D03*
X017565Y012425D03*
X017565Y013425D03*
X017565Y014425D03*
X018565Y014425D03*
X018565Y013425D03*
D23*
X018565Y012425D01*
X019185Y012425D01*
X019635Y011975D01*
X019635Y004180D01*
X019195Y004620D01*
X018705Y004620D01*
X018685Y004620D01*
X018540Y004765D01*
X018540Y004785D02*
X018540Y005765D01*
X018540Y006765D01*
X017540Y006765D02*
X017510Y006735D01*
X017325Y006735D01*
X016220Y005630D01*
X016095Y005630D01*
X015995Y005730D01*
X015995Y004730D02*
X016155Y004730D01*
X017120Y005695D01*
X017470Y005695D01*
X017540Y005765D01*
X017510Y005735D01*
X017540Y004765D02*
X017510Y004735D01*
X017235Y004735D01*
X016230Y003730D01*
X015995Y003730D01*
X015995Y002730D02*
X014995Y002730D01*
X014475Y003250D01*
X014475Y011545D01*
X015850Y011545D01*
X015980Y011415D01*
X015980Y012415D02*
X017555Y012415D01*
X017565Y012425D01*
X017555Y013415D02*
X015980Y013415D01*
X015980Y014415D02*
X017555Y014415D01*
X017565Y014425D01*
X017565Y013425D02*
X017555Y013415D01*
X018565Y013425D02*
X018565Y014425D01*
X015980Y015415D02*
X015980Y016415D01*
X015980Y017415D02*
X016255Y017415D01*
X016670Y017830D01*
X016670Y020130D01*
X016650Y020150D01*
X015980Y018415D02*
X014210Y018415D01*
X013710Y018915D01*
X013710Y020090D01*
X013650Y020150D01*
X012090Y020110D02*
X012090Y019780D01*
X013750Y018120D01*
X013750Y012040D01*
X014245Y011545D01*
X014475Y011545D01*
X011835Y008715D02*
X011010Y008715D01*
X010995Y008730D01*
X011835Y008715D02*
X012205Y008345D01*
X012485Y008345D01*
X012485Y002485D01*
X012080Y002080D01*
X012820Y002080D01*
X013310Y002570D01*
X013310Y016460D01*
X012695Y017075D01*
X012405Y017075D01*
X011980Y017075D01*
X011635Y017420D01*
X010985Y017420D01*
X010980Y017415D01*
X009620Y018585D02*
X010075Y019040D01*
X010075Y020125D01*
X010050Y020150D01*
X009050Y020150D02*
X009050Y019530D01*
X008545Y019025D01*
X004995Y019025D01*
X004410Y018440D01*
X004410Y016735D01*
X003695Y016020D01*
X003195Y016020D01*
X002347Y014340D02*
X002140Y014133D01*
X002347Y014340D02*
X005069Y014340D01*
X006171Y014340D02*
X006191Y014321D01*
X006191Y013090D01*
X005009Y013090D02*
X004534Y012615D01*
X003204Y012615D01*
X005990Y016000D02*
X006560Y016000D01*
X007200Y016640D01*
X007200Y018050D01*
X007735Y018585D01*
X009620Y018585D01*
X012050Y020150D02*
X012090Y020110D01*
X015995Y007730D02*
X015995Y006730D01*
X018540Y004785D02*
X018705Y004620D01*
X019635Y004180D02*
X019635Y002705D01*
X019010Y002080D01*
X012820Y002080D01*
X012080Y002080D02*
X011030Y002080D01*
X010650Y001700D01*
X010650Y001150D01*
X008650Y001150D02*
X005770Y001155D01*
X003210Y001155D01*
D24*
X006430Y004460D02*
X008155Y002735D01*
X010990Y002735D01*
X010995Y002730D01*
X010990Y004725D02*
X008990Y004725D01*
X009090Y005725D02*
X010990Y005725D01*
X010995Y005730D01*
X010995Y004730D02*
X010990Y004725D01*
X010990Y006725D02*
X008990Y006725D01*
X009090Y007725D02*
X010990Y007725D01*
X010995Y007730D01*
X010995Y006730D02*
X010990Y006725D01*
X007520Y009610D02*
X008845Y010935D01*
X009870Y010935D01*
X010290Y011355D01*
X010920Y011355D01*
X010980Y011415D01*
X010980Y013415D02*
X008930Y013415D01*
X009030Y014415D02*
X010980Y014415D01*
X010980Y015415D02*
X008930Y015415D01*
X009030Y016415D02*
X010980Y016415D01*
X007520Y009610D02*
X006209Y009610D01*
X006840Y008979D01*
X006840Y007485D01*
X006430Y007075D01*
X006430Y005450D01*
X006430Y004460D01*
D25*
X006209Y009610D02*
X003204Y012615D01*
X002140Y012615D01*
M02*
