  0
SECTION
  2
HEADER
  9
$ACADVER
  1
AC1014
  9
$HANDSEED
  5
FFFF
  9
$MEASUREMENT
 70
     1
  0
ENDSEC
  0
SECTION
  2
TABLES
  0
TABLE
  2
VPORT
  5
8
330
0
100
AcDbSymbolTable
 70
     4
  0
VPORT
  5
2E
330
8
100
AcDbSymbolTableRecord
100
AcDbViewportTableRecord
  2
*ACTIVE
 70
     0
 10
0.0
 20
0.0
 11
1.0
 21
1.0
 12
210.0
 22
148.5
 13
0.0
 23
0.0
 14
10.0
 24
10.0
 15
10.0
 25
10.0
 16
0.0
 26
0.0
 36
1.0
 17
0.0
 27
0.0
 37
0.0
 40
341.0
 41
1.24
 42
50.0
 43
0.0
 44
0.0
 50
0.0
 51
0.0
 71
     0
 72
   100
 73
     1
 74
     3
 75
     0
 76
     0
 77
     0
 78
     0
  0
ENDTAB
  0
TABLE
  2
LTYPE
  5
5
330
0
100
AcDbSymbolTable
 70
     1
  0
LTYPE
  5
14
330
5
100
AcDbSymbolTableRecord
100
AcDbLinetypeTableRecord
  2
BYBLOCK
 70
     0
  3

 72
    65
 73
     0
 40
0.0
  0
LTYPE
  5
15
330
5
100
AcDbSymbolTableRecord
100
AcDbLinetypeTableRecord
  2
BYLAYER
 70
     0
  3

 72
    65
 73
     0
 40
0.0
  0
LTYPE
  5
16
330
5
100
AcDbSymbolTableRecord
100
AcDbLinetypeTableRecord
  2
CONTINUOUS
 70
     0
  3
Solid line
 72
    65
 73
     0
 40
0.0
  0
ENDTAB
  0
TABLE
  2
LAYER
  5
2
100
AcDbSymbolTable
 70
1
  0
LAYER
  5
50
100
AcDbSymbolTableRecord
100
AcDbLayerTableRecord
  2
0
 70
0
  6
CONTINUOUS
  0
ENDTAB
  0
TABLE
  2
STYLE
  5
3
330
0
100
AcDbSymbolTable
 70
     1
  0
STYLE
  5
11
330
3
100
AcDbSymbolTableRecord
100
AcDbTextStyleTableRecord
  2
STANDARD
 70
     0
 40
0.0
 41
1.0
 50
0.0
 71
     0
 42
2.5
  3
txt
  4

  0
ENDTAB
  0
TABLE
  2
VIEW
  5
6
330
0
100
AcDbSymbolTable
 70
     0
  0
ENDTAB
  0
TABLE
  2
UCS
  5
7
330
0
100
AcDbSymbolTable
 70
     0
  0
ENDTAB
  0
TABLE
  2
APPID
  5
9
330
0
100
AcDbSymbolTable
 70
     2
  0
APPID
  5
12
330
9
100
AcDbSymbolTableRecord
100
AcDbRegAppTableRecord
  2
ACAD
 70
     0
  0
ENDTAB
  0
TABLE
  2
DIMSTYLE
  5
A
330
0
100
AcDbSymbolTable
 70
     1
  0
DIMSTYLE
105
27
330
A
100
AcDbSymbolTableRecord
100
AcDbDimStyleTableRecord
  2
ISO-25
 70
     0
  3

  4

  5

  6

  7

 40
1.0
 41
2.5
 42
0.625
 43
3.75
 44
1.25
 45
0.0
 46
0.0
 47
0.0
 48
0.0
140
2.5
141
2.5
142
0.0
143
0.03937007874016
144
1.0
145
0.0
146
1.0
147
0.625
 71
     0
 72
     0
 73
     0
 74
     0
 75
     0
 76
     0
 77
     1
 78
     8
170
     0
171
     3
172
     1
173
     0
174
     0
175
     0
176
     0
177
     0
178
     0
270
     2
271
     2
272
     2
273
     2
274
     3
340
11
275
     0
280
     0
281
     0
282
     0
283
     0
284
     8
285
     0
286
     0
287
     3
288
     0
  0
ENDTAB
  0
TABLE
  2
BLOCK_RECORD
  5
1
330
0
100
AcDbSymbolTable
 70
     1
  0
BLOCK_RECORD
  5
1F
330
1
100
AcDbSymbolTableRecord
100
AcDbBlockTableRecord
  2
*MODEL_SPACE
  0
BLOCK_RECORD
  5
1B
330
1
100
AcDbSymbolTableRecord
100
AcDbBlockTableRecord
  2
*PAPER_SPACE
  0
ENDTAB
  0
ENDSEC
  0
SECTION
  2
BLOCKS
  0
BLOCK
  5
20
330
1F
100
AcDbEntity
  8
0
100
AcDbBlockBegin
  2
*MODEL_SPACE
 70
     0
 10
0.0
 20
0.0
 30
0.0
  3
*MODEL_SPACE
  1

  0
ENDBLK
  5
21
330
1F
100
AcDbEntity
  8
0
100
AcDbBlockEnd
  0
BLOCK
  5
1C
330
1B
100
AcDbEntity
 67
     1
  8
0
100
AcDbBlockBegin
  2
*PAPER_SPACE
  1

  0
ENDBLK
  5
1D
330
1B
100
AcDbEntity
 67
     1
  8
0
100
AcDbBlockEnd
  0
ENDSEC
  0
SECTION
  2
ENTITIES
  0
SPLINE
  5
100
100
AcDbEntity
  8
0
 62
7
100
AcDbSpline
 70
8
 71
3
 72
8
 73
4
 74
0
 40
0
 40
0
 40
0
 40
0
 40
1
 40
1
 40
1
 40
1
 10
-75.225000
 20
-197.432055
 30
0.0
 10
-75.225000
 20
-196.717523
 30
0.0
 10
-75.606198
 20
-196.057269
 30
0.0
 10
-76.225000
 20
-195.700004
 30
0.0
  0
SPLINE
  5
101
100
AcDbEntity
  8
0
 62
7
100
AcDbSpline
 70
8
 71
3
 72
8
 73
4
 74
0
 40
0
 40
0
 40
0
 40
0
 40
1
 40
1
 40
1
 40
1
 10
-76.225000
 20
-195.700004
 30
0.0
 10
-76.843802
 20
-195.342738
 30
0.0
 10
-77.606198
 20
-195.342738
 30
0.0
 10
-78.225000
 20
-195.700004
 30
0.0
  0
SPLINE
  5
102
100
AcDbEntity
  8
0
 62
7
100
AcDbSpline
 70
8
 71
3
 72
8
 73
4
 74
0
 40
0
 40
0
 40
0
 40
0
 40
1
 40
1
 40
1
 40
1
 10
-78.225000
 20
-195.700004
 30
0.0
 10
-78.843802
 20
-196.057269
 30
0.0
 10
-79.225000
 20
-196.717523
 30
0.0
 10
-79.225000
 20
-197.432055
 30
0.0
  0
SPLINE
  5
103
100
AcDbEntity
  8
0
 62
7
100
AcDbSpline
 70
8
 71
3
 72
8
 73
4
 74
0
 40
0
 40
0
 40
0
 40
0
 40
1
 40
1
 40
1
 40
1
 10
-79.225000
 20
-197.432055
 30
0.0
 10
-79.225000
 20
-198.146586
 30
0.0
 10
-78.843802
 20
-198.806840
 30
0.0
 10
-78.225000
 20
-199.164106
 30
0.0
  0
SPLINE
  5
104
100
AcDbEntity
  8
0
 62
7
100
AcDbSpline
 70
8
 71
3
 72
8
 73
4
 74
0
 40
0
 40
0
 40
0
 40
0
 40
1
 40
1
 40
1
 40
1
 10
-78.225000
 20
-199.164106
 30
0.0
 10
-77.606198
 20
-199.521371
 30
0.0
 10
-76.843802
 20
-199.521371
 30
0.0
 10
-76.225000
 20
-199.164106
 30
0.0
  0
SPLINE
  5
105
100
AcDbEntity
  8
0
 62
7
100
AcDbSpline
 70
8
 71
3
 72
8
 73
4
 74
0
 40
0
 40
0
 40
0
 40
0
 40
1
 40
1
 40
1
 40
1
 10
-76.225000
 20
-199.164106
 30
0.0
 10
-75.606198
 20
-198.806840
 30
0.0
 10
-75.225000
 20
-198.146586
 30
0.0
 10
-75.225000
 20
-197.432055
 30
0.0
  0
SPLINE
  5
106
100
AcDbEntity
  8
0
 62
7
100
AcDbSpline
 70
8
 71
3
 72
8
 73
4
 74
0
 40
0
 40
0
 40
0
 40
0
 40
1
 40
1
 40
1
 40
1
 10
64.775000
 20
-197.432055
 30
0.0
 10
64.775000
 20
-196.717523
 30
0.0
 10
64.393802
 20
-196.057269
 30
0.0
 10
63.775000
 20
-195.700004
 30
0.0
  0
SPLINE
  5
107
100
AcDbEntity
  8
0
 62
7
100
AcDbSpline
 70
8
 71
3
 72
8
 73
4
 74
0
 40
0
 40
0
 40
0
 40
0
 40
1
 40
1
 40
1
 40
1
 10
63.775000
 20
-195.700004
 30
0.0
 10
63.156198
 20
-195.342738
 30
0.0
 10
62.393802
 20
-195.342738
 30
0.0
 10
61.775000
 20
-195.700004
 30
0.0
  0
SPLINE
  5
108
100
AcDbEntity
  8
0
 62
7
100
AcDbSpline
 70
8
 71
3
 72
8
 73
4
 74
0
 40
0
 40
0
 40
0
 40
0
 40
1
 40
1
 40
1
 40
1
 10
61.775000
 20
-195.700004
 30
0.0
 10
61.156198
 20
-196.057269
 30
0.0
 10
60.775000
 20
-196.717523
 30
0.0
 10
60.775000
 20
-197.432055
 30
0.0
  0
SPLINE
  5
109
100
AcDbEntity
  8
0
 62
7
100
AcDbSpline
 70
8
 71
3
 72
8
 73
4
 74
0
 40
0
 40
0
 40
0
 40
0
 40
1
 40
1
 40
1
 40
1
 10
60.775000
 20
-197.432055
 30
0.0
 10
60.775000
 20
-198.146586
 30
0.0
 10
61.156198
 20
-198.806840
 30
0.0
 10
61.775000
 20
-199.164105
 30
0.0
  0
SPLINE
  5
10a
100
AcDbEntity
  8
0
 62
7
100
AcDbSpline
 70
8
 71
3
 72
8
 73
4
 74
0
 40
0
 40
0
 40
0
 40
0
 40
1
 40
1
 40
1
 40
1
 10
61.775000
 20
-199.164105
 30
0.0
 10
62.393802
 20
-199.521371
 30
0.0
 10
63.156198
 20
-199.521371
 30
0.0
 10
63.775000
 20
-199.164105
 30
0.0
  0
SPLINE
  5
10b
100
AcDbEntity
  8
0
 62
7
100
AcDbSpline
 70
8
 71
3
 72
8
 73
4
 74
0
 40
0
 40
0
 40
0
 40
0
 40
1
 40
1
 40
1
 40
1
 10
63.775000
 20
-199.164105
 30
0.0
 10
64.393802
 20
-198.806840
 30
0.0
 10
64.775000
 20
-198.146586
 30
0.0
 10
64.775000
 20
-197.432055
 30
0.0
  0
LWPOLYLINE
  5
10c
100
AcDbEntity
  8
0
 62
7
100
AcDbPolyline
 90
2
 70
0
 10
-75.225000
 20
-197.432055
 30
0.0
 10
-75.225000
 20
-197.432055
 30
0.0
  0
SPLINE
  5
10d
100
AcDbEntity
  8
0
 62
7
100
AcDbSpline
 70
8
 71
3
 72
8
 73
4
 74
0
 40
0
 40
0
 40
0
 40
0
 40
1
 40
1
 40
1
 40
1
 10
9.500000
 20
-115.300000
 30
0.0
 10
9.500000
 20
-114.585469
 30
0.0
 10
9.118802
 20
-113.925215
 30
0.0
 10
8.500000
 20
-113.567949
 30
0.0
  0
SPLINE
  5
10e
100
AcDbEntity
  8
0
 62
7
100
AcDbSpline
 70
8
 71
3
 72
8
 73
4
 74
0
 40
0
 40
0
 40
0
 40
0
 40
1
 40
1
 40
1
 40
1
 10
8.500000
 20
-113.567949
 30
0.0
 10
7.881198
 20
-113.210684
 30
0.0
 10
7.118802
 20
-113.210684
 30
0.0
 10
6.500000
 20
-113.567949
 30
0.0
  0
SPLINE
  5
10f
100
AcDbEntity
  8
0
 62
7
100
AcDbSpline
 70
8
 71
3
 72
8
 73
4
 74
0
 40
0
 40
0
 40
0
 40
0
 40
1
 40
1
 40
1
 40
1
 10
6.500000
 20
-113.567949
 30
0.0
 10
5.881198
 20
-113.925215
 30
0.0
 10
5.500000
 20
-114.585469
 30
0.0
 10
5.500000
 20
-115.300000
 30
0.0
  0
SPLINE
  5
110
100
AcDbEntity
  8
0
 62
7
100
AcDbSpline
 70
8
 71
3
 72
8
 73
4
 74
0
 40
0
 40
0
 40
0
 40
0
 40
1
 40
1
 40
1
 40
1
 10
5.500000
 20
-115.300000
 30
0.0
 10
5.500000
 20
-116.014531
 30
0.0
 10
5.881198
 20
-116.674785
 30
0.0
 10
6.500000
 20
-117.032051
 30
0.0
  0
SPLINE
  5
111
100
AcDbEntity
  8
0
 62
7
100
AcDbSpline
 70
8
 71
3
 72
8
 73
4
 74
0
 40
0
 40
0
 40
0
 40
0
 40
1
 40
1
 40
1
 40
1
 10
6.500000
 20
-117.032051
 30
0.0
 10
7.118802
 20
-117.389316
 30
0.0
 10
7.881198
 20
-117.389316
 30
0.0
 10
8.500000
 20
-117.032051
 30
0.0
  0
SPLINE
  5
112
100
AcDbEntity
  8
0
 62
7
100
AcDbSpline
 70
8
 71
3
 72
8
 73
4
 74
0
 40
0
 40
0
 40
0
 40
0
 40
1
 40
1
 40
1
 40
1
 10
8.500000
 20
-117.032051
 30
0.0
 10
9.118802
 20
-116.674785
 30
0.0
 10
9.500000
 20
-116.014531
 30
0.0
 10
9.500000
 20
-115.300000
 30
0.0
  0
LWPOLYLINE
  5
113
100
AcDbEntity
  8
0
 62
7
100
AcDbPolyline
 90
2
 70
0
 10
64.775000
 20
-197.432055
 30
0.0
 10
64.775000
 20
-197.432055
 30
0.0
  0
LWPOLYLINE
  5
114
100
AcDbEntity
  8
0
 62
7
100
AcDbPolyline
 90
2
 70
0
 10
9.500000
 20
-115.300000
 30
0.0
 10
9.500000
 20
-115.300000
 30
0.0
  0
SPLINE
  5
115
100
AcDbEntity
  8
0
 62
7
100
AcDbSpline
 70
8
 71
3
 72
8
 73
4
 74
0
 40
0
 40
0
 40
0
 40
0
 40
1
 40
1
 40
1
 40
1
 10
54.983625
 20
-147.914500
 30
0.0
 10
54.983857
 20
-147.378446
 30
0.0
 10
54.698010
 20
-146.883013
 30
0.0
 10
54.233813
 20
-146.614919
 30
0.0
  0
SPLINE
  5
116
100
AcDbEntity
  8
0
 62
7
100
AcDbSpline
 70
8
 71
3
 72
8
 73
4
 74
0
 40
0
 40
0
 40
0
 40
0
 40
1
 40
1
 40
1
 40
1
 10
54.233813
 20
-146.614919
 30
0.0
 10
53.769615
 20
-146.346826
 30
0.0
 10
53.197634
 20
-146.346826
 30
0.0
 10
52.733437
 20
-146.614919
 30
0.0
  0
SPLINE
  5
117
100
AcDbEntity
  8
0
 62
7
100
AcDbSpline
 70
8
 71
3
 72
8
 73
4
 74
0
 40
0
 40
0
 40
0
 40
0
 40
1
 40
1
 40
1
 40
1
 10
52.733437
 20
-146.614919
 30
0.0
 10
52.269240
 20
-146.883013
 30
0.0
 10
51.983392
 20
-147.378446
 30
0.0
 10
51.983625
 20
-147.914500
 30
0.0
  0
SPLINE
  5
118
100
AcDbEntity
  8
0
 62
7
100
AcDbSpline
 70
8
 71
3
 72
8
 73
4
 74
0
 40
0
 40
0
 40
0
 40
0
 40
1
 40
1
 40
1
 40
1
 10
51.983625
 20
-147.914500
 30
0.0
 10
51.983392
 20
-148.450553
 30
0.0
 10
52.269240
 20
-148.945986
 30
0.0
 10
52.733437
 20
-149.214080
 30
0.0
  0
SPLINE
  5
119
100
AcDbEntity
  8
0
 62
7
100
AcDbSpline
 70
8
 71
3
 72
8
 73
4
 74
0
 40
0
 40
0
 40
0
 40
0
 40
1
 40
1
 40
1
 40
1
 10
52.733437
 20
-149.214080
 30
0.0
 10
53.197634
 20
-149.482174
 30
0.0
 10
53.769615
 20
-149.482174
 30
0.0
 10
54.233813
 20
-149.214080
 30
0.0
  0
SPLINE
  5
11a
100
AcDbEntity
  8
0
 62
7
100
AcDbSpline
 70
8
 71
3
 72
8
 73
4
 74
0
 40
0
 40
0
 40
0
 40
0
 40
1
 40
1
 40
1
 40
1
 10
54.233813
 20
-149.214080
 30
0.0
 10
54.698010
 20
-148.945986
 30
0.0
 10
54.983857
 20
-148.450553
 30
0.0
 10
54.983625
 20
-147.914500
 30
0.0
  0
LWPOLYLINE
  5
11b
100
AcDbEntity
  8
0
 62
7
100
AcDbPolyline
 90
7
 70
0
 10
-84.900000
 20
-204.932055
 30
0.0
 10
182.900000
 20
-204.932055
 30
0.0
 10
182.900000
 20
-143.315048
 30
0.0
 10
84.900000
 20
1.210069
 30
0.0
 10
84.900000
 20
110.300000
 30
0.0
 10
-84.900000
 20
110.300000
 30
0.0
 10
-84.900000
 20
-204.932055
 30
0.0
  0
SPLINE
  5
11c
100
AcDbEntity
  8
0
 62
7
100
AcDbSpline
 70
8
 71
3
 72
8
 73
4
 74
0
 40
0
 40
0
 40
0
 40
0
 40
1
 40
1
 40
1
 40
1
 10
164.983625
 20
-147.914500
 30
0.0
 10
164.983857
 20
-147.378446
 30
0.0
 10
164.698010
 20
-146.883013
 30
0.0
 10
164.233813
 20
-146.614919
 30
0.0
  0
SPLINE
  5
11d
100
AcDbEntity
  8
0
 62
7
100
AcDbSpline
 70
8
 71
3
 72
8
 73
4
 74
0
 40
0
 40
0
 40
0
 40
0
 40
1
 40
1
 40
1
 40
1
 10
164.233813
 20
-146.614919
 30
0.0
 10
163.769616
 20
-146.346826
 30
0.0
 10
163.197634
 20
-146.346826
 30
0.0
 10
162.733437
 20
-146.614919
 30
0.0
  0
SPLINE
  5
11e
100
AcDbEntity
  8
0
 62
7
100
AcDbSpline
 70
8
 71
3
 72
8
 73
4
 74
0
 40
0
 40
0
 40
0
 40
0
 40
1
 40
1
 40
1
 40
1
 10
162.733437
 20
-146.614919
 30
0.0
 10
162.269240
 20
-146.883013
 30
0.0
 10
161.983392
 20
-147.378446
 30
0.0
 10
161.983625
 20
-147.914500
 30
0.0
  0
SPLINE
  5
11f
100
AcDbEntity
  8
0
 62
7
100
AcDbSpline
 70
8
 71
3
 72
8
 73
4
 74
0
 40
0
 40
0
 40
0
 40
0
 40
1
 40
1
 40
1
 40
1
 10
161.983625
 20
-147.914500
 30
0.0
 10
161.983392
 20
-148.450553
 30
0.0
 10
162.269240
 20
-148.945986
 30
0.0
 10
162.733437
 20
-149.214080
 30
0.0
  0
SPLINE
  5
120
100
AcDbEntity
  8
0
 62
7
100
AcDbSpline
 70
8
 71
3
 72
8
 73
4
 74
0
 40
0
 40
0
 40
0
 40
0
 40
1
 40
1
 40
1
 40
1
 10
162.733437
 20
-149.214080
 30
0.0
 10
163.197634
 20
-149.482174
 30
0.0
 10
163.769616
 20
-149.482174
 30
0.0
 10
164.233813
 20
-149.214080
 30
0.0
  0
SPLINE
  5
121
100
AcDbEntity
  8
0
 62
7
100
AcDbSpline
 70
8
 71
3
 72
8
 73
4
 74
0
 40
0
 40
0
 40
0
 40
0
 40
1
 40
1
 40
1
 40
1
 10
164.233813
 20
-149.214080
 30
0.0
 10
164.698010
 20
-148.945986
 30
0.0
 10
164.983857
 20
-148.450553
 30
0.0
 10
164.983625
 20
-147.914500
 30
0.0
  0
LWPOLYLINE
  5
122
100
AcDbEntity
  8
0
 62
7
100
AcDbPolyline
 90
2
 70
0
 10
54.983625
 20
-147.914500
 30
0.0
 10
54.983625
 20
-147.914500
 30
0.0
  0
SPLINE
  5
123
100
AcDbEntity
  8
0
 62
7
100
AcDbSpline
 70
8
 71
3
 72
8
 73
4
 74
0
 40
0
 40
0
 40
0
 40
0
 40
1
 40
1
 40
1
 40
1
 10
109.983625
 20
-66.803465
 30
0.0
 10
109.983857
 20
-66.267411
 30
0.0
 10
109.698010
 20
-65.771978
 30
0.0
 10
109.233813
 20
-65.503884
 30
0.0
  0
SPLINE
  5
124
100
AcDbEntity
  8
0
 62
7
100
AcDbSpline
 70
8
 71
3
 72
8
 73
4
 74
0
 40
0
 40
0
 40
0
 40
0
 40
1
 40
1
 40
1
 40
1
 10
109.233813
 20
-65.503884
 30
0.0
 10
108.769616
 20
-65.235791
 30
0.0
 10
108.197634
 20
-65.235791
 30
0.0
 10
107.733437
 20
-65.503884
 30
0.0
  0
SPLINE
  5
125
100
AcDbEntity
  8
0
 62
7
100
AcDbSpline
 70
8
 71
3
 72
8
 73
4
 74
0
 40
0
 40
0
 40
0
 40
0
 40
1
 40
1
 40
1
 40
1
 10
107.733437
 20
-65.503884
 30
0.0
 10
107.269240
 20
-65.771978
 30
0.0
 10
106.983392
 20
-66.267411
 30
0.0
 10
106.983625
 20
-66.803465
 30
0.0
  0
SPLINE
  5
126
100
AcDbEntity
  8
0
 62
7
100
AcDbSpline
 70
8
 71
3
 72
8
 73
4
 74
0
 40
0
 40
0
 40
0
 40
0
 40
1
 40
1
 40
1
 40
1
 10
106.983625
 20
-66.803465
 30
0.0
 10
106.983392
 20
-67.339518
 30
0.0
 10
107.269240
 20
-67.834951
 30
0.0
 10
107.733437
 20
-68.103045
 30
0.0
  0
SPLINE
  5
127
100
AcDbEntity
  8
0
 62
7
100
AcDbSpline
 70
8
 71
3
 72
8
 73
4
 74
0
 40
0
 40
0
 40
0
 40
0
 40
1
 40
1
 40
1
 40
1
 10
107.733437
 20
-68.103045
 30
0.0
 10
108.197634
 20
-68.371139
 30
0.0
 10
108.769616
 20
-68.371139
 30
0.0
 10
109.233813
 20
-68.103045
 30
0.0
  0
SPLINE
  5
128
100
AcDbEntity
  8
0
 62
7
100
AcDbSpline
 70
8
 71
3
 72
8
 73
4
 74
0
 40
0
 40
0
 40
0
 40
0
 40
1
 40
1
 40
1
 40
1
 10
109.233813
 20
-68.103045
 30
0.0
 10
109.698010
 20
-67.834951
 30
0.0
 10
109.983857
 20
-67.339518
 30
0.0
 10
109.983625
 20
-66.803465
 30
0.0
  0
LWPOLYLINE
  5
129
100
AcDbEntity
  8
0
 62
7
100
AcDbPolyline
 90
2
 70
0
 10
164.983625
 20
-147.914500
 30
0.0
 10
164.983625
 20
-147.914500
 30
0.0
  0
SPLINE
  5
12a
100
AcDbEntity
  8
0
 62
7
100
AcDbSpline
 70
8
 71
3
 72
8
 73
4
 74
0
 40
0
 40
0
 40
0
 40
0
 40
1
 40
1
 40
1
 40
1
 10
55.566812
 20
-141.912767
 30
0.0
 10
55.567045
 20
-141.376714
 30
0.0
 10
55.281197
 20
-140.881281
 30
0.0
 10
54.817000
 20
-140.613187
 30
0.0
  0
SPLINE
  5
12b
100
AcDbEntity
  8
0
 62
7
100
AcDbSpline
 70
8
 71
3
 72
8
 73
4
 74
0
 40
0
 40
0
 40
0
 40
0
 40
1
 40
1
 40
1
 40
1
 10
54.817000
 20
-140.613187
 30
0.0
 10
54.352803
 20
-140.345093
 30
0.0
 10
53.780822
 20
-140.345093
 30
0.0
 10
53.316625
 20
-140.613187
 30
0.0
  0
SPLINE
  5
12c
100
AcDbEntity
  8
0
 62
7
100
AcDbSpline
 70
8
 71
3
 72
8
 73
4
 74
0
 40
0
 40
0
 40
0
 40
0
 40
1
 40
1
 40
1
 40
1
 10
53.316625
 20
-140.613187
 30
0.0
 10
52.852427
 20
-140.881281
 30
0.0
 10
52.566580
 20
-141.376714
 30
0.0
 10
52.566812
 20
-141.912767
 30
0.0
  0
SPLINE
  5
12d
100
AcDbEntity
  8
0
 62
7
100
AcDbSpline
 70
8
 71
3
 72
8
 73
4
 74
0
 40
0
 40
0
 40
0
 40
0
 40
1
 40
1
 40
1
 40
1
 10
52.566812
 20
-141.912767
 30
0.0
 10
52.566580
 20
-142.448821
 30
0.0
 10
52.852427
 20
-142.944254
 30
0.0
 10
53.316625
 20
-143.212348
 30
0.0
  0
SPLINE
  5
12e
100
AcDbEntity
  8
0
 62
7
100
AcDbSpline
 70
8
 71
3
 72
8
 73
4
 74
0
 40
0
 40
0
 40
0
 40
0
 40
1
 40
1
 40
1
 40
1
 10
53.316625
 20
-143.212348
 30
0.0
 10
53.780822
 20
-143.480442
 30
0.0
 10
54.352803
 20
-143.480442
 30
0.0
 10
54.817000
 20
-143.212348
 30
0.0
  0
SPLINE
  5
12f
100
AcDbEntity
  8
0
 62
7
100
AcDbSpline
 70
8
 71
3
 72
8
 73
4
 74
0
 40
0
 40
0
 40
0
 40
0
 40
1
 40
1
 40
1
 40
1
 10
54.817000
 20
-143.212348
 30
0.0
 10
55.281197
 20
-142.944254
 30
0.0
 10
55.567045
 20
-142.448821
 30
0.0
 10
55.566812
 20
-141.912767
 30
0.0
  0
LWPOLYLINE
  5
130
100
AcDbEntity
  8
0
 62
7
100
AcDbPolyline
 90
2
 70
0
 10
109.983625
 20
-66.803465
 30
0.0
 10
109.983625
 20
-66.803465
 30
0.0
  0
SPLINE
  5
131
100
AcDbEntity
  8
0
 62
7
100
AcDbSpline
 70
8
 71
3
 72
8
 73
4
 74
0
 40
0
 40
0
 40
0
 40
0
 40
1
 40
1
 40
1
 40
1
 10
165.566812
 20
-141.912767
 30
0.0
 10
165.566812
 20
-141.376869
 30
0.0
 10
165.280914
 20
-140.881678
 30
0.0
 10
164.816812
 20
-140.613729
 30
0.0
  0
SPLINE
  5
132
100
AcDbEntity
  8
0
 62
7
100
AcDbSpline
 70
8
 71
3
 72
8
 73
4
 74
0
 40
0
 40
0
 40
0
 40
0
 40
1
 40
1
 40
1
 40
1
 10
164.816812
 20
-140.613729
 30
0.0
 10
164.352711
 20
-140.345780
 30
0.0
 10
163.780914
 20
-140.345780
 30
0.0
 10
163.316812
 20
-140.613729
 30
0.0
  0
SPLINE
  5
133
100
AcDbEntity
  8
0
 62
7
100
AcDbSpline
 70
8
 71
3
 72
8
 73
4
 74
0
 40
0
 40
0
 40
0
 40
0
 40
1
 40
1
 40
1
 40
1
 10
163.316812
 20
-140.613729
 30
0.0
 10
162.852711
 20
-140.881678
 30
0.0
 10
162.566812
 20
-141.376869
 30
0.0
 10
162.566812
 20
-141.912767
 30
0.0
  0
SPLINE
  5
134
100
AcDbEntity
  8
0
 62
7
100
AcDbSpline
 70
8
 71
3
 72
8
 73
4
 74
0
 40
0
 40
0
 40
0
 40
0
 40
1
 40
1
 40
1
 40
1
 10
162.566812
 20
-141.912767
 30
0.0
 10
162.566812
 20
-142.448666
 30
0.0
 10
162.852711
 20
-142.943856
 30
0.0
 10
163.316812
 20
-143.211806
 30
0.0
  0
SPLINE
  5
135
100
AcDbEntity
  8
0
 62
7
100
AcDbSpline
 70
8
 71
3
 72
8
 73
4
 74
0
 40
0
 40
0
 40
0
 40
0
 40
1
 40
1
 40
1
 40
1
 10
163.316812
 20
-143.211806
 30
0.0
 10
163.780914
 20
-143.479755
 30
0.0
 10
164.352711
 20
-143.479755
 30
0.0
 10
164.816812
 20
-143.211806
 30
0.0
  0
SPLINE
  5
136
100
AcDbEntity
  8
0
 62
7
100
AcDbSpline
 70
8
 71
3
 72
8
 73
4
 74
0
 40
0
 40
0
 40
0
 40
0
 40
1
 40
1
 40
1
 40
1
 10
164.816812
 20
-143.211806
 30
0.0
 10
165.280914
 20
-142.943856
 30
0.0
 10
165.566812
 20
-142.448666
 30
0.0
 10
165.566812
 20
-141.912767
 30
0.0
  0
LWPOLYLINE
  5
137
100
AcDbEntity
  8
0
 62
7
100
AcDbPolyline
 90
2
 70
0
 10
55.566812
 20
-141.912767
 30
0.0
 10
55.566812
 20
-141.912767
 30
0.0
  0
SPLINE
  5
138
100
AcDbEntity
  8
0
 62
7
100
AcDbSpline
 70
8
 71
3
 72
8
 73
4
 74
0
 40
0
 40
0
 40
0
 40
0
 40
1
 40
1
 40
1
 40
1
 10
110.566812
 20
-60.801732
 30
0.0
 10
110.567045
 20
-60.265679
 30
0.0
 10
110.281197
 20
-59.770246
 30
0.0
 10
109.817000
 20
-59.502152
 30
0.0
  0
SPLINE
  5
139
100
AcDbEntity
  8
0
 62
7
100
AcDbSpline
 70
8
 71
3
 72
8
 73
4
 74
0
 40
0
 40
0
 40
0
 40
0
 40
1
 40
1
 40
1
 40
1
 10
109.817000
 20
-59.502152
 30
0.0
 10
109.352803
 20
-59.234058
 30
0.0
 10
108.780822
 20
-59.234058
 30
0.0
 10
108.316625
 20
-59.502152
 30
0.0
  0
SPLINE
  5
13a
100
AcDbEntity
  8
0
 62
7
100
AcDbSpline
 70
8
 71
3
 72
8
 73
4
 74
0
 40
0
 40
0
 40
0
 40
0
 40
1
 40
1
 40
1
 40
1
 10
108.316625
 20
-59.502152
 30
0.0
 10
107.852427
 20
-59.770246
 30
0.0
 10
107.566580
 20
-60.265679
 30
0.0
 10
107.566812
 20
-60.801732
 30
0.0
  0
SPLINE
  5
13b
100
AcDbEntity
  8
0
 62
7
100
AcDbSpline
 70
8
 71
3
 72
8
 73
4
 74
0
 40
0
 40
0
 40
0
 40
0
 40
1
 40
1
 40
1
 40
1
 10
107.566812
 20
-60.801732
 30
0.0
 10
107.566580
 20
-61.337786
 30
0.0
 10
107.852427
 20
-61.833219
 30
0.0
 10
108.316625
 20
-62.101313
 30
0.0
  0
SPLINE
  5
13c
100
AcDbEntity
  8
0
 62
7
100
AcDbSpline
 70
8
 71
3
 72
8
 73
4
 74
0
 40
0
 40
0
 40
0
 40
0
 40
1
 40
1
 40
1
 40
1
 10
108.316625
 20
-62.101313
 30
0.0
 10
108.780822
 20
-62.369407
 30
0.0
 10
109.352803
 20
-62.369407
 30
0.0
 10
109.817000
 20
-62.101313
 30
0.0
  0
SPLINE
  5
13d
100
AcDbEntity
  8
0
 62
7
100
AcDbSpline
 70
8
 71
3
 72
8
 73
4
 74
0
 40
0
 40
0
 40
0
 40
0
 40
1
 40
1
 40
1
 40
1
 10
109.817000
 20
-62.101313
 30
0.0
 10
110.281197
 20
-61.833219
 30
0.0
 10
110.567045
 20
-61.337786
 30
0.0
 10
110.566812
 20
-60.801732
 30
0.0
  0
LWPOLYLINE
  5
13e
100
AcDbEntity
  8
0
 62
7
100
AcDbPolyline
 90
2
 70
0
 10
165.566812
 20
-141.912767
 30
0.0
 10
165.566812
 20
-141.912767
 30
0.0
  0
SPLINE
  5
13f
100
AcDbEntity
  8
0
 62
7
100
AcDbSpline
 70
8
 71
3
 72
8
 73
4
 74
0
 40
0
 40
0
 40
0
 40
0
 40
1
 40
1
 40
1
 40
1
 10
-14.000000
 20
47.150000
 30
0.0
 10
-13.999767
 20
47.686053
 30
0.0
 10
-14.285615
 20
48.181486
 30
0.0
 10
-14.749812
 20
48.449580
 30
0.0
  0
SPLINE
  5
140
100
AcDbEntity
  8
0
 62
7
100
AcDbSpline
 70
8
 71
3
 72
8
 73
4
 74
0
 40
0
 40
0
 40
0
 40
0
 40
1
 40
1
 40
1
 40
1
 10
-14.749812
 20
48.449580
 30
0.0
 10
-15.214009
 20
48.717674
 30
0.0
 10
-15.785991
 20
48.717674
 30
0.0
 10
-16.250188
 20
48.449580
 30
0.0
  0
SPLINE
  5
141
100
AcDbEntity
  8
0
 62
7
100
AcDbSpline
 70
8
 71
3
 72
8
 73
4
 74
0
 40
0
 40
0
 40
0
 40
0
 40
1
 40
1
 40
1
 40
1
 10
-16.250188
 20
48.449580
 30
0.0
 10
-16.714385
 20
48.181486
 30
0.0
 10
-17.000232
 20
47.686053
 30
0.0
 10
-17.000000
 20
47.150000
 30
0.0
  0
SPLINE
  5
142
100
AcDbEntity
  8
0
 62
7
100
AcDbSpline
 70
8
 71
3
 72
8
 73
4
 74
0
 40
0
 40
0
 40
0
 40
0
 40
1
 40
1
 40
1
 40
1
 10
-17.000000
 20
47.150000
 30
0.0
 10
-17.000232
 20
46.613947
 30
0.0
 10
-16.714385
 20
46.118513
 30
0.0
 10
-16.250188
 20
45.850420
 30
0.0
  0
SPLINE
  5
143
100
AcDbEntity
  8
0
 62
7
100
AcDbSpline
 70
8
 71
3
 72
8
 73
4
 74
0
 40
0
 40
0
 40
0
 40
0
 40
1
 40
1
 40
1
 40
1
 10
-16.250188
 20
45.850420
 30
0.0
 10
-15.785991
 20
45.582326
 30
0.0
 10
-15.214009
 20
45.582326
 30
0.0
 10
-14.749812
 20
45.850420
 30
0.0
  0
SPLINE
  5
144
100
AcDbEntity
  8
0
 62
7
100
AcDbSpline
 70
8
 71
3
 72
8
 73
4
 74
0
 40
0
 40
0
 40
0
 40
0
 40
1
 40
1
 40
1
 40
1
 10
-14.749812
 20
45.850420
 30
0.0
 10
-14.285615
 20
46.118513
 30
0.0
 10
-13.999767
 20
46.613947
 30
0.0
 10
-14.000000
 20
47.150000
 30
0.0
  0
LWPOLYLINE
  5
145
100
AcDbEntity
  8
0
 62
7
100
AcDbPolyline
 90
2
 70
0
 10
110.566812
 20
-60.801732
 30
0.0
 10
110.566812
 20
-60.801732
 30
0.0
  0
SPLINE
  5
146
100
AcDbEntity
  8
0
 62
7
100
AcDbSpline
 70
8
 71
3
 72
8
 73
4
 74
0
 40
0
 40
0
 40
0
 40
0
 40
1
 40
1
 40
1
 40
1
 10
17.000000
 20
47.150000
 30
0.0
 10
17.000232
 20
47.686053
 30
0.0
 10
16.714385
 20
48.181486
 30
0.0
 10
16.250188
 20
48.449580
 30
0.0
  0
SPLINE
  5
147
100
AcDbEntity
  8
0
 62
7
100
AcDbSpline
 70
8
 71
3
 72
8
 73
4
 74
0
 40
0
 40
0
 40
0
 40
0
 40
1
 40
1
 40
1
 40
1
 10
16.250188
 20
48.449580
 30
0.0
 10
15.785991
 20
48.717674
 30
0.0
 10
15.214009
 20
48.717674
 30
0.0
 10
14.749812
 20
48.449580
 30
0.0
  0
SPLINE
  5
148
100
AcDbEntity
  8
0
 62
7
100
AcDbSpline
 70
8
 71
3
 72
8
 73
4
 74
0
 40
0
 40
0
 40
0
 40
0
 40
1
 40
1
 40
1
 40
1
 10
14.749812
 20
48.449580
 30
0.0
 10
14.285615
 20
48.181486
 30
0.0
 10
13.999767
 20
47.686053
 30
0.0
 10
14.000000
 20
47.150000
 30
0.0
  0
SPLINE
  5
149
100
AcDbEntity
  8
0
 62
7
100
AcDbSpline
 70
8
 71
3
 72
8
 73
4
 74
0
 40
0
 40
0
 40
0
 40
0
 40
1
 40
1
 40
1
 40
1
 10
14.000000
 20
47.150000
 30
0.0
 10
13.999767
 20
46.613947
 30
0.0
 10
14.285615
 20
46.118513
 30
0.0
 10
14.749812
 20
45.850420
 30
0.0
  0
SPLINE
  5
14a
100
AcDbEntity
  8
0
 62
7
100
AcDbSpline
 70
8
 71
3
 72
8
 73
4
 74
0
 40
0
 40
0
 40
0
 40
0
 40
1
 40
1
 40
1
 40
1
 10
14.749812
 20
45.850420
 30
0.0
 10
15.214009
 20
45.582326
 30
0.0
 10
15.785991
 20
45.582326
 30
0.0
 10
16.250188
 20
45.850420
 30
0.0
  0
SPLINE
  5
14b
100
AcDbEntity
  8
0
 62
7
100
AcDbSpline
 70
8
 71
3
 72
8
 73
4
 74
0
 40
0
 40
0
 40
0
 40
0
 40
1
 40
1
 40
1
 40
1
 10
16.250188
 20
45.850420
 30
0.0
 10
16.714385
 20
46.118513
 30
0.0
 10
17.000232
 20
46.613947
 30
0.0
 10
17.000000
 20
47.150000
 30
0.0
  0
LWPOLYLINE
  5
14c
100
AcDbEntity
  8
0
 62
7
100
AcDbPolyline
 90
2
 70
0
 10
-14.000000
 20
47.150000
 30
0.0
 10
-14.000000
 20
47.150000
 30
0.0
  0
SPLINE
  5
14d
100
AcDbEntity
  8
0
 62
7
100
AcDbSpline
 70
8
 71
3
 72
8
 73
4
 74
0
 40
0
 40
0
 40
0
 40
0
 40
1
 40
1
 40
1
 40
1
 10
17.000000
 20
78.150000
 30
0.0
 10
17.000232
 20
78.686053
 30
0.0
 10
16.714385
 20
79.181487
 30
0.0
 10
16.250188
 20
79.449580
 30
0.0
  0
SPLINE
  5
14e
100
AcDbEntity
  8
0
 62
7
100
AcDbSpline
 70
8
 71
3
 72
8
 73
4
 74
0
 40
0
 40
0
 40
0
 40
0
 40
1
 40
1
 40
1
 40
1
 10
16.250188
 20
79.449580
 30
0.0
 10
15.785991
 20
79.717674
 30
0.0
 10
15.214009
 20
79.717674
 30
0.0
 10
14.749812
 20
79.449580
 30
0.0
  0
SPLINE
  5
14f
100
AcDbEntity
  8
0
 62
7
100
AcDbSpline
 70
8
 71
3
 72
8
 73
4
 74
0
 40
0
 40
0
 40
0
 40
0
 40
1
 40
1
 40
1
 40
1
 10
14.749812
 20
79.449580
 30
0.0
 10
14.285615
 20
79.181487
 30
0.0
 10
13.999767
 20
78.686053
 30
0.0
 10
14.000000
 20
78.150000
 30
0.0
  0
SPLINE
  5
150
100
AcDbEntity
  8
0
 62
7
100
AcDbSpline
 70
8
 71
3
 72
8
 73
4
 74
0
 40
0
 40
0
 40
0
 40
0
 40
1
 40
1
 40
1
 40
1
 10
14.000000
 20
78.150000
 30
0.0
 10
13.999767
 20
77.613947
 30
0.0
 10
14.285615
 20
77.118513
 30
0.0
 10
14.749812
 20
76.850420
 30
0.0
  0
SPLINE
  5
151
100
AcDbEntity
  8
0
 62
7
100
AcDbSpline
 70
8
 71
3
 72
8
 73
4
 74
0
 40
0
 40
0
 40
0
 40
0
 40
1
 40
1
 40
1
 40
1
 10
14.749812
 20
76.850420
 30
0.0
 10
15.214009
 20
76.582326
 30
0.0
 10
15.785991
 20
76.582326
 30
0.0
 10
16.250188
 20
76.850420
 30
0.0
  0
SPLINE
  5
152
100
AcDbEntity
  8
0
 62
7
100
AcDbSpline
 70
8
 71
3
 72
8
 73
4
 74
0
 40
0
 40
0
 40
0
 40
0
 40
1
 40
1
 40
1
 40
1
 10
16.250188
 20
76.850420
 30
0.0
 10
16.714385
 20
77.118513
 30
0.0
 10
17.000232
 20
77.613947
 30
0.0
 10
17.000000
 20
78.150000
 30
0.0
  0
LWPOLYLINE
  5
153
100
AcDbEntity
  8
0
 62
7
100
AcDbPolyline
 90
2
 70
0
 10
17.000000
 20
47.150000
 30
0.0
 10
17.000000
 20
47.150000
 30
0.0
  0
SPLINE
  5
154
100
AcDbEntity
  8
0
 62
7
100
AcDbSpline
 70
8
 71
3
 72
8
 73
4
 74
0
 40
0
 40
0
 40
0
 40
0
 40
1
 40
1
 40
1
 40
1
 10
-14.000000
 20
78.150000
 30
0.0
 10
-13.999767
 20
78.686053
 30
0.0
 10
-14.285615
 20
79.181487
 30
0.0
 10
-14.749812
 20
79.449580
 30
0.0
  0
SPLINE
  5
155
100
AcDbEntity
  8
0
 62
7
100
AcDbSpline
 70
8
 71
3
 72
8
 73
4
 74
0
 40
0
 40
0
 40
0
 40
0
 40
1
 40
1
 40
1
 40
1
 10
-14.749812
 20
79.449580
 30
0.0
 10
-15.214009
 20
79.717674
 30
0.0
 10
-15.785991
 20
79.717674
 30
0.0
 10
-16.250188
 20
79.449580
 30
0.0
  0
SPLINE
  5
156
100
AcDbEntity
  8
0
 62
7
100
AcDbSpline
 70
8
 71
3
 72
8
 73
4
 74
0
 40
0
 40
0
 40
0
 40
0
 40
1
 40
1
 40
1
 40
1
 10
-16.250188
 20
79.449580
 30
0.0
 10
-16.714385
 20
79.181487
 30
0.0
 10
-17.000232
 20
78.686053
 30
0.0
 10
-17.000000
 20
78.150000
 30
0.0
  0
SPLINE
  5
157
100
AcDbEntity
  8
0
 62
7
100
AcDbSpline
 70
8
 71
3
 72
8
 73
4
 74
0
 40
0
 40
0
 40
0
 40
0
 40
1
 40
1
 40
1
 40
1
 10
-17.000000
 20
78.150000
 30
0.0
 10
-17.000232
 20
77.613947
 30
0.0
 10
-16.714385
 20
77.118513
 30
0.0
 10
-16.250188
 20
76.850420
 30
0.0
  0
SPLINE
  5
158
100
AcDbEntity
  8
0
 62
7
100
AcDbSpline
 70
8
 71
3
 72
8
 73
4
 74
0
 40
0
 40
0
 40
0
 40
0
 40
1
 40
1
 40
1
 40
1
 10
-16.250188
 20
76.850420
 30
0.0
 10
-15.785991
 20
76.582326
 30
0.0
 10
-15.214009
 20
76.582326
 30
0.0
 10
-14.749812
 20
76.850420
 30
0.0
  0
SPLINE
  5
159
100
AcDbEntity
  8
0
 62
7
100
AcDbSpline
 70
8
 71
3
 72
8
 73
4
 74
0
 40
0
 40
0
 40
0
 40
0
 40
1
 40
1
 40
1
 40
1
 10
-14.749812
 20
76.850420
 30
0.0
 10
-14.285615
 20
77.118513
 30
0.0
 10
-13.999767
 20
77.613947
 30
0.0
 10
-14.000000
 20
78.150000
 30
0.0
  0
LWPOLYLINE
  5
15a
100
AcDbEntity
  8
0
 62
7
100
AcDbPolyline
 90
2
 70
0
 10
17.000000
 20
78.150000
 30
0.0
 10
17.000000
 20
78.150000
 30
0.0
  0
SPLINE
  5
15b
100
AcDbEntity
  8
0
 62
7
100
AcDbSpline
 70
8
 71
3
 72
8
 73
4
 74
0
 40
0
 40
0
 40
0
 40
0
 40
1
 40
1
 40
1
 40
1
 10
56.150000
 20
-135.911035
 30
0.0
 10
56.150233
 20
-135.374982
 30
0.0
 10
55.864385
 20
-134.879548
 30
0.0
 10
55.400188
 20
-134.611455
 30
0.0
  0
SPLINE
  5
15c
100
AcDbEntity
  8
0
 62
7
100
AcDbSpline
 70
8
 71
3
 72
8
 73
4
 74
0
 40
0
 40
0
 40
0
 40
0
 40
1
 40
1
 40
1
 40
1
 10
55.400188
 20
-134.611455
 30
0.0
 10
54.935991
 20
-134.343361
 30
0.0
 10
54.364009
 20
-134.343361
 30
0.0
 10
53.899812
 20
-134.611455
 30
0.0
  0
SPLINE
  5
15d
100
AcDbEntity
  8
0
 62
7
100
AcDbSpline
 70
8
 71
3
 72
8
 73
4
 74
0
 40
0
 40
0
 40
0
 40
0
 40
1
 40
1
 40
1
 40
1
 10
53.899812
 20
-134.611455
 30
0.0
 10
53.435615
 20
-134.879548
 30
0.0
 10
53.149768
 20
-135.374982
 30
0.0
 10
53.150000
 20
-135.911035
 30
0.0
  0
SPLINE
  5
15e
100
AcDbEntity
  8
0
 62
7
100
AcDbSpline
 70
8
 71
3
 72
8
 73
4
 74
0
 40
0
 40
0
 40
0
 40
0
 40
1
 40
1
 40
1
 40
1
 10
53.150000
 20
-135.911035
 30
0.0
 10
53.149768
 20
-136.447088
 30
0.0
 10
53.435615
 20
-136.942522
 30
0.0
 10
53.899812
 20
-137.210615
 30
0.0
  0
SPLINE
  5
15f
100
AcDbEntity
  8
0
 62
7
100
AcDbSpline
 70
8
 71
3
 72
8
 73
4
 74
0
 40
0
 40
0
 40
0
 40
0
 40
1
 40
1
 40
1
 40
1
 10
53.899812
 20
-137.210615
 30
0.0
 10
54.364009
 20
-137.478709
 30
0.0
 10
54.935991
 20
-137.478709
 30
0.0
 10
55.400188
 20
-137.210615
 30
0.0
  0
SPLINE
  5
160
100
AcDbEntity
  8
0
 62
7
100
AcDbSpline
 70
8
 71
3
 72
8
 73
4
 74
0
 40
0
 40
0
 40
0
 40
0
 40
1
 40
1
 40
1
 40
1
 10
55.400188
 20
-137.210615
 30
0.0
 10
55.864385
 20
-136.942522
 30
0.0
 10
56.150233
 20
-136.447088
 30
0.0
 10
56.150000
 20
-135.911035
 30
0.0
  0
LWPOLYLINE
  5
161
100
AcDbEntity
  8
0
 62
7
100
AcDbPolyline
 90
2
 70
0
 10
-14.000000
 20
78.150000
 30
0.0
 10
-14.000000
 20
78.150000
 30
0.0
  0
SPLINE
  5
162
100
AcDbEntity
  8
0
 62
7
100
AcDbSpline
 70
8
 71
3
 72
8
 73
4
 74
0
 40
0
 40
0
 40
0
 40
0
 40
1
 40
1
 40
1
 40
1
 10
166.150000
 20
-135.911035
 30
0.0
 10
166.150232
 20
-135.374982
 30
0.0
 10
165.864385
 20
-134.879548
 30
0.0
 10
165.400188
 20
-134.611455
 30
0.0
  0
SPLINE
  5
163
100
AcDbEntity
  8
0
 62
7
100
AcDbSpline
 70
8
 71
3
 72
8
 73
4
 74
0
 40
0
 40
0
 40
0
 40
0
 40
1
 40
1
 40
1
 40
1
 10
165.400188
 20
-134.611455
 30
0.0
 10
164.935991
 20
-134.343361
 30
0.0
 10
164.364009
 20
-134.343361
 30
0.0
 10
163.899812
 20
-134.611455
 30
0.0
  0
SPLINE
  5
164
100
AcDbEntity
  8
0
 62
7
100
AcDbSpline
 70
8
 71
3
 72
8
 73
4
 74
0
 40
0
 40
0
 40
0
 40
0
 40
1
 40
1
 40
1
 40
1
 10
163.899812
 20
-134.611455
 30
0.0
 10
163.435615
 20
-134.879548
 30
0.0
 10
163.149767
 20
-135.374982
 30
0.0
 10
163.150000
 20
-135.911035
 30
0.0
  0
SPLINE
  5
165
100
AcDbEntity
  8
0
 62
7
100
AcDbSpline
 70
8
 71
3
 72
8
 73
4
 74
0
 40
0
 40
0
 40
0
 40
0
 40
1
 40
1
 40
1
 40
1
 10
163.150000
 20
-135.911035
 30
0.0
 10
163.149767
 20
-136.447088
 30
0.0
 10
163.435615
 20
-136.942522
 30
0.0
 10
163.899812
 20
-137.210615
 30
0.0
  0
SPLINE
  5
166
100
AcDbEntity
  8
0
 62
7
100
AcDbSpline
 70
8
 71
3
 72
8
 73
4
 74
0
 40
0
 40
0
 40
0
 40
0
 40
1
 40
1
 40
1
 40
1
 10
163.899812
 20
-137.210615
 30
0.0
 10
164.364009
 20
-137.478709
 30
0.0
 10
164.935991
 20
-137.478709
 30
0.0
 10
165.400188
 20
-137.210615
 30
0.0
  0
SPLINE
  5
167
100
AcDbEntity
  8
0
 62
7
100
AcDbSpline
 70
8
 71
3
 72
8
 73
4
 74
0
 40
0
 40
0
 40
0
 40
0
 40
1
 40
1
 40
1
 40
1
 10
165.400188
 20
-137.210615
 30
0.0
 10
165.864385
 20
-136.942522
 30
0.0
 10
166.150232
 20
-136.447088
 30
0.0
 10
166.150000
 20
-135.911035
 30
0.0
  0
LWPOLYLINE
  5
168
100
AcDbEntity
  8
0
 62
7
100
AcDbPolyline
 90
2
 70
0
 10
56.150000
 20
-135.911035
 30
0.0
 10
56.150000
 20
-135.911035
 30
0.0
  0
SPLINE
  5
169
100
AcDbEntity
  8
0
 62
7
100
AcDbSpline
 70
8
 71
3
 72
8
 73
4
 74
0
 40
0
 40
0
 40
0
 40
0
 40
1
 40
1
 40
1
 40
1
 10
111.150000
 20
-54.800000
 30
0.0
 10
111.150000
 20
-54.264102
 30
0.0
 10
110.864102
 20
-53.768911
 30
0.0
 10
110.400000
 20
-53.500962
 30
0.0
  0
SPLINE
  5
16a
100
AcDbEntity
  8
0
 62
7
100
AcDbSpline
 70
8
 71
3
 72
8
 73
4
 74
0
 40
0
 40
0
 40
0
 40
0
 40
1
 40
1
 40
1
 40
1
 10
110.400000
 20
-53.500962
 30
0.0
 10
109.935898
 20
-53.233013
 30
0.0
 10
109.364102
 20
-53.233013
 30
0.0
 10
108.900000
 20
-53.500962
 30
0.0
  0
SPLINE
  5
16b
100
AcDbEntity
  8
0
 62
7
100
AcDbSpline
 70
8
 71
3
 72
8
 73
4
 74
0
 40
0
 40
0
 40
0
 40
0
 40
1
 40
1
 40
1
 40
1
 10
108.900000
 20
-53.500962
 30
0.0
 10
108.435898
 20
-53.768911
 30
0.0
 10
108.150000
 20
-54.264102
 30
0.0
 10
108.150000
 20
-54.800000
 30
0.0
  0
SPLINE
  5
16c
100
AcDbEntity
  8
0
 62
7
100
AcDbSpline
 70
8
 71
3
 72
8
 73
4
 74
0
 40
0
 40
0
 40
0
 40
0
 40
1
 40
1
 40
1
 40
1
 10
108.150000
 20
-54.800000
 30
0.0
 10
108.150000
 20
-55.335898
 30
0.0
 10
108.435898
 20
-55.831089
 30
0.0
 10
108.900000
 20
-56.099038
 30
0.0
  0
SPLINE
  5
16d
100
AcDbEntity
  8
0
 62
7
100
AcDbSpline
 70
8
 71
3
 72
8
 73
4
 74
0
 40
0
 40
0
 40
0
 40
0
 40
1
 40
1
 40
1
 40
1
 10
108.900000
 20
-56.099038
 30
0.0
 10
109.364102
 20
-56.366987
 30
0.0
 10
109.935898
 20
-56.366987
 30
0.0
 10
110.400000
 20
-56.099038
 30
0.0
  0
SPLINE
  5
16e
100
AcDbEntity
  8
0
 62
7
100
AcDbSpline
 70
8
 71
3
 72
8
 73
4
 74
0
 40
0
 40
0
 40
0
 40
0
 40
1
 40
1
 40
1
 40
1
 10
110.400000
 20
-56.099038
 30
0.0
 10
110.864102
 20
-55.831089
 30
0.0
 10
111.150000
 20
-55.335898
 30
0.0
 10
111.150000
 20
-54.800000
 30
0.0
  0
LWPOLYLINE
  5
16f
100
AcDbEntity
  8
0
 62
7
100
AcDbPolyline
 90
2
 70
0
 10
166.150000
 20
-135.911035
 30
0.0
 10
166.150000
 20
-135.911035
 30
0.0
  0
SPLINE
  5
170
100
AcDbEntity
  8
0
 62
7
100
AcDbSpline
 70
8
 71
3
 72
8
 73
4
 74
0
 40
0
 40
0
 40
0
 40
0
 40
1
 40
1
 40
1
 40
1
 10
71.025000
 20
-23.800000
 30
0.0
 10
71.025000
 20
-22.862178
 30
0.0
 10
70.524678
 20
-21.995594
 30
0.0
 10
69.712500
 20
-21.526683
 30
0.0
  0
SPLINE
  5
171
100
AcDbEntity
  8
0
 62
7
100
AcDbSpline
 70
8
 71
3
 72
8
 73
4
 74
0
 40
0
 40
0
 40
0
 40
0
 40
1
 40
1
 40
1
 40
1
 10
69.712500
 20
-21.526683
 30
0.0
 10
68.900322
 20
-21.057772
 30
0.0
 10
67.899678
 20
-21.057772
 30
0.0
 10
67.087500
 20
-21.526683
 30
0.0
  0
SPLINE
  5
172
100
AcDbEntity
  8
0
 62
7
100
AcDbSpline
 70
8
 71
3
 72
8
 73
4
 74
0
 40
0
 40
0
 40
0
 40
0
 40
1
 40
1
 40
1
 40
1
 10
67.087500
 20
-21.526683
 30
0.0
 10
66.275322
 20
-21.995594
 30
0.0
 10
65.775000
 20
-22.862178
 30
0.0
 10
65.775000
 20
-23.800000
 30
0.0
  0
SPLINE
  5
173
100
AcDbEntity
  8
0
 62
7
100
AcDbSpline
 70
8
 71
3
 72
8
 73
4
 74
0
 40
0
 40
0
 40
0
 40
0
 40
1
 40
1
 40
1
 40
1
 10
65.775000
 20
-23.800000
 30
0.0
 10
65.775000
 20
-24.737822
 30
0.0
 10
66.275322
 20
-25.604405
 30
0.0
 10
67.087500
 20
-26.073317
 30
0.0
  0
SPLINE
  5
174
100
AcDbEntity
  8
0
 62
7
100
AcDbSpline
 70
8
 71
3
 72
8
 73
4
 74
0
 40
0
 40
0
 40
0
 40
0
 40
1
 40
1
 40
1
 40
1
 10
67.087500
 20
-26.073317
 30
0.0
 10
67.899678
 20
-26.542228
 30
0.0
 10
68.900322
 20
-26.542228
 30
0.0
 10
69.712500
 20
-26.073317
 30
0.0
  0
SPLINE
  5
175
100
AcDbEntity
  8
0
 62
7
100
AcDbSpline
 70
8
 71
3
 72
8
 73
4
 74
0
 40
0
 40
0
 40
0
 40
0
 40
1
 40
1
 40
1
 40
1
 10
69.712500
 20
-26.073317
 30
0.0
 10
70.524678
 20
-25.604405
 30
0.0
 10
71.025000
 20
-24.737822
 30
0.0
 10
71.025000
 20
-23.800000
 30
0.0
  0
LWPOLYLINE
  5
176
100
AcDbEntity
  8
0
 62
7
100
AcDbPolyline
 90
2
 70
0
 10
111.150000
 20
-54.800000
 30
0.0
 10
111.150000
 20
-54.800000
 30
0.0
  0
SPLINE
  5
177
100
AcDbEntity
  8
0
 62
7
100
AcDbSpline
 70
8
 71
3
 72
8
 73
4
 74
0
 40
0
 40
0
 40
0
 40
0
 40
1
 40
1
 40
1
 40
1
 10
-65.775000
 20
-23.800000
 30
0.0
 10
-65.775000
 20
-22.862178
 30
0.0
 10
-66.275322
 20
-21.995594
 30
0.0
 10
-67.087500
 20
-21.526683
 30
0.0
  0
SPLINE
  5
178
100
AcDbEntity
  8
0
 62
7
100
AcDbSpline
 70
8
 71
3
 72
8
 73
4
 74
0
 40
0
 40
0
 40
0
 40
0
 40
1
 40
1
 40
1
 40
1
 10
-67.087500
 20
-21.526683
 30
0.0
 10
-67.899678
 20
-21.057772
 30
0.0
 10
-68.900322
 20
-21.057772
 30
0.0
 10
-69.712500
 20
-21.526683
 30
0.0
  0
SPLINE
  5
179
100
AcDbEntity
  8
0
 62
7
100
AcDbSpline
 70
8
 71
3
 72
8
 73
4
 74
0
 40
0
 40
0
 40
0
 40
0
 40
1
 40
1
 40
1
 40
1
 10
-69.712500
 20
-21.526683
 30
0.0
 10
-70.524678
 20
-21.995594
 30
0.0
 10
-71.025000
 20
-22.862178
 30
0.0
 10
-71.025000
 20
-23.800000
 30
0.0
  0
SPLINE
  5
17a
100
AcDbEntity
  8
0
 62
7
100
AcDbSpline
 70
8
 71
3
 72
8
 73
4
 74
0
 40
0
 40
0
 40
0
 40
0
 40
1
 40
1
 40
1
 40
1
 10
-71.025000
 20
-23.800000
 30
0.0
 10
-71.025000
 20
-24.737822
 30
0.0
 10
-70.524678
 20
-25.604406
 30
0.0
 10
-69.712500
 20
-26.073317
 30
0.0
  0
SPLINE
  5
17b
100
AcDbEntity
  8
0
 62
7
100
AcDbSpline
 70
8
 71
3
 72
8
 73
4
 74
0
 40
0
 40
0
 40
0
 40
0
 40
1
 40
1
 40
1
 40
1
 10
-69.712500
 20
-26.073317
 30
0.0
 10
-68.900322
 20
-26.542228
 30
0.0
 10
-67.899678
 20
-26.542228
 30
0.0
 10
-67.087500
 20
-26.073317
 30
0.0
  0
SPLINE
  5
17c
100
AcDbEntity
  8
0
 62
7
100
AcDbSpline
 70
8
 71
3
 72
8
 73
4
 74
0
 40
0
 40
0
 40
0
 40
0
 40
1
 40
1
 40
1
 40
1
 10
-67.087500
 20
-26.073317
 30
0.0
 10
-66.275322
 20
-25.604406
 30
0.0
 10
-65.775000
 20
-24.737822
 30
0.0
 10
-65.775000
 20
-23.800000
 30
0.0
  0
LWPOLYLINE
  5
17d
100
AcDbEntity
  8
0
 62
7
100
AcDbPolyline
 90
2
 70
0
 10
71.025000
 20
-23.800000
 30
0.0
 10
71.025000
 20
-23.800000
 30
0.0
  0
SPLINE
  5
17e
100
AcDbEntity
  8
0
 62
7
100
AcDbSpline
 70
8
 71
3
 72
8
 73
4
 74
0
 40
0
 40
0
 40
0
 40
0
 40
1
 40
1
 40
1
 40
1
 10
-34.075000
 20
47.150000
 30
0.0
 10
-34.075000
 20
47.891326
 30
0.0
 10
-34.470493
 20
48.576340
 30
0.0
 10
-35.112500
 20
48.947003
 30
0.0
  0
SPLINE
  5
17f
100
AcDbEntity
  8
0
 62
7
100
AcDbSpline
 70
8
 71
3
 72
8
 73
4
 74
0
 40
0
 40
0
 40
0
 40
0
 40
1
 40
1
 40
1
 40
1
 10
-35.112500
 20
48.947003
 30
0.0
 10
-35.754507
 20
49.317666
 30
0.0
 10
-36.545493
 20
49.317666
 30
0.0
 10
-37.187500
 20
48.947003
 30
0.0
  0
SPLINE
  5
180
100
AcDbEntity
  8
0
 62
7
100
AcDbSpline
 70
8
 71
3
 72
8
 73
4
 74
0
 40
0
 40
0
 40
0
 40
0
 40
1
 40
1
 40
1
 40
1
 10
-37.187500
 20
48.947003
 30
0.0
 10
-37.829507
 20
48.576340
 30
0.0
 10
-38.225000
 20
47.891326
 30
0.0
 10
-38.225000
 20
47.150000
 30
0.0
  0
SPLINE
  5
181
100
AcDbEntity
  8
0
 62
7
100
AcDbSpline
 70
8
 71
3
 72
8
 73
4
 74
0
 40
0
 40
0
 40
0
 40
0
 40
1
 40
1
 40
1
 40
1
 10
-38.225000
 20
47.150000
 30
0.0
 10
-38.225000
 20
46.408674
 30
0.0
 10
-37.829507
 20
45.723660
 30
0.0
 10
-37.187500
 20
45.352997
 30
0.0
  0
SPLINE
  5
182
100
AcDbEntity
  8
0
 62
7
100
AcDbSpline
 70
8
 71
3
 72
8
 73
4
 74
0
 40
0
 40
0
 40
0
 40
0
 40
1
 40
1
 40
1
 40
1
 10
-37.187500
 20
45.352997
 30
0.0
 10
-36.545493
 20
44.982334
 30
0.0
 10
-35.754507
 20
44.982334
 30
0.0
 10
-35.112500
 20
45.352997
 30
0.0
  0
SPLINE
  5
183
100
AcDbEntity
  8
0
 62
7
100
AcDbSpline
 70
8
 71
3
 72
8
 73
4
 74
0
 40
0
 40
0
 40
0
 40
0
 40
1
 40
1
 40
1
 40
1
 10
-35.112500
 20
45.352997
 30
0.0
 10
-34.470493
 20
45.723660
 30
0.0
 10
-34.075000
 20
46.408674
 30
0.0
 10
-34.075000
 20
47.150000
 30
0.0
  0
LWPOLYLINE
  5
184
100
AcDbEntity
  8
0
 62
7
100
AcDbPolyline
 90
2
 70
0
 10
-65.775000
 20
-23.800000
 30
0.0
 10
-65.775000
 20
-23.800000
 30
0.0
  0
SPLINE
  5
185
100
AcDbEntity
  8
0
 62
7
100
AcDbSpline
 70
8
 71
3
 72
8
 73
4
 74
0
 40
0
 40
0
 40
0
 40
0
 40
1
 40
1
 40
1
 40
1
 10
-34.075000
 20
78.150000
 30
0.0
 10
-34.075000
 20
78.891326
 30
0.0
 10
-34.470493
 20
79.576340
 30
0.0
 10
-35.112500
 20
79.947003
 30
0.0
  0
SPLINE
  5
186
100
AcDbEntity
  8
0
 62
7
100
AcDbSpline
 70
8
 71
3
 72
8
 73
4
 74
0
 40
0
 40
0
 40
0
 40
0
 40
1
 40
1
 40
1
 40
1
 10
-35.112500
 20
79.947003
 30
0.0
 10
-35.754507
 20
80.317666
 30
0.0
 10
-36.545493
 20
80.317666
 30
0.0
 10
-37.187500
 20
79.947003
 30
0.0
  0
SPLINE
  5
187
100
AcDbEntity
  8
0
 62
7
100
AcDbSpline
 70
8
 71
3
 72
8
 73
4
 74
0
 40
0
 40
0
 40
0
 40
0
 40
1
 40
1
 40
1
 40
1
 10
-37.187500
 20
79.947003
 30
0.0
 10
-37.829507
 20
79.576340
 30
0.0
 10
-38.225000
 20
78.891326
 30
0.0
 10
-38.225000
 20
78.150000
 30
0.0
  0
SPLINE
  5
188
100
AcDbEntity
  8
0
 62
7
100
AcDbSpline
 70
8
 71
3
 72
8
 73
4
 74
0
 40
0
 40
0
 40
0
 40
0
 40
1
 40
1
 40
1
 40
1
 10
-38.225000
 20
78.150000
 30
0.0
 10
-38.225000
 20
77.408674
 30
0.0
 10
-37.829507
 20
76.723660
 30
0.0
 10
-37.187500
 20
76.352997
 30
0.0
  0
SPLINE
  5
189
100
AcDbEntity
  8
0
 62
7
100
AcDbSpline
 70
8
 71
3
 72
8
 73
4
 74
0
 40
0
 40
0
 40
0
 40
0
 40
1
 40
1
 40
1
 40
1
 10
-37.187500
 20
76.352997
 30
0.0
 10
-36.545493
 20
75.982334
 30
0.0
 10
-35.754507
 20
75.982334
 30
0.0
 10
-35.112500
 20
76.352997
 30
0.0
  0
SPLINE
  5
18a
100
AcDbEntity
  8
0
 62
7
100
AcDbSpline
 70
8
 71
3
 72
8
 73
4
 74
0
 40
0
 40
0
 40
0
 40
0
 40
1
 40
1
 40
1
 40
1
 10
-35.112500
 20
76.352997
 30
0.0
 10
-34.470493
 20
76.723660
 30
0.0
 10
-34.075000
 20
77.408674
 30
0.0
 10
-34.075000
 20
78.150000
 30
0.0
  0
LWPOLYLINE
  5
18b
100
AcDbEntity
  8
0
 62
7
100
AcDbPolyline
 90
2
 70
0
 10
-34.075000
 20
47.150000
 30
0.0
 10
-34.075000
 20
47.150000
 30
0.0
  0
SPLINE
  5
18c
100
AcDbEntity
  8
0
 62
7
100
AcDbSpline
 70
8
 71
3
 72
8
 73
4
 74
0
 40
0
 40
0
 40
0
 40
0
 40
1
 40
1
 40
1
 40
1
 10
38.225000
 20
78.150000
 30
0.0
 10
38.225000
 20
78.891326
 30
0.0
 10
37.829507
 20
79.576340
 30
0.0
 10
37.187500
 20
79.947003
 30
0.0
  0
SPLINE
  5
18d
100
AcDbEntity
  8
0
 62
7
100
AcDbSpline
 70
8
 71
3
 72
8
 73
4
 74
0
 40
0
 40
0
 40
0
 40
0
 40
1
 40
1
 40
1
 40
1
 10
37.187500
 20
79.947003
 30
0.0
 10
36.545493
 20
80.317666
 30
0.0
 10
35.754507
 20
80.317666
 30
0.0
 10
35.112500
 20
79.947003
 30
0.0
  0
SPLINE
  5
18e
100
AcDbEntity
  8
0
 62
7
100
AcDbSpline
 70
8
 71
3
 72
8
 73
4
 74
0
 40
0
 40
0
 40
0
 40
0
 40
1
 40
1
 40
1
 40
1
 10
35.112500
 20
79.947003
 30
0.0
 10
34.470493
 20
79.576340
 30
0.0
 10
34.075000
 20
78.891326
 30
0.0
 10
34.075000
 20
78.150000
 30
0.0
  0
SPLINE
  5
18f
100
AcDbEntity
  8
0
 62
7
100
AcDbSpline
 70
8
 71
3
 72
8
 73
4
 74
0
 40
0
 40
0
 40
0
 40
0
 40
1
 40
1
 40
1
 40
1
 10
34.075000
 20
78.150000
 30
0.0
 10
34.075000
 20
77.408674
 30
0.0
 10
34.470493
 20
76.723660
 30
0.0
 10
35.112500
 20
76.352997
 30
0.0
  0
SPLINE
  5
190
100
AcDbEntity
  8
0
 62
7
100
AcDbSpline
 70
8
 71
3
 72
8
 73
4
 74
0
 40
0
 40
0
 40
0
 40
0
 40
1
 40
1
 40
1
 40
1
 10
35.112500
 20
76.352997
 30
0.0
 10
35.754507
 20
75.982334
 30
0.0
 10
36.545493
 20
75.982334
 30
0.0
 10
37.187500
 20
76.352997
 30
0.0
  0
SPLINE
  5
191
100
AcDbEntity
  8
0
 62
7
100
AcDbSpline
 70
8
 71
3
 72
8
 73
4
 74
0
 40
0
 40
0
 40
0
 40
0
 40
1
 40
1
 40
1
 40
1
 10
37.187500
 20
76.352997
 30
0.0
 10
37.829507
 20
76.723660
 30
0.0
 10
38.225000
 20
77.408674
 30
0.0
 10
38.225000
 20
78.150000
 30
0.0
  0
LWPOLYLINE
  5
192
100
AcDbEntity
  8
0
 62
7
100
AcDbPolyline
 90
2
 70
0
 10
-34.075000
 20
78.150000
 30
0.0
 10
-34.075000
 20
78.150000
 30
0.0
  0
SPLINE
  5
193
100
AcDbEntity
  8
0
 62
7
100
AcDbSpline
 70
8
 71
3
 72
8
 73
4
 74
0
 40
0
 40
0
 40
0
 40
0
 40
1
 40
1
 40
1
 40
1
 10
38.225000
 20
47.150000
 30
0.0
 10
38.225000
 20
47.891326
 30
0.0
 10
37.829507
 20
48.576340
 30
0.0
 10
37.187500
 20
48.947003
 30
0.0
  0
SPLINE
  5
194
100
AcDbEntity
  8
0
 62
7
100
AcDbSpline
 70
8
 71
3
 72
8
 73
4
 74
0
 40
0
 40
0
 40
0
 40
0
 40
1
 40
1
 40
1
 40
1
 10
37.187500
 20
48.947003
 30
0.0
 10
36.545493
 20
49.317666
 30
0.0
 10
35.754507
 20
49.317666
 30
0.0
 10
35.112500
 20
48.947003
 30
0.0
  0
SPLINE
  5
195
100
AcDbEntity
  8
0
 62
7
100
AcDbSpline
 70
8
 71
3
 72
8
 73
4
 74
0
 40
0
 40
0
 40
0
 40
0
 40
1
 40
1
 40
1
 40
1
 10
35.112500
 20
48.947003
 30
0.0
 10
34.470493
 20
48.576340
 30
0.0
 10
34.075000
 20
47.891326
 30
0.0
 10
34.075000
 20
47.150000
 30
0.0
  0
SPLINE
  5
196
100
AcDbEntity
  8
0
 62
7
100
AcDbSpline
 70
8
 71
3
 72
8
 73
4
 74
0
 40
0
 40
0
 40
0
 40
0
 40
1
 40
1
 40
1
 40
1
 10
34.075000
 20
47.150000
 30
0.0
 10
34.075000
 20
46.408674
 30
0.0
 10
34.470493
 20
45.723660
 30
0.0
 10
35.112500
 20
45.352997
 30
0.0
  0
SPLINE
  5
197
100
AcDbEntity
  8
0
 62
7
100
AcDbSpline
 70
8
 71
3
 72
8
 73
4
 74
0
 40
0
 40
0
 40
0
 40
0
 40
1
 40
1
 40
1
 40
1
 10
35.112500
 20
45.352997
 30
0.0
 10
35.754507
 20
44.982334
 30
0.0
 10
36.545493
 20
44.982334
 30
0.0
 10
37.187500
 20
45.352997
 30
0.0
  0
SPLINE
  5
198
100
AcDbEntity
  8
0
 62
7
100
AcDbSpline
 70
8
 71
3
 72
8
 73
4
 74
0
 40
0
 40
0
 40
0
 40
0
 40
1
 40
1
 40
1
 40
1
 10
37.187500
 20
45.352997
 30
0.0
 10
37.829507
 20
45.723660
 30
0.0
 10
38.225000
 20
46.408674
 30
0.0
 10
38.225000
 20
47.150000
 30
0.0
  0
LWPOLYLINE
  5
199
100
AcDbEntity
  8
0
 62
7
100
AcDbPolyline
 90
2
 70
0
 10
38.225000
 20
78.150000
 30
0.0
 10
38.225000
 20
78.150000
 30
0.0
  0
SPLINE
  5
19a
100
AcDbEntity
  8
0
 62
7
100
AcDbSpline
 70
8
 71
3
 72
8
 73
4
 74
0
 40
0
 40
0
 40
0
 40
0
 40
1
 40
1
 40
1
 40
1
 10
-28.235889
 20
-17.500000
 30
0.0
 10
-28.235889
 20
-16.758674
 30
0.0
 10
-28.631382
 20
-16.073660
 30
0.0
 10
-29.273389
 20
-15.702997
 30
0.0
  0
SPLINE
  5
19b
100
AcDbEntity
  8
0
 62
7
100
AcDbSpline
 70
8
 71
3
 72
8
 73
4
 74
0
 40
0
 40
0
 40
0
 40
0
 40
1
 40
1
 40
1
 40
1
 10
-29.273389
 20
-15.702997
 30
0.0
 10
-29.915396
 20
-15.332334
 30
0.0
 10
-30.706382
 20
-15.332334
 30
0.0
 10
-31.348389
 20
-15.702997
 30
0.0
  0
SPLINE
  5
19c
100
AcDbEntity
  8
0
 62
7
100
AcDbSpline
 70
8
 71
3
 72
8
 73
4
 74
0
 40
0
 40
0
 40
0
 40
0
 40
1
 40
1
 40
1
 40
1
 10
-31.348389
 20
-15.702997
 30
0.0
 10
-31.990396
 20
-16.073660
 30
0.0
 10
-32.385889
 20
-16.758674
 30
0.0
 10
-32.385889
 20
-17.500000
 30
0.0
  0
SPLINE
  5
19d
100
AcDbEntity
  8
0
 62
7
100
AcDbSpline
 70
8
 71
3
 72
8
 73
4
 74
0
 40
0
 40
0
 40
0
 40
0
 40
1
 40
1
 40
1
 40
1
 10
-32.385889
 20
-17.500000
 30
0.0
 10
-32.385889
 20
-18.241326
 30
0.0
 10
-31.990396
 20
-18.926340
 30
0.0
 10
-31.348389
 20
-19.297003
 30
0.0
  0
SPLINE
  5
19e
100
AcDbEntity
  8
0
 62
7
100
AcDbSpline
 70
8
 71
3
 72
8
 73
4
 74
0
 40
0
 40
0
 40
0
 40
0
 40
1
 40
1
 40
1
 40
1
 10
-31.348389
 20
-19.297003
 30
0.0
 10
-30.706382
 20
-19.667666
 30
0.0
 10
-29.915396
 20
-19.667666
 30
0.0
 10
-29.273389
 20
-19.297003
 30
0.0
  0
SPLINE
  5
19f
100
AcDbEntity
  8
0
 62
7
100
AcDbSpline
 70
8
 71
3
 72
8
 73
4
 74
0
 40
0
 40
0
 40
0
 40
0
 40
1
 40
1
 40
1
 40
1
 10
-29.273389
 20
-19.297003
 30
0.0
 10
-28.631382
 20
-18.926340
 30
0.0
 10
-28.235889
 20
-18.241326
 30
0.0
 10
-28.235889
 20
-17.500000
 30
0.0
  0
LWPOLYLINE
  5
1a0
100
AcDbEntity
  8
0
 62
7
100
AcDbPolyline
 90
2
 70
0
 10
38.225000
 20
47.150000
 30
0.0
 10
38.225000
 20
47.150000
 30
0.0
  0
SPLINE
  5
1a1
100
AcDbEntity
  8
0
 62
7
100
AcDbSpline
 70
8
 71
3
 72
8
 73
4
 74
0
 40
0
 40
0
 40
0
 40
0
 40
1
 40
1
 40
1
 40
1
 10
-28.235889
 20
17.500000
 30
0.0
 10
-28.235889
 20
18.241326
 30
0.0
 10
-28.631382
 20
18.926340
 30
0.0
 10
-29.273389
 20
19.297003
 30
0.0
  0
SPLINE
  5
1a2
100
AcDbEntity
  8
0
 62
7
100
AcDbSpline
 70
8
 71
3
 72
8
 73
4
 74
0
 40
0
 40
0
 40
0
 40
0
 40
1
 40
1
 40
1
 40
1
 10
-29.273389
 20
19.297003
 30
0.0
 10
-29.915396
 20
19.667666
 30
0.0
 10
-30.706382
 20
19.667666
 30
0.0
 10
-31.348389
 20
19.297003
 30
0.0
  0
SPLINE
  5
1a3
100
AcDbEntity
  8
0
 62
7
100
AcDbSpline
 70
8
 71
3
 72
8
 73
4
 74
0
 40
0
 40
0
 40
0
 40
0
 40
1
 40
1
 40
1
 40
1
 10
-31.348389
 20
19.297003
 30
0.0
 10
-31.990396
 20
18.926340
 30
0.0
 10
-32.385889
 20
18.241326
 30
0.0
 10
-32.385889
 20
17.500000
 30
0.0
  0
SPLINE
  5
1a4
100
AcDbEntity
  8
0
 62
7
100
AcDbSpline
 70
8
 71
3
 72
8
 73
4
 74
0
 40
0
 40
0
 40
0
 40
0
 40
1
 40
1
 40
1
 40
1
 10
-32.385889
 20
17.500000
 30
0.0
 10
-32.385889
 20
16.758674
 30
0.0
 10
-31.990396
 20
16.073660
 30
0.0
 10
-31.348389
 20
15.702997
 30
0.0
  0
SPLINE
  5
1a5
100
AcDbEntity
  8
0
 62
7
100
AcDbSpline
 70
8
 71
3
 72
8
 73
4
 74
0
 40
0
 40
0
 40
0
 40
0
 40
1
 40
1
 40
1
 40
1
 10
-31.348389
 20
15.702997
 30
0.0
 10
-30.706382
 20
15.332334
 30
0.0
 10
-29.915396
 20
15.332334
 30
0.0
 10
-29.273389
 20
15.702997
 30
0.0
  0
SPLINE
  5
1a6
100
AcDbEntity
  8
0
 62
7
100
AcDbSpline
 70
8
 71
3
 72
8
 73
4
 74
0
 40
0
 40
0
 40
0
 40
0
 40
1
 40
1
 40
1
 40
1
 10
-29.273389
 20
15.702997
 30
0.0
 10
-28.631382
 20
16.073660
 30
0.0
 10
-28.235889
 20
16.758674
 30
0.0
 10
-28.235889
 20
17.500000
 30
0.0
  0
LWPOLYLINE
  5
1a7
100
AcDbEntity
  8
0
 62
7
100
AcDbPolyline
 90
2
 70
0
 10
-28.235889
 20
-17.500000
 30
0.0
 10
-28.235889
 20
-17.500000
 30
0.0
  0
SPLINE
  5
1a8
100
AcDbEntity
  8
0
 62
7
100
AcDbSpline
 70
8
 71
3
 72
8
 73
4
 74
0
 40
0
 40
0
 40
0
 40
0
 40
1
 40
1
 40
1
 40
1
 10
71.025000
 20
93.800000
 30
0.0
 10
71.025000
 20
94.737822
 30
0.0
 10
70.524678
 20
95.604406
 30
0.0
 10
69.712500
 20
96.073317
 30
0.0
  0
SPLINE
  5
1a9
100
AcDbEntity
  8
0
 62
7
100
AcDbSpline
 70
8
 71
3
 72
8
 73
4
 74
0
 40
0
 40
0
 40
0
 40
0
 40
1
 40
1
 40
1
 40
1
 10
69.712500
 20
96.073317
 30
0.0
 10
68.900322
 20
96.542228
 30
0.0
 10
67.899678
 20
96.542228
 30
0.0
 10
67.087500
 20
96.073317
 30
0.0
  0
SPLINE
  5
1aa
100
AcDbEntity
  8
0
 62
7
100
AcDbSpline
 70
8
 71
3
 72
8
 73
4
 74
0
 40
0
 40
0
 40
0
 40
0
 40
1
 40
1
 40
1
 40
1
 10
67.087500
 20
96.073317
 30
0.0
 10
66.275322
 20
95.604406
 30
0.0
 10
65.775000
 20
94.737822
 30
0.0
 10
65.775000
 20
93.800000
 30
0.0
  0
SPLINE
  5
1ab
100
AcDbEntity
  8
0
 62
7
100
AcDbSpline
 70
8
 71
3
 72
8
 73
4
 74
0
 40
0
 40
0
 40
0
 40
0
 40
1
 40
1
 40
1
 40
1
 10
65.775000
 20
93.800000
 30
0.0
 10
65.775000
 20
92.862178
 30
0.0
 10
66.275322
 20
91.995594
 30
0.0
 10
67.087500
 20
91.526683
 30
0.0
  0
SPLINE
  5
1ac
100
AcDbEntity
  8
0
 62
7
100
AcDbSpline
 70
8
 71
3
 72
8
 73
4
 74
0
 40
0
 40
0
 40
0
 40
0
 40
1
 40
1
 40
1
 40
1
 10
67.087500
 20
91.526683
 30
0.0
 10
67.899678
 20
91.057772
 30
0.0
 10
68.900322
 20
91.057772
 30
0.0
 10
69.712500
 20
91.526683
 30
0.0
  0
SPLINE
  5
1ad
100
AcDbEntity
  8
0
 62
7
100
AcDbSpline
 70
8
 71
3
 72
8
 73
4
 74
0
 40
0
 40
0
 40
0
 40
0
 40
1
 40
1
 40
1
 40
1
 10
69.712500
 20
91.526683
 30
0.0
 10
70.524678
 20
91.995594
 30
0.0
 10
71.025000
 20
92.862178
 30
0.0
 10
71.025000
 20
93.800000
 30
0.0
  0
LWPOLYLINE
  5
1ae
100
AcDbEntity
  8
0
 62
7
100
AcDbPolyline
 90
2
 70
0
 10
-28.235889
 20
17.500000
 30
0.0
 10
-28.235889
 20
17.500000
 30
0.0
  0
SPLINE
  5
1af
100
AcDbEntity
  8
0
 62
7
100
AcDbSpline
 70
8
 71
3
 72
8
 73
4
 74
0
 40
0
 40
0
 40
0
 40
0
 40
1
 40
1
 40
1
 40
1
 10
-65.775000
 20
93.800000
 30
0.0
 10
-65.775000
 20
94.737822
 30
0.0
 10
-66.275322
 20
95.604406
 30
0.0
 10
-67.087500
 20
96.073317
 30
0.0
  0
SPLINE
  5
1b0
100
AcDbEntity
  8
0
 62
7
100
AcDbSpline
 70
8
 71
3
 72
8
 73
4
 74
0
 40
0
 40
0
 40
0
 40
0
 40
1
 40
1
 40
1
 40
1
 10
-67.087500
 20
96.073317
 30
0.0
 10
-67.899678
 20
96.542228
 30
0.0
 10
-68.900322
 20
96.542228
 30
0.0
 10
-69.712500
 20
96.073317
 30
0.0
  0
SPLINE
  5
1b1
100
AcDbEntity
  8
0
 62
7
100
AcDbSpline
 70
8
 71
3
 72
8
 73
4
 74
0
 40
0
 40
0
 40
0
 40
0
 40
1
 40
1
 40
1
 40
1
 10
-69.712500
 20
96.073317
 30
0.0
 10
-70.524678
 20
95.604406
 30
0.0
 10
-71.025000
 20
94.737822
 30
0.0
 10
-71.025000
 20
93.800000
 30
0.0
  0
SPLINE
  5
1b2
100
AcDbEntity
  8
0
 62
7
100
AcDbSpline
 70
8
 71
3
 72
8
 73
4
 74
0
 40
0
 40
0
 40
0
 40
0
 40
1
 40
1
 40
1
 40
1
 10
-71.025000
 20
93.800000
 30
0.0
 10
-71.025000
 20
92.862178
 30
0.0
 10
-70.524678
 20
91.995594
 30
0.0
 10
-69.712500
 20
91.526683
 30
0.0
  0
SPLINE
  5
1b3
100
AcDbEntity
  8
0
 62
7
100
AcDbSpline
 70
8
 71
3
 72
8
 73
4
 74
0
 40
0
 40
0
 40
0
 40
0
 40
1
 40
1
 40
1
 40
1
 10
-69.712500
 20
91.526683
 30
0.0
 10
-68.900322
 20
91.057772
 30
0.0
 10
-67.899678
 20
91.057772
 30
0.0
 10
-67.087500
 20
91.526683
 30
0.0
  0
SPLINE
  5
1b4
100
AcDbEntity
  8
0
 62
7
100
AcDbSpline
 70
8
 71
3
 72
8
 73
4
 74
0
 40
0
 40
0
 40
0
 40
0
 40
1
 40
1
 40
1
 40
1
 10
-67.087500
 20
91.526683
 30
0.0
 10
-66.275322
 20
91.995594
 30
0.0
 10
-65.775000
 20
92.862178
 30
0.0
 10
-65.775000
 20
93.800000
 30
0.0
  0
LWPOLYLINE
  5
1b5
100
AcDbEntity
  8
0
 62
7
100
AcDbPolyline
 90
2
 70
0
 10
71.025000
 20
93.800000
 30
0.0
 10
71.025000
 20
93.800000
 30
0.0
  0
SPLINE
  5
1b6
100
AcDbEntity
  8
0
 62
7
100
AcDbSpline
 70
8
 71
3
 72
8
 73
4
 74
0
 40
0
 40
0
 40
0
 40
0
 40
1
 40
1
 40
1
 40
1
 10
32.385889
 20
17.500000
 30
0.0
 10
32.385889
 20
18.241326
 30
0.0
 10
31.990396
 20
18.926340
 30
0.0
 10
31.348389
 20
19.297003
 30
0.0
  0
SPLINE
  5
1b7
100
AcDbEntity
  8
0
 62
7
100
AcDbSpline
 70
8
 71
3
 72
8
 73
4
 74
0
 40
0
 40
0
 40
0
 40
0
 40
1
 40
1
 40
1
 40
1
 10
31.348389
 20
19.297003
 30
0.0
 10
30.706382
 20
19.667666
 30
0.0
 10
29.915396
 20
19.667666
 30
0.0
 10
29.273389
 20
19.297003
 30
0.0
  0
SPLINE
  5
1b8
100
AcDbEntity
  8
0
 62
7
100
AcDbSpline
 70
8
 71
3
 72
8
 73
4
 74
0
 40
0
 40
0
 40
0
 40
0
 40
1
 40
1
 40
1
 40
1
 10
29.273389
 20
19.297003
 30
0.0
 10
28.631382
 20
18.926340
 30
0.0
 10
28.235889
 20
18.241326
 30
0.0
 10
28.235889
 20
17.500000
 30
0.0
  0
SPLINE
  5
1b9
100
AcDbEntity
  8
0
 62
7
100
AcDbSpline
 70
8
 71
3
 72
8
 73
4
 74
0
 40
0
 40
0
 40
0
 40
0
 40
1
 40
1
 40
1
 40
1
 10
28.235889
 20
17.500000
 30
0.0
 10
28.235889
 20
16.758674
 30
0.0
 10
28.631382
 20
16.073660
 30
0.0
 10
29.273389
 20
15.702997
 30
0.0
  0
SPLINE
  5
1ba
100
AcDbEntity
  8
0
 62
7
100
AcDbSpline
 70
8
 71
3
 72
8
 73
4
 74
0
 40
0
 40
0
 40
0
 40
0
 40
1
 40
1
 40
1
 40
1
 10
29.273389
 20
15.702997
 30
0.0
 10
29.915396
 20
15.332334
 30
0.0
 10
30.706382
 20
15.332334
 30
0.0
 10
31.348389
 20
15.702997
 30
0.0
  0
SPLINE
  5
1bb
100
AcDbEntity
  8
0
 62
7
100
AcDbSpline
 70
8
 71
3
 72
8
 73
4
 74
0
 40
0
 40
0
 40
0
 40
0
 40
1
 40
1
 40
1
 40
1
 10
31.348389
 20
15.702997
 30
0.0
 10
31.990396
 20
16.073660
 30
0.0
 10
32.385889
 20
16.758674
 30
0.0
 10
32.385889
 20
17.500000
 30
0.0
  0
LWPOLYLINE
  5
1bc
100
AcDbEntity
  8
0
 62
7
100
AcDbPolyline
 90
2
 70
0
 10
-65.775000
 20
93.800000
 30
0.0
 10
-65.775000
 20
93.800000
 30
0.0
  0
SPLINE
  5
1bd
100
AcDbEntity
  8
0
 62
7
100
AcDbSpline
 70
8
 71
3
 72
8
 73
4
 74
0
 40
0
 40
0
 40
0
 40
0
 40
1
 40
1
 40
1
 40
1
 10
2.075000
 20
-0.000000
 30
0.0
 10
2.075000
 20
0.741326
 30
0.0
 10
1.679507
 20
1.426340
 30
0.0
 10
1.037500
 20
1.797003
 30
0.0
  0
SPLINE
  5
1be
100
AcDbEntity
  8
0
 62
7
100
AcDbSpline
 70
8
 71
3
 72
8
 73
4
 74
0
 40
0
 40
0
 40
0
 40
0
 40
1
 40
1
 40
1
 40
1
 10
1.037500
 20
1.797003
 30
0.0
 10
0.395493
 20
2.167666
 30
0.0
 10
-0.395493
 20
2.167666
 30
0.0
 10
-1.037500
 20
1.797003
 30
0.0
  0
SPLINE
  5
1bf
100
AcDbEntity
  8
0
 62
7
100
AcDbSpline
 70
8
 71
3
 72
8
 73
4
 74
0
 40
0
 40
0
 40
0
 40
0
 40
1
 40
1
 40
1
 40
1
 10
-1.037500
 20
1.797003
 30
0.0
 10
-1.679507
 20
1.426340
 30
0.0
 10
-2.075000
 20
0.741326
 30
0.0
 10
-2.075000
 20
-0.000000
 30
0.0
  0
SPLINE
  5
1c0
100
AcDbEntity
  8
0
 62
7
100
AcDbSpline
 70
8
 71
3
 72
8
 73
4
 74
0
 40
0
 40
0
 40
0
 40
0
 40
1
 40
1
 40
1
 40
1
 10
-2.075000
 20
-0.000000
 30
0.0
 10
-2.075000
 20
-0.741326
 30
0.0
 10
-1.679507
 20
-1.426340
 30
0.0
 10
-1.037500
 20
-1.797003
 30
0.0
  0
SPLINE
  5
1c1
100
AcDbEntity
  8
0
 62
7
100
AcDbSpline
 70
8
 71
3
 72
8
 73
4
 74
0
 40
0
 40
0
 40
0
 40
0
 40
1
 40
1
 40
1
 40
1
 10
-1.037500
 20
-1.797003
 30
0.0
 10
-0.395493
 20
-2.167666
 30
0.0
 10
0.395493
 20
-2.167666
 30
0.0
 10
1.037500
 20
-1.797003
 30
0.0
  0
SPLINE
  5
1c2
100
AcDbEntity
  8
0
 62
7
100
AcDbSpline
 70
8
 71
3
 72
8
 73
4
 74
0
 40
0
 40
0
 40
0
 40
0
 40
1
 40
1
 40
1
 40
1
 10
1.037500
 20
-1.797003
 30
0.0
 10
1.679507
 20
-1.426340
 30
0.0
 10
2.075000
 20
-0.741326
 30
0.0
 10
2.075000
 20
-0.000000
 30
0.0
  0
LWPOLYLINE
  5
1c3
100
AcDbEntity
  8
0
 62
7
100
AcDbPolyline
 90
2
 70
0
 10
32.385889
 20
17.500000
 30
0.0
 10
32.385889
 20
17.500000
 30
0.0
  0
SPLINE
  5
1c4
100
AcDbEntity
  8
0
 62
7
100
AcDbSpline
 70
8
 71
3
 72
8
 73
4
 74
0
 40
0
 40
0
 40
0
 40
0
 40
1
 40
1
 40
1
 40
1
 10
32.385889
 20
-17.500000
 30
0.0
 10
32.385889
 20
-16.758674
 30
0.0
 10
31.990396
 20
-16.073660
 30
0.0
 10
31.348389
 20
-15.702997
 30
0.0
  0
SPLINE
  5
1c5
100
AcDbEntity
  8
0
 62
7
100
AcDbSpline
 70
8
 71
3
 72
8
 73
4
 74
0
 40
0
 40
0
 40
0
 40
0
 40
1
 40
1
 40
1
 40
1
 10
31.348389
 20
-15.702997
 30
0.0
 10
30.706382
 20
-15.332334
 30
0.0
 10
29.915396
 20
-15.332334
 30
0.0
 10
29.273389
 20
-15.702997
 30
0.0
  0
SPLINE
  5
1c6
100
AcDbEntity
  8
0
 62
7
100
AcDbSpline
 70
8
 71
3
 72
8
 73
4
 74
0
 40
0
 40
0
 40
0
 40
0
 40
1
 40
1
 40
1
 40
1
 10
29.273389
 20
-15.702997
 30
0.0
 10
28.631382
 20
-16.073660
 30
0.0
 10
28.235889
 20
-16.758674
 30
0.0
 10
28.235889
 20
-17.500000
 30
0.0
  0
SPLINE
  5
1c7
100
AcDbEntity
  8
0
 62
7
100
AcDbSpline
 70
8
 71
3
 72
8
 73
4
 74
0
 40
0
 40
0
 40
0
 40
0
 40
1
 40
1
 40
1
 40
1
 10
28.235889
 20
-17.500000
 30
0.0
 10
28.235889
 20
-18.241326
 30
0.0
 10
28.631382
 20
-18.926340
 30
0.0
 10
29.273389
 20
-19.297003
 30
0.0
  0
SPLINE
  5
1c8
100
AcDbEntity
  8
0
 62
7
100
AcDbSpline
 70
8
 71
3
 72
8
 73
4
 74
0
 40
0
 40
0
 40
0
 40
0
 40
1
 40
1
 40
1
 40
1
 10
29.273389
 20
-19.297003
 30
0.0
 10
29.915396
 20
-19.667666
 30
0.0
 10
30.706382
 20
-19.667666
 30
0.0
 10
31.348389
 20
-19.297003
 30
0.0
  0
SPLINE
  5
1c9
100
AcDbEntity
  8
0
 62
7
100
AcDbSpline
 70
8
 71
3
 72
8
 73
4
 74
0
 40
0
 40
0
 40
0
 40
0
 40
1
 40
1
 40
1
 40
1
 10
31.348389
 20
-19.297003
 30
0.0
 10
31.990396
 20
-18.926340
 30
0.0
 10
32.385889
 20
-18.241326
 30
0.0
 10
32.385889
 20
-17.500000
 30
0.0
  0
LWPOLYLINE
  5
1ca
100
AcDbEntity
  8
0
 62
7
100
AcDbPolyline
 90
2
 70
0
 10
2.075000
 20
-0.000000
 30
0.0
 10
2.075000
 20
-0.000000
 30
0.0
  0
SPLINE
  5
1cb
100
AcDbEntity
  8
0
 62
7
100
AcDbSpline
 70
8
 71
3
 72
8
 73
4
 74
0
 40
0
 40
0
 40
0
 40
0
 40
1
 40
1
 40
1
 40
1
 10
54.400000
 20
-153.911035
 30
0.0
 10
54.400000
 20
-153.375137
 30
0.0
 10
54.114102
 20
-152.879946
 30
0.0
 10
53.650000
 20
-152.611997
 30
0.0
  0
SPLINE
  5
1cc
100
AcDbEntity
  8
0
 62
7
100
AcDbSpline
 70
8
 71
3
 72
8
 73
4
 74
0
 40
0
 40
0
 40
0
 40
0
 40
1
 40
1
 40
1
 40
1
 10
53.650000
 20
-152.611997
 30
0.0
 10
53.185898
 20
-152.344048
 30
0.0
 10
52.614102
 20
-152.344048
 30
0.0
 10
52.150000
 20
-152.611997
 30
0.0
  0
SPLINE
  5
1cd
100
AcDbEntity
  8
0
 62
7
100
AcDbSpline
 70
8
 71
3
 72
8
 73
4
 74
0
 40
0
 40
0
 40
0
 40
0
 40
1
 40
1
 40
1
 40
1
 10
52.150000
 20
-152.611997
 30
0.0
 10
51.685898
 20
-152.879946
 30
0.0
 10
51.400000
 20
-153.375137
 30
0.0
 10
51.400000
 20
-153.911035
 30
0.0
  0
SPLINE
  5
1ce
100
AcDbEntity
  8
0
 62
7
100
AcDbSpline
 70
8
 71
3
 72
8
 73
4
 74
0
 40
0
 40
0
 40
0
 40
0
 40
1
 40
1
 40
1
 40
1
 10
51.400000
 20
-153.911035
 30
0.0
 10
51.400000
 20
-154.446933
 30
0.0
 10
51.685898
 20
-154.942124
 30
0.0
 10
52.150000
 20
-155.210073
 30
0.0
  0
SPLINE
  5
1cf
100
AcDbEntity
  8
0
 62
7
100
AcDbSpline
 70
8
 71
3
 72
8
 73
4
 74
0
 40
0
 40
0
 40
0
 40
0
 40
1
 40
1
 40
1
 40
1
 10
52.150000
 20
-155.210073
 30
0.0
 10
52.614102
 20
-155.478022
 30
0.0
 10
53.185898
 20
-155.478022
 30
0.0
 10
53.650000
 20
-155.210073
 30
0.0
  0
SPLINE
  5
1d0
100
AcDbEntity
  8
0
 62
7
100
AcDbSpline
 70
8
 71
3
 72
8
 73
4
 74
0
 40
0
 40
0
 40
0
 40
0
 40
1
 40
1
 40
1
 40
1
 10
53.650000
 20
-155.210073
 30
0.0
 10
54.114102
 20
-154.942124
 30
0.0
 10
54.400000
 20
-154.446933
 30
0.0
 10
54.400000
 20
-153.911035
 30
0.0
  0
LWPOLYLINE
  5
1d1
100
AcDbEntity
  8
0
 62
7
100
AcDbPolyline
 90
2
 70
0
 10
32.385889
 20
-17.500000
 30
0.0
 10
32.385889
 20
-17.500000
 30
0.0
  0
SPLINE
  5
1d2
100
AcDbEntity
  8
0
 62
7
100
AcDbSpline
 70
8
 71
3
 72
8
 73
4
 74
0
 40
0
 40
0
 40
0
 40
0
 40
1
 40
1
 40
1
 40
1
 10
164.400000
 20
-153.911035
 30
0.0
 10
164.400233
 20
-153.374982
 30
0.0
 10
164.114385
 20
-152.879549
 30
0.0
 10
163.650188
 20
-152.611455
 30
0.0
  0
SPLINE
  5
1d3
100
AcDbEntity
  8
0
 62
7
100
AcDbSpline
 70
8
 71
3
 72
8
 73
4
 74
0
 40
0
 40
0
 40
0
 40
0
 40
1
 40
1
 40
1
 40
1
 10
163.650188
 20
-152.611455
 30
0.0
 10
163.185991
 20
-152.343361
 30
0.0
 10
162.614009
 20
-152.343361
 30
0.0
 10
162.149812
 20
-152.611455
 30
0.0
  0
SPLINE
  5
1d4
100
AcDbEntity
  8
0
 62
7
100
AcDbSpline
 70
8
 71
3
 72
8
 73
4
 74
0
 40
0
 40
0
 40
0
 40
0
 40
1
 40
1
 40
1
 40
1
 10
162.149812
 20
-152.611455
 30
0.0
 10
161.685615
 20
-152.879549
 30
0.0
 10
161.399768
 20
-153.374982
 30
0.0
 10
161.400000
 20
-153.911035
 30
0.0
  0
SPLINE
  5
1d5
100
AcDbEntity
  8
0
 62
7
100
AcDbSpline
 70
8
 71
3
 72
8
 73
4
 74
0
 40
0
 40
0
 40
0
 40
0
 40
1
 40
1
 40
1
 40
1
 10
161.400000
 20
-153.911035
 30
0.0
 10
161.399768
 20
-154.447088
 30
0.0
 10
161.685615
 20
-154.942522
 30
0.0
 10
162.149812
 20
-155.210615
 30
0.0
  0
SPLINE
  5
1d6
100
AcDbEntity
  8
0
 62
7
100
AcDbSpline
 70
8
 71
3
 72
8
 73
4
 74
0
 40
0
 40
0
 40
0
 40
0
 40
1
 40
1
 40
1
 40
1
 10
162.149812
 20
-155.210615
 30
0.0
 10
162.614009
 20
-155.478709
 30
0.0
 10
163.185991
 20
-155.478709
 30
0.0
 10
163.650188
 20
-155.210615
 30
0.0
  0
SPLINE
  5
1d7
100
AcDbEntity
  8
0
 62
7
100
AcDbSpline
 70
8
 71
3
 72
8
 73
4
 74
0
 40
0
 40
0
 40
0
 40
0
 40
1
 40
1
 40
1
 40
1
 10
163.650188
 20
-155.210615
 30
0.0
 10
164.114385
 20
-154.942522
 30
0.0
 10
164.400233
 20
-154.447088
 30
0.0
 10
164.400000
 20
-153.911035
 30
0.0
  0
LWPOLYLINE
  5
1d8
100
AcDbEntity
  8
0
 62
7
100
AcDbPolyline
 90
2
 70
0
 10
54.400000
 20
-153.911035
 30
0.0
 10
54.400000
 20
-153.911035
 30
0.0
  0
SPLINE
  5
1d9
100
AcDbEntity
  8
0
 62
7
100
AcDbSpline
 70
8
 71
3
 72
8
 73
4
 74
0
 40
0
 40
0
 40
0
 40
0
 40
1
 40
1
 40
1
 40
1
 10
109.400000
 20
-72.800000
 30
0.0
 10
109.400232
 20
-72.263947
 30
0.0
 10
109.114385
 20
-71.768514
 30
0.0
 10
108.650188
 20
-71.500420
 30
0.0
  0
SPLINE
  5
1da
100
AcDbEntity
  8
0
 62
7
100
AcDbSpline
 70
8
 71
3
 72
8
 73
4
 74
0
 40
0
 40
0
 40
0
 40
0
 40
1
 40
1
 40
1
 40
1
 10
108.650188
 20
-71.500420
 30
0.0
 10
108.185991
 20
-71.232326
 30
0.0
 10
107.614009
 20
-71.232326
 30
0.0
 10
107.149812
 20
-71.500420
 30
0.0
  0
SPLINE
  5
1db
100
AcDbEntity
  8
0
 62
7
100
AcDbSpline
 70
8
 71
3
 72
8
 73
4
 74
0
 40
0
 40
0
 40
0
 40
0
 40
1
 40
1
 40
1
 40
1
 10
107.149812
 20
-71.500420
 30
0.0
 10
106.685615
 20
-71.768514
 30
0.0
 10
106.399767
 20
-72.263947
 30
0.0
 10
106.400000
 20
-72.800000
 30
0.0
  0
SPLINE
  5
1dc
100
AcDbEntity
  8
0
 62
7
100
AcDbSpline
 70
8
 71
3
 72
8
 73
4
 74
0
 40
0
 40
0
 40
0
 40
0
 40
1
 40
1
 40
1
 40
1
 10
106.400000
 20
-72.800000
 30
0.0
 10
106.399767
 20
-73.336053
 30
0.0
 10
106.685615
 20
-73.831487
 30
0.0
 10
107.149812
 20
-74.099580
 30
0.0
  0
SPLINE
  5
1dd
100
AcDbEntity
  8
0
 62
7
100
AcDbSpline
 70
8
 71
3
 72
8
 73
4
 74
0
 40
0
 40
0
 40
0
 40
0
 40
1
 40
1
 40
1
 40
1
 10
107.149812
 20
-74.099580
 30
0.0
 10
107.614009
 20
-74.367674
 30
0.0
 10
108.185991
 20
-74.367674
 30
0.0
 10
108.650188
 20
-74.099580
 30
0.0
  0
SPLINE
  5
1de
100
AcDbEntity
  8
0
 62
7
100
AcDbSpline
 70
8
 71
3
 72
8
 73
4
 74
0
 40
0
 40
0
 40
0
 40
0
 40
1
 40
1
 40
1
 40
1
 10
108.650188
 20
-74.099580
 30
0.0
 10
109.114385
 20
-73.831487
 30
0.0
 10
109.400232
 20
-73.336053
 30
0.0
 10
109.400000
 20
-72.800000
 30
0.0
  0
LWPOLYLINE
  5
1df
100
AcDbEntity
  8
0
 62
7
100
AcDbPolyline
 90
2
 70
0
 10
164.400000
 20
-153.911035
 30
0.0
 10
164.400000
 20
-153.911035
 30
0.0
  0
LWPOLYLINE
  5
1e0
100
AcDbEntity
  8
0
 62
7
100
AcDbPolyline
 90
2
 70
0
 10
109.400000
 20
-72.800000
 30
0.0
 10
109.400000
 20
-72.800000
 30
0.0
  0
ENDSEC
  0
SECTION
  2
OBJECTS
  0
DICTIONARY
  5
C
330
0
100
AcDbDictionary
  3
ACAD_GROUP
350
D
  3
ACAD_MLINESTYLE
350
17
  0
DICTIONARY
  5
D
330
C
100
AcDbDictionary
  0
DICTIONARY
  5
1A
330
C
100
AcDbDictionary
  0
DICTIONARY
  5
17
330
C
100
AcDbDictionary
  3
STANDARD
350
18
  0
DICTIONARY
  5
19
330
C
100
AcDbDictionary
  0
ENDSEC
  0
EOF
